<svg width="208" height="501" viewBox="0 0 208 501" fill="none" xmlns="http://www.w3.org/2000/svg">
<path opacity="0.2" fill-rule="evenodd" clip-rule="evenodd" d="M77.4983 171.348C76.0878 171.507 75.3394 172.045 74.884 172.839C73.8671 169.09 72.5465 165.87 70.8465 163.312C69.8119 158.673 73.5347 156.322 75.4039 152.908C76.3147 151.319 77.2555 148.604 78.1857 146.675C81.6029 139.486 82.7463 127.213 78.0468 117.306C75.9798 119.991 76.3436 123.806 75.8848 127.061C75.4259 130.316 75.2602 133.827 74.5365 136.931C73.5941 140.876 72.3109 144.802 72.1257 148.654C72.0658 150.906 72.5283 151.787 71.6546 153.925C71.1321 155.296 70.9221 156.583 69.3776 157.897C68.6431 155.189 67.0843 153.152 65.9898 150.765C63.3099 145.007 62.4111 137.983 59.8354 132.197C58.9014 129.99 57.3055 127.404 55.8332 124.449C54.5215 121.674 53.5206 120.045 52.8726 116.419C55.6101 107.962 58.766 98.1612 54.9102 87.2433C53.4113 82.9538 51.5241 78.8815 48.9838 74.8745C47.5046 76.841 47.7448 81.0246 47.7785 84.0344C47.8509 86.3627 49.5316 89.2612 50.0101 92.2621C50.4886 95.263 50.0774 98.2816 50.5559 101.283C51.2975 105.666 52.844 109.719 52.034 113.74C49.1811 109.818 47.0679 104.912 44.3863 100.384C43.7349 99.2192 42.591 98.2996 42.0155 97.0021C40.9686 94.379 41.1997 91.5211 38.7971 90.4956C32.8459 75.5618 24.6935 64.4676 9.71011 65.289C11.502 69.8345 16.0546 69.7178 19.3169 71.8518C21.121 74.3814 23.7125 75.6911 25.2131 78.7502C28.9025 79.9857 31.2451 83.2637 33.8631 85.9079C36.5093 88.6563 39.5245 91.5282 40.9951 95.7135C37.7417 94.0243 34.8395 91.569 31.8897 89.3502C28.9399 87.1314 26.3695 84.2506 23.3244 82.5049C17.2059 78.9094 9.80597 78.0094 1.12626 78.5747C2.72216 81.1607 6.21384 81.6672 9.04182 83.0245C12.56 84.8655 17.3103 85.4779 21.6335 86.9887C30.0433 89.9628 37.5828 92.6139 43.1083 100.619C44.1341 104.813 47.0291 105.593 48.1026 109.551C44.3726 110.227 43.0626 106.222 41.4473 103.977C38.0367 99.6466 33.1397 95.608 28.4494 92.7432C26.1986 91.4529 23.7784 89.5377 20.8163 89.3348C22.0327 92.5828 24.6153 93.4476 25.8599 96.7998C32.411 102.402 39.977 106.388 46.8034 111.357C47.589 111.367 47.9667 111.936 49.0841 111.521C50.8795 113.606 51.7552 116.834 51.7129 119.976C39.0862 120.83 27.0415 111.462 13.9419 118.816C14.5263 120.559 16.7134 119.966 18.0285 120.28C21.1036 120.899 23.9615 121.13 28.0022 121.6C33.1973 122.203 39.7729 123.774 46.3714 122.543C49.1357 122.017 51.3334 120.638 53.3 122.118C58.4515 133.69 63.0716 146.19 67.6918 158.689C62.4085 160.234 59.974 154.969 56.1362 151.537C50.0865 146.134 42.6739 140.653 35.2774 137.292C41.7511 150.855 55.1443 156.949 68.0291 161.17C68.1986 161.794 68.5481 162.259 69.1253 162.326C73.6342 173.178 77.6894 183.595 79.6882 195.911C78.901 197.131 77.674 194.668 76.1965 195.404C75.5522 195.915 74.8409 197.002 74.4508 198.45C74.0325 199.793 73.5931 202.707 73.782 202.992C75.9551 205.645 71.3566 204.768 70.3205 207.956C68.7903 212.619 73.7968 219.536 78.072 214.686C78.4621 213.239 78.7198 211.715 78.3243 210.257C77.7222 207.625 75.9252 206.771 75.4184 203.666C75.0988 202.075 74.7721 198.81 76.5638 196.758C79.7906 197.113 81.5985 203.779 82.9368 207.888C84.4727 212.726 84.5118 218.642 88.1042 221.581C87.2394 224.163 85.4671 225.874 84.281 228.097C82.8954 230.82 82.5601 233.707 81.8365 236.81C81.5982 237.993 80.8109 239.212 80.6009 240.499C79.9427 244.256 80.9967 248.554 79.3163 252.252C76.3628 245.898 74.576 237.661 70.9394 232.498C70.3676 235.336 67.5733 236.989 67.0862 240.14C66.2849 244.606 68.7671 249.635 69.2987 255.305C65.6869 252.707 63.7449 247.196 59.5735 245.42C58.7209 245.987 58.2002 246.128 57.1781 246.07C58.2604 250.472 60.1493 253.314 61.3834 257.452C59.4733 256.181 55.5491 253.667 52.2286 252.555C49.7182 247.422 48.1275 241.145 51.2271 237.733C50.9498 233 51.3538 228.306 53.2707 224.656C54.4286 222.329 56.4286 220.221 58.1355 217.857C59.6623 215.654 61.1609 213.347 62.5836 211.172C66.8993 204.411 72.246 198.153 71.1335 188.28C68.5757 189.98 68.6377 193.094 67.1956 195.61C64.9662 199.345 61.2699 203.031 58.4722 207.144C55.9021 210.86 52.0523 216.041 51.2705 220.167C50.6704 222.901 51.2531 225.874 51.022 228.732C50.7343 231.381 49.3399 233.66 49.8466 236.765C49.3153 237.692 48.2827 238.419 48.0162 239.498C45.3451 234.185 42.2786 227.413 40.905 221.525C39.9551 217.198 41.4272 213.556 43.4288 210.218C45.3264 206.908 48.7755 203.96 51.1655 200.405C52.2846 198.759 53.1107 196.858 54.2298 195.213C56.0037 192.272 57.3311 190.57 58.8121 187.373C59.7899 185.207 62.1993 181.311 60.0173 178.213C57.2883 180.519 56.044 183.763 53.7687 186.505C51.5693 189.114 49.0486 191.363 47.4353 194.484C43.7533 201.521 42.5215 209.346 39.4256 216.894C35.6919 213.435 36.2018 207.482 35.0171 201.878C29.5218 199.343 24.5634 205.384 22.1523 210.51C20.795 213.338 20.0608 217.227 18.9488 220.548C18.1599 222.998 16.7566 224.832 18.0859 228.496C18.2166 229.803 17.0516 230.454 17.9766 232.216C20.4197 231.33 21.4364 228.482 22.5943 226.156C23.7804 223.933 25.3267 221.389 26.2198 218.911C27.2365 216.063 27.5347 212.628 28.5513 209.781C29.568 206.933 30.8689 203.897 33.1336 201.941C34.6376 202.54 34.966 204.575 34.1505 205.691C33.2238 205.159 33.1795 202.935 31.4179 203.86C34.8428 211.541 39.0426 220.017 40.9247 227.781C35.3324 226.949 31.246 232.083 32.5631 237.763C26.3918 238.096 16.7765 237.685 9.77918 239.918C7.51616 240.644 3.86038 242.418 3.95226 244.405C4.03529 245.948 6.09174 244.049 6.63017 244.797C14.0478 246.587 24.9569 242.286 32.6022 243.679C31.9157 247.331 28.0234 249.058 25.9564 251.743C24.2213 254.002 23.3087 256.821 23.03 259.916C21.6267 261.75 19.7979 263.252 18.9242 265.39C18.2006 268.493 19.9854 271.364 20.1991 274.213C20.4605 276.825 19.0748 279.549 20.3777 281.879C19.8835 283.355 18.3689 283.542 17.9029 285.122C17.1034 288.358 19.7197 292.232 22.0746 293.494C23.7692 293.147 24.9625 292.599 26.1558 292.052C28.2333 288.582 25.6116 281.801 21.5039 281.909C20.9158 276.031 20.4884 270.333 20.1651 264.606C21.1784 264.22 21.5297 263.454 22.2781 262.915C22.76 263.455 23.6092 265.349 23.6075 266.58C23.6817 267.678 21.9006 268.943 21.7276 270.779C21.3995 275.341 24.5648 279.178 28.4377 277.792C33.0113 276.105 30.2042 266.579 24.6295 266.638C23.6691 263.097 22.0256 260.747 24.8481 259.199C24.5742 252.006 32.3483 249.338 34.3251 243.435C40.0904 242.43 43.778 244.896 48.0729 246.303L49.3724 251.094C43.9795 249.761 37.9512 249.384 31.1162 250.567C31.6917 251.864 33.3563 252.643 34.4438 253.354C38.1509 255.479 42.8059 256.565 47.7451 257.461C44.3772 263.182 40.7446 268.752 39.3344 275.508C34.2117 277.233 27.3679 277.971 27.1439 282.504C30.512 283.379 34.9428 282.401 38.1591 283.541C37.4566 285.074 37.4249 287.43 38.6148 289.344C42.0517 288.412 41.9139 285.43 43.762 283.587C47.8132 283.271 53.9668 282.049 58.0109 280.058C60.1204 280.827 62.6094 280.935 65.222 280.673C64.7789 279.452 62.8195 279.648 61.5326 279.438C60.3499 279.2 58.694 278.866 57.7285 279.016C54.8035 279.362 51.8291 281.175 48.8564 281.758C43.4319 282.782 38.0761 281.999 33.3629 281.935C31.7918 281.914 29.993 282.29 28.745 281.399C28.9179 279.563 31.3415 279.017 32.7714 278.518C41.6063 275.227 51.1845 275.089 57.3064 276.224C59.0753 276.974 60.0092 279.18 62.4893 278.843C59.1175 273.832 52.226 274.806 46.0935 274.457C48.2487 269.624 48.2573 263.472 49.8828 258.335C51.6534 257.855 52.4848 258.859 53.7717 259.069C56.1779 264.231 59.3714 268.172 62.7926 271.717C64.0655 275.173 65.3384 278.629 67.7022 280.336C67.0998 271.107 59.5444 266.336 55.74 259.318C58.296 258.848 59.913 259.863 62.4409 259.289C63.7808 262.168 64.7518 264.924 66.5277 267.349C68.143 269.595 70.6303 270.933 72.0285 272.79C73.8327 275.319 74.6519 278.339 76.4278 280.765C78.0431 283.01 79.9055 284.518 81.7291 286.706C82.1759 292.064 84.8681 295.806 87.5708 298.763C81.5071 296.606 74.9843 291.107 70.4314 284.627C69.7235 283.254 70.1347 280.235 68.2883 280.848C68.9097 283.139 69.2875 283.708 70.0978 286.283C68.3767 285.297 68.629 280.867 66.5759 280.306C65.3544 280.749 66.8091 282.815 65.4551 283.182C62.7561 284.361 59.4816 284.243 56.4983 285.611C54.3201 286.649 50.9928 290.459 48.112 293.029C45.0511 295.76 41.6973 298.235 39.7256 300.447C37.6498 302.687 35.7134 306.679 36.1249 310.257C37.7048 310.723 39.1364 308.993 40.0084 308.085C44.146 306.851 46.8291 303.552 49.521 300.697C53.8527 296.056 58.5428 292.324 60.4914 286.317C62.3007 285.156 65.9353 284.952 67.0827 283.411C67.6 285.731 69.1588 287.768 70.6046 289.388C73.7981 293.33 76.0189 295.746 80.132 298.544C81.9379 299.843 84.0651 301.503 85.5974 302.205C86.8649 302.756 88.3318 302.805 89.5993 303.356C96.7504 306.224 103.238 309.943 109.298 314.561C105.462 316.496 101.625 313.064 98.6448 311.972C96.5353 311.202 94.311 311.246 91.7461 311.271C87.0612 311.312 81.8184 310.945 76.2226 312.575C71.8484 313.761 68.4945 316.236 65.3013 318.891C63.6349 319.343 61.5996 319.671 60.5952 320.503C62.7948 324.491 67.3403 322.699 72.7366 321.57C82.9326 319.588 95.1145 318.743 105.519 316.704C102.845 320.448 99.3478 323.633 98.7637 328.487C97.0232 327.841 95.9799 329.354 94.2006 329.39C92.7619 329.444 91.2967 328.165 89.8863 328.324C85.106 328.837 81.8794 335.079 76.6488 332.697C75.9092 333.68 75.9923 335.223 74.9879 336.054C72.017 335.406 68.7336 334.843 65.0142 334.734C61.1907 334.653 57.2419 336.171 53.8349 335.977C50.2956 335.707 47.9618 332.874 45.2945 331.697C44.0216 328.241 41.4972 326.354 39.031 323.445C35.6575 319.664 34.277 318.696 29.8409 316.769C27.1735 315.592 24.5168 313.629 20.7657 315.876C28.7874 325.664 39.3897 330.951 49.992 336.237C43.6849 338.954 37.757 334.412 31.3985 333.23C27.5096 332.496 23.9897 331.885 20.8053 334.985C21.4639 337.825 23.4887 338.282 26.6679 338.874C31.2947 339.855 37.5789 339.939 44.2444 338.131C43.3901 339.928 40.1809 340.463 39.459 342.336L40.3064 345.461C44.7249 346.499 50.6896 344.993 55.7153 344.971C48.4514 348.283 40.9599 351.992 34.7076 356.148C30.8329 358.764 26.9389 361.721 26.9709 365.961C30.5473 366.78 34.1183 364.693 37.7829 363.364C41.8958 359.565 47.3132 356.866 52.2293 353.967C57.2213 350.936 60.0667 346.586 63.3181 342.909C66.3578 341.749 69.9271 340.893 72.3049 339.354C72.1602 341.294 70.0296 342.095 68.5609 343.276C66.5593 346.614 63.3803 352.62 66.6868 356.978C68.8351 357.066 69.4546 353.991 72.4837 353.617C72.3902 352.859 72.9586 352.482 73.158 351.98C77.7899 349.27 80.7765 345.442 83.6873 341.745C86.598 338.048 88.213 333.697 91.6816 330.408C93.8476 331.386 95.4857 330.83 98.2977 330.067C98.8627 332.15 97.2811 332.915 98.2432 335.225C99.3501 335.596 101.452 334.69 102.409 334.095C102.596 335.61 102.226 336.717 101.987 337.899C97.8691 338.793 95.246 339.84 91.9592 341.738C88.7766 343.607 85.7263 345.552 83.2056 347.802C81.7652 349.087 79.2075 350.787 79.9719 352.368C81.7179 355.92 89.6948 350.29 91.5429 348.447C92.083 347.965 92.6902 346.906 93.1739 346.216C94.7007 344.013 96.5983 340.703 100.717 339.81C101.121 341.712 98.0795 344.103 99.4565 347.531C101.386 348.461 104.182 352.175 104.5 354.996C104.677 357.296 103.019 358.193 102.477 359.905C102.605 363.672 104.37 366.883 106.649 368.277C115.431 368.914 112.184 355.707 105.766 356.777C105.579 355.262 105.552 353.928 104.977 352.63C103.958 350.111 101.084 347.76 100.747 345.28C100.503 343.557 101.109 343.728 101.868 342.404C103.301 339.444 103.299 334.078 105.715 331.857C107.846 331.055 108.889 329.543 110.783 328.693C111.47 331.638 110.093 334.806 111.661 337.288C107.446 339.885 109.165 348.699 113.64 349.945C112.915 354.279 117.653 356.907 117.791 359.889C117.911 361.98 116.273 362.536 114.974 364.342C114.278 367.55 115.994 372.228 117.855 374.965C127.001 379.417 126.903 361.33 119.085 361.774C119.621 357.156 115.46 354.595 114.88 350.392C115.676 349.617 117.105 349.117 118.034 348.418C118.832 346.413 119.261 344.284 118.366 341.396C119.672 341.265 121.317 342.384 123.211 341.535C127.596 339.563 125.479 330.522 121.535 328.349C120.704 327.344 117.843 329.574 117.846 327.113C119.892 325.999 122.104 327.971 124.213 328.74C126.323 329.51 128.992 329.457 130.438 331.077C130.9 331.958 128.715 331.321 129.281 332.174C129.753 333.499 129.959 334.673 129.901 335.695C129.871 336.822 129.038 337.047 128.696 338.258C128.163 340.416 129.19 343.379 128.874 345.925C129.137 347.307 129.66 345.935 130.313 345.87C131.785 348.825 132.435 351.221 131.588 354.693C131.178 356.481 129.426 357.851 129.48 359.29C129.532 363.189 132.226 365.701 135.006 367.295C136.757 367.155 137.052 366.181 138.67 365.965C141.534 362.505 137.996 354.408 133.424 354.866C132.859 352.783 133.505 351.042 132.968 349.063C131.942 344.869 128.615 342.082 129.774 338.525C130.392 336.68 131.947 334.581 132.556 332.292C134.014 331.896 134.713 332.825 136.048 332.798C135.951 334.502 136.535 336.244 138.106 336.265C139.404 335.69 139.538 334.535 139.142 333.077C140.893 332.937 142.72 332.666 144.215 332.819C143.047 335.931 141.61 341.352 142.871 346.825C141.42 348.895 137.983 349.828 137.724 352.581C139.897 355.234 144.246 351.483 144.23 349.363C146.045 351.107 146.049 355.243 146.547 357.903C143.948 361.515 144.189 372.295 150.891 371.036C157.073 369.919 154.552 358.974 148.6 358.464C146.677 352.613 143.111 344.412 144.046 338.791C146.279 339.192 145.347 342.351 147.344 342.704C148.377 341.977 145.552 338.159 144.721 337.155C144.844 336.786 144.892 336.549 144.75 336.028C145.008 334.505 146.486 333.769 147.141 332.473C148.996 332.305 150.396 332.932 152.63 332.102C154.641 335.805 151.856 337.903 154.947 340.642C154.31 342.828 152.068 341.982 150.92 343.523C149.033 346.048 150.968 349.883 152.924 352.148C154.788 352.425 157.279 351.302 158.359 350.339C159.272 347.519 157.535 344.413 155.815 342.196C157.605 341.375 159.837 343.006 160.998 344.815C159.669 347.747 159.786 352.3 162.328 355.076C171.02 359.092 170.523 342.008 162.541 344.732C160.843 340.944 157.095 340.73 154.79 338.001C154.726 336.118 155.192 334.538 154.334 332.199C157.354 331.38 158.503 328.608 161.287 327.742C162.717 327.242 164.041 328.001 165.82 327.966C167.155 327.939 168.953 327.563 170.496 327.48C173.241 327.294 175.531 327.903 178.609 326.062C186.866 330.531 195.263 335.521 203.888 340.114C209.525 343.17 216.139 344.059 221.529 347.852C216.473 349 209.931 350.439 206.041 350.935C206.86 353.955 210.318 351.452 212.325 351.019C215.922 350.267 220.768 350.407 223.052 348.11C229.273 352.908 238.179 353.176 244.324 358.106C242.53 361.387 239.28 357.237 236.384 357.688C232.417 358.316 225.838 359.206 223.856 362.204C227.673 367.206 235.798 357.176 239.21 360.275C238.963 361.013 237.07 360.632 236.617 360.196C236.281 363.082 232.267 363.947 230.343 365.923C221.307 364.348 209.586 367.304 200.408 371.806C197.192 377.262 206.868 375.421 212.663 373.29C214.481 372.573 216.698 370.854 218.857 370.156C222.55 368.931 228.921 368.098 231.448 367.524C232.027 366.36 232.502 365.225 233.611 364.366C235.012 363.762 235.067 365.201 236.62 364.332C237.609 361.38 243.997 361.437 245.884 358.912C247.323 358.857 248.456 360.563 249.916 358.937C256.743 363.906 265.998 364.638 271.837 371.328C277.335 372.632 280.982 377.01 286.602 377.945C289.051 379.965 290.864 382.939 293.844 384.032C297.141 387.945 300.012 392.757 303.346 397.219C304.263 398.536 305.32 400.374 307.175 400.206C307.302 397.376 304.617 395.309 302.916 393.982C302.841 392.884 303.959 392.469 303.223 390.991C302.693 390.688 301.86 390.914 301.055 391.244C299.839 387.996 297.256 387.131 296.343 383.354C294.453 381.742 292.211 380.897 290.927 378.226L289.573 378.593C286.756 376.45 283.635 374.837 280.106 373.781C280.761 372.486 282.99 375.347 283.598 374.288C282.768 372.053 280.344 372.599 279.259 370.657C277.687 370.636 277.894 371.81 276.249 370.691C275.274 370.396 274.983 368.909 274.16 368.35C273.375 368.339 273.677 369.04 273.714 369.589C268.316 365.351 261.295 363.789 256.153 359.258C253.699 360.93 252.379 357.71 250.43 357.12C248.896 357.648 247.893 357.249 246.313 356.783C245.766 355.59 247.337 355.611 246.79 354.418C245.483 354.549 245.633 355.514 244.592 355.797C239.976 354.03 234.717 351.543 229.599 349.577C228.228 349.054 226.733 348.901 225.91 348.341C224.265 347.222 223.843 344.429 221.371 345.211C220.881 344.226 222.139 344.332 221.649 343.347C220.503 343.658 219.225 343.893 219.034 344.839C204.637 339.576 191.833 331.532 178.65 324.15C172.588 327.36 165.652 326.11 159.889 325.885C164.708 324.689 173.27 327.399 178.254 322.692C177.64 322.076 177.462 321.006 176.876 320.495C175.808 319.443 175.031 319.877 173.329 318.549C170.162 315.942 167.613 311.49 164.476 307.757C163.644 306.753 162.425 305.965 161.461 304.885C159.854 303.085 158.816 300.906 156.754 299.9C156.548 298.726 155.734 298.612 155.708 297.277C147.135 288.757 139.797 277.777 129.63 272.037C131.692 266.446 126.267 260.874 124.998 254.957C126.583 258.328 129.54 262.222 131.039 266.512C131.51 267.837 131.489 269.408 132.14 270.573C132.877 272.051 134.561 272.489 134.928 273.843L135.969 273.56C142.746 279.996 148.367 287.528 154.945 294.465C159.784 299.526 164.49 304.511 168.93 310.574C170.356 312.535 171.555 314.894 173.077 316.382C175.373 318.666 179.11 319.665 180.431 322.885C185.863 323.536 190.059 327.876 195.166 330.628C200.273 333.38 205.777 336.359 211.452 338.733C215.359 340.357 219.407 342.502 224.159 341.884C224.672 340.067 222.914 338.532 222.462 336.865C223.728 338.646 226.081 341.139 225.368 343.457C232.037 345.785 239.13 349.675 246.272 352.098C247.748 352.593 249.395 352.481 251.003 353.051C251.978 353.346 252.308 354.151 253.339 354.654C254.133 355.11 255.335 355.007 256.101 355.358C262.552 358.529 269.399 361.926 275.745 365.125C268.693 359.323 260.075 356.405 252.188 352.059C247.466 351.551 243.427 349.851 239.284 348.18C243.488 346.369 256.064 348.213 254.683 340.649C252.621 339.643 249.335 341.54 246.57 342.066C243.077 342.79 239.052 344.441 237.137 346.861C231.82 345.396 227.952 343.091 224.619 337.398C222.561 333.931 220.501 331.695 218.186 328.521C217.487 327.593 216.56 327.061 216.098 326.181C215.475 325.12 215.42 323.681 214.768 322.516C214.362 321.843 213.303 321.236 212.765 320.488C211.499 318.707 210.821 316.207 209.744 314.71C208.913 313.706 207.569 313.288 206.814 312.151C205.086 309.489 205.043 306.034 203.258 303.164C206.828 302.308 208.974 303.626 210.921 305.446C214.734 306.313 218.918 306.072 222.219 307.525C224.253 308.427 224.902 310.823 227.183 310.987C225.391 306.441 221.23 303.88 216.501 301.697C212.538 299.864 208.259 300.578 202.674 301.422C200.049 297.102 196.299 291.522 195.314 285.417C195.22 284.659 195.487 283.581 195.393 282.823C195.196 282.094 194.421 281.298 194.431 280.513C194.454 277.711 197.257 276.504 195.974 273.833C198.47 275.616 198.661 281.266 201.612 282.255C202.424 283.6 201.655 285.709 202.857 285.607C197.819 287.644 200.774 299.365 207.593 296.062C210.854 292.83 208.696 285.7 203.671 285.722C203.872 283.99 202.32 283.628 202.456 281.243C199.157 278.56 198.21 271.773 194 270.679C193.139 270.8 192.609 270.497 191.52 271.016C190.835 266.841 191.173 261.494 190.603 256.505C190.107 252.615 188.91 249.026 191.213 246.389C190.797 239.905 191.231 234.085 192.27 228.436C194.649 225.666 195.677 222.034 197.924 219.188C202.12 216.932 203.364 220.284 206.623 218.282C208.75 219.941 206.618 221.973 206.653 223.752C206.669 225.872 207.651 227.842 207.838 229.357C204.219 231.68 204.145 237.179 207.51 240.515C201.238 245.012 210.478 256.817 215.097 249.526C215.987 249.509 217.129 251.659 217.632 250.628C214.947 248.561 214.915 244.321 212.723 242.008C213.122 241.006 214.022 240.202 214.553 239.276C216.319 249.083 227.957 244.585 223.625 236.033C222.369 233.466 219.464 233.471 218.075 232.059C217.938 227.847 214.157 224.624 212.346 220.419C213.144 225.011 219.127 230.991 214.89 235.159C213.342 232.337 212.097 228.984 208.547 229.5C210.111 227.846 207.34 226.697 207.892 224.199C207.525 222.845 208.879 222.478 209.013 221.323C209.251 220.141 208.807 220.149 208.363 218.928C209.227 217.576 210.529 219.906 211.855 219.434C211.054 217.304 208.962 217.424 207.401 216.617C207.707 214.857 209.722 214.87 210.699 213.934C211.779 212.97 213.05 211.06 214.017 209.68C215.876 207.051 216.815 205.566 218.04 202.663C218.467 201.764 219.415 200.724 219.558 200.015C220.063 197.753 218.977 195.812 218.422 192.943C218.066 190.804 218.562 188.097 217.287 185.872C211.28 190.52 214.059 199.941 212.005 207.207C211.957 207.443 211.569 207.66 211.473 208.133C210.75 211.237 209.306 214.983 205.537 216.34C204.324 217.228 205.038 214.91 204.128 215.269C202.898 215.267 203.918 216.556 203.057 216.677C198.676 216.189 195.435 219.08 194.635 222.316C197.571 214.588 200.273 204.351 205.12 196.663C210.947 192.176 213.199 185.639 217.305 180.164C222.046 180.332 223.793 176.056 227.163 175.702C228.159 174.425 225.631 174.999 225.026 174.828C222.591 176.159 221.718 178.297 218.385 179.201C217.747 174.789 224.897 172.291 226.067 167.949C227.876 166.787 229.911 166.459 231.389 165.722C234.026 161.429 237.855 157.819 239.83 153.146C240.719 153.129 240.898 154.198 241.436 154.947C242.441 154.115 240.066 153.194 241.6 152.666C242.952 153.529 242.847 154.788 242.135 155.875C243.505 157.628 244.752 159.75 245.77 162.269C246.556 162.28 246.121 161.503 246.614 161.257C246.231 164.38 247.827 166.966 249.575 169.287C249.936 167.736 247.933 165.708 247.348 163.965C251.043 168.106 251.056 172.687 253.527 178.502C254.313 178.512 253.879 177.736 254.371 177.49C254.842 178.816 255.259 178.703 254.094 179.354C258.28 184.481 259.623 191.496 262.614 198.399C259.168 198.887 258.663 194.551 256.156 193.554C250.084 184.356 243.908 173.955 234.448 170.819C233.341 170.448 231.724 169.433 230.644 170.397C232.637 173.211 234.913 177.066 237.691 179.89C239.402 181.662 241.356 185.157 243.672 187.101C244.949 188.096 246.86 188.137 248.269 189.208C250.207 190.583 251.719 192.857 253.685 194.336C254.668 195.076 255.879 195.418 256.73 196.082C258.753 197.769 260.312 199.806 263.435 200.189C265.737 205.379 264.643 209.589 266.802 215.489C261.324 213.844 257.064 207.619 250.882 208.737C255.381 220.375 263.702 225.498 271.037 232.341C271.165 242.705 274.101 254.767 272.243 263.992C273.84 265.348 273.138 266.88 273.23 268.868C272.529 269.169 272.682 267.674 272.465 267.286C271.034 269.016 271.996 271.327 271.879 273.371C271.789 276.75 270.573 280.098 270.729 283.969C263.149 283.23 264.034 272.48 262.437 264.527C261.995 262.075 260.816 259.376 260.403 257.029C259.614 252.882 260.139 249.05 256.678 247.417C253.684 249.571 252.886 258.173 253.617 263.341C254.048 266.579 255.379 269.013 257.118 270.889C259.71 278.796 264.379 283.232 269.979 285.738C270.314 296.045 269.062 305.442 270.088 316.233C267.658 313.873 264.283 311.322 262.698 307.951C261.386 305.176 260.955 301.938 259.568 299.296C258.095 296.341 255.658 293.536 253.844 290.562C250.568 285.077 247.337 280.586 243.102 276.927C240.933 278.41 242.479 282.463 243.281 284.594C244.582 288.154 246.697 291.829 248.443 295.381C249.453 297.455 250.803 299.549 252.39 301.69C254.705 304.864 256.878 307.517 259.468 310.057C262.511 313.033 265.867 315.924 269.669 317.576C270.049 323.511 272.388 329.25 272.644 335.553C272.977 341.725 273.353 350.12 276.324 357.365C277.23 359.467 279.092 360.974 279.117 363.539C278.964 365.035 276.872 365.155 276.36 365.741C276.547 367.255 277.825 367.02 278.136 368.166C279.073 367.912 280.086 367.525 280.616 367.829C284.173 368.988 286.696 372.106 290.48 372.868C292.369 375.71 295.33 377.143 297.835 379.371C304.972 385.486 309.7 395.496 316.418 402.954C302.67 400.086 287.86 399.072 273.96 396.469C276.049 398.809 280.215 397.679 282.863 399.197C279.812 401.143 275.869 398.97 272.017 398.785C268.061 398.628 263.803 397.77 260.015 399.468C259.396 402.543 263.106 402.208 265.595 402.315C270.838 402.682 276.307 403.882 283.484 401.488C284.128 400.978 284.111 400.089 284.386 399.455C292.316 400.658 300.321 401.73 308.251 402.933C309.329 403.2 307.198 404.001 308.086 405.214C311.363 410.698 315.73 414.433 319.87 418.566C314.908 420.471 311.3 415.412 306.881 414.374C303.305 413.555 300.029 414.667 296.035 413.961C294.966 414.14 294.655 412.994 293.813 412.775C292.327 413.066 292.572 413.559 291.418 413.425C286.81 412.103 281.311 412.029 275.869 412.163C273.885 409.794 272.252 406.659 268.797 406.702C270.081 409.373 273.034 409.131 274.213 411.83C270.153 411.701 265.622 410.247 261.592 408.992C254.903 407.004 246.852 404.939 237.335 408.191C235.489 408.804 234.257 410.033 232.495 410.958C227.883 413.327 222.391 414.928 219.036 418.634C214.008 419.885 207.675 421.268 202.986 423.769C198.194 426.299 192.605 429.604 192.344 433.588C196.874 436.273 199.633 432.841 202.57 430.479C203.858 429.459 205.384 428.486 206.596 427.598C210.822 424.216 212.37 420.441 217.433 420.969C214.73 424.609 211.205 427.69 208.03 431.234C207.082 432.274 206.219 433.626 205.243 434.562C204.522 435.204 203.424 435.279 202.628 436.054C201.804 436.724 201.442 438.276 200.466 439.212C199.518 440.252 198.249 440.931 197.481 441.81C195.974 443.673 195.345 446.303 193.573 448.014C192.427 448.324 191.737 447.841 190.364 448.549C190.855 449.534 190.022 449.76 190.616 450.716C187.677 454.309 184.947 457.845 181.724 461.626C179.6 464.103 178.214 466.826 174.181 468.032C165.025 470.963 152.643 465.712 144.578 473.49C145.616 475.668 148.928 476.335 151 476.556C152.599 476.681 154.919 476.164 157.115 476.015C160.172 475.745 163.703 475.57 168.437 474.063C170.153 472.144 171.736 470.149 174.88 468.961C168.825 473.845 166.582 480.827 157.482 483.966C156.895 484.685 157.101 485.859 156.277 486.529C150.589 486.171 147.009 481.216 142.47 478.087C138.754 475.517 136.361 474.936 131.118 474.569C129.755 474.491 128.214 473.344 127.086 474.544C128.474 477.187 130.59 479.632 132.67 481.528C133.71 482.475 135.602 482.857 136.954 483.72C138.306 484.583 139.403 485.739 140.698 486.394C144.926 488.378 150.462 489.001 155.715 488.582C155.334 490.475 153.271 490.699 151.917 491.066C147.618 492.12 141.338 489.575 136.171 489.076C132.603 488.702 127.276 488.022 123.717 488.093C121.256 488.09 119.542 488.778 117.517 488.321C116.306 487.978 115.74 487.126 114.14 487.001C116.735 492.446 120.993 493.304 127.664 494.402C132.812 495.242 136.01 495.492 142.448 494.082C145.837 493.386 149.633 493.363 152.416 492.496C156.554 491.262 159.218 488.303 159.876 484.547C167.385 481.727 169.126 475.777 174.516 471.743C174.524 473.418 174.624 475.851 173.818 477.411C173.391 478.31 172.225 478.961 171.458 479.84C169.751 482.204 168.951 485.44 167.49 488.296C166.559 490.225 164.598 491.652 164.113 493.572C163.656 495.597 164.306 497.992 164.009 500.197C174.329 497.846 174.618 487.369 176.919 479.365C173.869 474.714 178.045 472.798 177.757 468.851C182.629 463.728 186.574 458.074 190.756 452.467C191.889 454.173 192.393 459.738 189.353 460.898C189.748 462.356 189.056 463.103 188.733 463.973C189.546 465.318 190.324 463.654 191.129 463.324C190.919 464.611 191.807 465.823 192.79 466.563C192.098 473.906 192.431 480.078 194.302 488.627C195.296 488.581 195.524 488.183 195.061 487.303C196.346 488.743 197.413 491.025 198.726 492.57C199.85 493.83 201.353 495.659 203.407 494.99C207.829 493.567 206.715 484.924 203.229 480.727C201.838 480.545 200.542 479.89 198.695 480.503C197.325 472.153 194.388 467.918 191.415 461.904C192.924 458.812 194.301 455.643 192.897 450.88C193.485 450.162 195.132 450.051 195.824 449.304C196.699 445.936 198.927 443.431 201.25 440.453C202.094 439.441 202.588 437.965 203.412 437.295C204.312 436.491 205.695 436.228 206.567 435.321C207.439 434.414 208.198 433.09 209.041 432.078C209.961 430.934 210.965 430.103 211.913 429.063C216.017 424.819 220.586 420.226 226.241 416.344C225.68 418.397 224.277 420.231 222.978 422.037C221.754 423.71 220.455 425.516 219.204 427.085C216.521 430.385 212.466 433.162 212.166 437.827C220.535 436.116 227.861 429.322 228.656 421.95C228.944 419.3 227.641 416.97 229.187 414.426C231.563 414.117 234.405 412.229 236.82 411.238C243.44 408.436 250.321 408.247 255.885 408.974C251.302 410.217 245.47 411.799 242.702 414.786C242.584 418.061 239.052 419.466 238.934 422.74C238.422 423.326 237.38 423.609 236.736 424.119C236.281 424.914 237.114 424.688 237.188 425.786C233.848 431.611 226.998 437.271 218.129 437.552C213.164 441.917 205.49 440.421 199.884 442.836C200.516 444.342 202.457 443.256 203.688 443.258C206.906 443.167 213.437 442.514 218.134 440.457C218.835 440.155 219.423 439.437 220.02 439.163C222.254 438.334 224.895 438.176 226.893 437.299C229.176 436.233 231.072 434.153 233.315 433.768C236.558 429.646 240.065 425.676 241.558 420.463C244.865 418.225 246.271 413.93 250.902 412.45C253.449 411.536 256.6 412.023 259.327 410.948C260.425 410.874 261.096 411.698 261.663 412.55C265.82 410.976 269.213 414.416 273.604 414.119C273.534 417.157 269.417 416.82 266.766 417.763C263.935 418.866 261.177 421.068 258.574 421.774C256.907 422.226 254.798 421.456 253.698 422.761C257.85 424.877 264.747 420.211 267.977 418.105C270.258 418.269 273.894 416.836 274.568 415.2C276.005 416.375 276.953 415.335 278.005 414.267C284.328 413.67 289.871 415.969 295.587 416.431C299.259 416.777 303.065 415.968 306.32 416.427C309.575 416.886 312.497 419 314.86 420.707C318.495 420.504 320.659 422.712 324.522 422.112C327.689 424.719 331.51 426.03 334.326 429.404C334.778 431.07 332.61 431.323 332.164 432.562C333.421 433.898 336.12 432.719 337.604 433.658C341.573 438.396 346.491 440.863 352.09 443.37C353.358 443.92 354.634 444.916 355.949 445.23C357.293 445.648 358.779 445.357 360.151 445.879C361.891 446.526 362.996 448.127 364.689 449.009C367.839 450.727 371.803 451.328 375.456 452.015C379.08 452.597 382.969 453.331 386.669 453.781C390.432 456.115 395.97 455.507 399.657 457.973C400.215 458.381 401.38 457.73 401.938 458.137C403.462 458.395 405.001 460.773 406.669 459.09C404.221 457.071 400.814 456.877 397.881 455.548C397.354 454.014 397.79 453.56 396.22 452.309C397.554 445.686 403.366 452.271 405.207 455.35C406.628 454.405 404.642 453.267 404.047 452.31C402.536 450.037 400.684 447.744 398.547 446.87C393.757 446.939 389.482 445.192 384.883 444.314C377.371 442.998 370.76 439.648 363.39 437.622C362.623 437.27 362.313 436.125 361.698 435.509C354.978 435.878 349.333 432.378 344.256 428.5C341.731 426.613 340.672 426.005 339.067 422.975C340.211 410.701 325.993 405.277 317.449 403.457C317.763 402.142 316.997 401.791 316.602 400.333C307.945 391.5 302.399 377.238 291.314 372.642C290.586 371.61 289.527 371.002 288.696 369.998C286.274 369.313 284.231 367.966 282.521 366.194C281.5 358.309 277.049 353.031 275.914 345.959C275.079 340.819 275.795 336.04 274.327 330.625C273.225 326.563 273.581 322.106 272.035 318.053C274.416 314.053 276.133 310.903 281.095 308.998C283.122 308.225 285.659 308.096 287.969 307.134C294.2 304.549 298.912 299.246 303.224 294.946C304.636 293.557 306.994 292.358 306.77 290.295C301.753 290.761 297.395 294.067 293.985 296.334C293.873 294.687 295.072 290.449 292.397 287.596C291.301 286.44 290.307 286.486 288.936 285.963C288.874 282.849 287.371 281.021 285.945 279.06C284.835 281.15 288.399 283.985 287.25 286.756C285.414 286.583 285.352 283.469 283.336 283.457C283.613 281.593 284.42 280.032 284.035 277.789C285.304 277.109 284.904 279.342 286.173 278.662C285.91 277.28 284.963 277.09 284.397 276.237C288.075 271.661 289.636 265.871 293.314 261.296C292.825 259.08 295.988 257.551 294.827 255.742C285.819 260.869 281.842 268.88 277.97 276.862C277.067 272.299 280.478 270.032 281.987 266.94C282.613 265.54 283.888 261.169 283.985 259.465C284.024 258.784 283.542 258.244 283.42 257.382C283.261 255.972 283.879 254.127 283.672 252.953C283.42 250.786 281.652 248.805 281.495 246.164C281.31 243.419 285.14 238.579 286.554 235.959C287.209 234.664 288.432 232.99 289.286 231.193C290.169 229.5 290.617 227.031 291.622 226.199C294.142 223.95 299.187 223.588 303.108 221.966C306.043 220.834 308.772 218.528 311.132 216.099C314.469 212.735 317.634 209.975 316.761 204.286C311.058 208.405 307.473 213.738 301.477 217.6C303.139 213.012 306.129 206.722 309.997 202.431C314.493 202.106 315.841 198.833 318.835 196.679C320.332 195.603 322.367 195.274 323.344 194.339C325.712 192.354 329.347 185.554 330.014 182.243C330.709 179.035 330.459 175.637 330.51 172.94C327.802 173.674 328.176 176.704 327.246 178.633C325.633 181.754 322.724 184.22 321.507 187.569C318.618 189.694 316.485 191.726 314.494 194.279C312.295 196.888 311.287 200.18 308.246 202.571C307.351 199.683 310.164 197.69 311.285 194.814C312.482 191.806 312.183 188.644 312.009 185.114C311.825 181.138 312.333 176.416 309.489 172.939C306.284 177.61 307.249 184.057 306.711 189.905C306.558 191.4 305.827 192.828 305.645 194.219C305.252 198.128 306.401 201.953 305.402 205.69C302.294 208.657 302.492 215.983 299.524 219.471C297.401 221.948 293.851 222.464 291.5 225.338C290.599 219.544 292.497 209.637 287.82 203.526C284.938 207.327 284.788 212.958 284.393 218.097C284.209 220.718 283.817 223.396 283.53 226.046C283.115 231.525 284.953 237.064 282.051 241.206C279.627 235.155 278.631 229.834 275.023 224.775C273.379 222.426 270.258 220.812 269.324 218.606C268.419 216.504 268.359 212.159 267.852 209.054C267.523 207.019 266.579 205.598 267.084 203.337C265.732 202.473 265.366 199.889 264.46 197.787C262.423 192.749 260.583 188.44 263.939 184.735C265.219 183.269 265.95 181.841 267.907 182.876C269.251 183.294 268.423 186.425 269.237 186.54C270.268 187.043 270.421 185.548 270.139 184.507C271.595 185.341 273.051 186.176 274.508 187.011C275.329 188.801 274.379 191.071 276.12 191.717C277.228 190.858 276.322 188.755 275.946 186.956C272.806 185.684 270.88 182.293 267.436 181.55C271.709 177.931 276.776 175.998 279.517 171.676C280.636 170.031 281.208 167.193 282.186 165.027C284.293 160.43 286.556 153.107 284.843 145.969C282.439 146.174 281.971 148.984 281.069 151.018C278.867 156.087 276.538 162.757 273.758 167.76C272.999 169.083 271.711 170.104 271.056 171.4C270.325 172.828 269.99 175.714 268.691 177.52C268.615 177.652 265.259 181.358 264.947 181.442C263.829 181.857 262.015 180.113 261.227 181.333C261.088 179.582 261.639 178.314 260.97 176.26C262.066 170.819 265.866 167.105 266.48 161.124C266.672 158.948 266.363 156.572 266.499 154.187C266.559 151.934 267.016 149.91 266.603 147.562C266.283 145.971 265.207 144.474 264.906 142.543C264.408 139.883 265.464 136.354 263.072 134.543C261.234 135.601 260.797 137.285 258.43 138.039C255.565 142.729 257.703 150.199 255.736 155.317C256.716 158.517 255.368 161.79 256.699 164.224C257.384 161.802 256.81 159.275 256.917 156.786C256.949 154.429 257.634 152.007 257.249 149.763C258.133 146.84 258.063 143.281 258.682 140.206C259.81 139.006 261.203 137.957 262.595 136.909C263.358 139.721 261.159 142.33 261.192 145.34C261.238 146.333 261.862 147.394 262.04 148.464C262.171 149.77 261.383 150.99 261.202 152.381C260.962 154.794 261.64 157.294 261.712 159.622C261.695 165.329 260.182 170.883 259.778 175.577C257.292 173.008 258.916 169.102 257.264 166.307C254.862 171.879 260.92 177.727 259.416 183.725C255.757 181.363 255.773 176.887 253.857 172.71C253.366 171.725 252.251 170.91 251.656 169.953C249.739 167.007 248.6 162.396 246.721 158.768C245.362 156.23 242.705 154.267 242.804 151.333C242.966 150.283 244.557 149.963 245.249 149.217C245.847 147.713 246.975 146.512 247.044 144.705C251.868 139.818 251.16 131.848 254.632 126.099C255.052 123.525 255.737 121.103 256.317 118.709C256.898 116.316 258.349 114.245 258.088 111.632C262.028 109.669 265.927 109.618 269.38 110.806C271.858 111.699 274.706 112.715 276.844 113.589C280.221 114.909 282.565 116.957 285.998 118.486C287.663 119.264 290.717 121.455 293.294 119.414C292.42 114.955 287.899 112.715 285.121 109.891C278.642 106.616 267.569 106.601 258.979 110.384C259.383 105.69 261.311 101.254 262.322 95.5013C263.218 90.5621 263.006 86.4826 266.512 83.7428C266.194 80.922 267.361 79.0402 268.367 76.9783C270.025 76.0815 270.648 77.1424 272.002 76.7752C270.868 75.07 272.999 74.2685 271.883 73.453C269.896 73.5449 271.35 75.6101 269.126 75.6544C268.266 74.5458 270.273 74.1133 270.842 73.7355C272.623 72.4697 274.602 71.933 277.85 70.7166C282.007 69.1418 286.411 66.8292 290.462 66.513C293.416 66.2711 296.944 67.3265 300.153 66.7915C302.189 66.4631 304.508 65.9458 306.205 64.3676C305.544 62.7577 303.698 63.3703 302.431 62.8196C298.222 60.495 293.417 58.4439 288.038 60.4618C285.804 61.2916 283.784 63.7401 281.17 65.2318C280.109 65.855 278.566 65.938 277.505 66.5612C274.503 68.2701 271.071 72.1079 268.077 74.2616C267.414 68.5158 269.237 64.1079 268.97 58.5897C271.102 56.5578 272.101 52.8207 274.991 50.6953C278.241 48.2485 284.121 46.43 288.733 44.0609C290.211 43.3247 291.519 41.9637 292.844 41.4923C296.869 39.8416 301.817 41.183 304.756 37.5906C303.19 33.8783 293.432 34.1771 287.939 37.0088C281.64 40.1706 276.465 45.8231 272.684 49.1967C273.817 44.3051 278.505 41.8036 282.419 38.5059C285.328 36.0398 287.479 33.6672 289.396 30.0165C290.127 28.5884 289.942 25.8435 290.295 23.847C290.58 22.4277 291.472 21.1796 291.048 19.6174C286.21 21.1534 284.972 26.0732 282.355 30.0257C280.856 32.3329 279.453 34.1671 278.134 36.3137C275.45 40.8434 273.635 45.6961 270.705 49.7334C271.025 51.3239 270.493 52.2506 269.782 53.3381C269.932 54.3037 271.362 53.804 270.149 54.692C268.493 54.3584 268.869 49.5605 268.597 47.7335C268.353 46.0106 267.533 44.2207 267.525 42.5454C267.635 38.8261 270.667 35.9909 271.77 32.2256C272.455 29.8037 271.864 26.3862 271.934 23.3482C271.973 22.6668 272.372 21.6641 272.411 20.9827C272.347 19.0992 271.659 17.3852 271.756 15.6817C271.92 13.401 273.627 11.0373 274.255 8.40702C274.76 6.14572 275.654 2.43689 272.95 0.710594C271.425 1.68331 270.94 3.60392 270.133 5.16443C268.292 8.68265 266.641 11.2547 265.973 15.7967C266.298 20.2928 266.859 24.8365 267.306 30.194C267.454 32.39 267.631 34.6901 267.619 36.706C267.578 38.6178 266.62 40.4431 266.607 42.459C266.498 46.1784 267.979 49.5782 268.135 53.4493C265.358 49.3947 263.492 43.7513 260.914 39.1953C262.656 32.0142 258.813 19.0804 253.937 13.4706C251.586 16.3445 254.559 22.3586 254.061 26.2951C251.441 24.8813 250.292 21.056 247.321 20.4083C245.748 21.6176 245.764 23.7376 244.986 25.4023C247.848 36.3661 253.384 43.5858 258.664 51.0984C260.091 53.0596 261.716 54.5194 262.811 56.9059C265.576 62.9765 266.097 69.432 266.57 76.124C264.211 70.726 262.269 65.215 259.067 60.8285C257.697 59.0756 255.551 57.7571 254.361 55.8436C253.766 54.8869 253.711 53.4482 253.116 52.4914C251.709 50.1896 248.855 47.4977 246.604 46.2074C244.353 44.9171 241.686 43.7398 239.557 43.3109C237.928 50.9086 245.589 54.4212 249.342 57.5402C252.204 61.9073 255.397 65.849 259.881 67.5399C261.931 70.5619 264.815 72.1276 265.574 77.4003C264.607 78.7808 264.037 80.389 264.791 82.7561C264.505 84.1754 262.895 84.8357 262.316 85.999C261 93.5119 259.447 100.977 257.6 108.187C252.615 106.296 250.73 100.993 250.265 94.7463C250.032 92.2379 250.945 89.4188 250.627 86.5979C250.459 84.7426 249.753 82.1389 249.273 80.3684C247.691 74.5361 245.125 67.9642 240.216 65.9414C237.45 67.6979 239.945 70.7111 240.614 72.7658C241.585 75.5213 242.877 78.637 243.659 81.1083C244.055 82.5663 243.873 83.9574 244.448 85.2548C244.92 86.5805 246.016 87.7367 246.592 89.0341C248.601 93.9679 249.16 99.742 251.928 103.352C251.349 104.515 250.207 102.365 248.834 103.073C246.845 104.395 245.822 104.337 243.314 104.57C239.544 107.158 241.897 116.247 246.393 115.922C251.542 115.532 251.05 109.181 248.188 104.814C249.752 103.159 250.504 106.757 252.806 105.35C253.911 106.951 255.092 108.42 256.501 109.491C257.14 112.672 255.385 115.272 254.482 118.536C252.627 125.301 250.194 131.998 248.5 138.943C247.01 141.695 245.36 144.267 244.003 147.095C244.188 143.243 243.379 139.437 243.119 135.594C242.832 131.647 243.698 127.834 242.852 123.48C242.27 120.507 240.37 118.45 239.267 115.619C237.918 112.295 237.913 109.39 234.952 107.956C233.334 108.172 234.626 111.287 234.843 111.676C234.982 113.427 232.937 114.541 232.508 116.67C231.869 120.085 234 125.881 235.25 132.138C236.265 137.118 236.041 141.651 239.312 144.23C239.498 146.975 241.501 149.003 241.376 150.603C239.429 148.783 237.709 146.566 236.218 143.951C234.242 142.027 231.614 140.169 230.549 136.656C229.852 134.497 230.272 131.923 229.414 129.584C228.452 127.274 227.11 125.625 225.664 124.005C224.732 120.568 222.038 118.056 220.67 115.073C219.198 112.118 218.643 109.249 216.583 107.013C213.852 103.952 210.03 102.64 207.508 99.5231C205.042 103.211 208.961 109.415 210.811 112.939C211.799 109.987 206.353 105.986 207.845 102.003C209.623 103.198 210.841 105.216 212.239 107.073C213.505 108.854 215.348 110.702 216.301 112.568C217.5 114.926 218.017 117.246 219.291 119.472C222.388 125.117 227.435 130.121 229.84 136.513C226.131 135.618 223.523 132.188 220.992 128.626C218.026 124.287 214.538 121.32 212.303 115.553C211.517 115.543 211.819 116.243 211.856 116.792C207.7 110.54 202.71 105.744 196.581 102.934C201.797 101.966 202.014 95.758 202.711 91.3202C196.831 93.1386 195.264 97.2535 193.62 101.501C193.771 102.466 194.784 102.08 195.342 102.487C193.968 103.195 192.108 100.458 189.816 101.079C189.626 102.025 190.787 103.835 191.562 104.631C185.898 108.068 186.588 115.148 182.248 119.344C180.41 107.208 180.132 95.879 181.604 85.6405C184.315 82.4453 189.853 81.8378 195.515 79.631C199.881 77.9997 205.044 74.3631 206.297 71.5634C206.696 70.5607 207.134 68.8766 206.322 67.5315C203.614 68.266 200.546 69.3217 197.335 71.0871C194.617 72.6071 193.487 75.0379 190.834 77.211C188.029 79.649 184.128 80.9307 181.937 83.9847C181.046 78.636 181.326 74.3111 182.77 70.5652C183.615 68.3233 185.871 65.9225 187.635 63.767C191.541 58.7942 196.242 54.2767 197.737 47.8335C197.908 47.228 197.851 47.0197 198.098 46.2818C198.545 45.0426 198.956 42.024 197.87 40.0823C194.121 41.0992 193.311 45.1205 191.707 48.6864C189.02 54.4465 186.115 61.0486 183.721 67.0647C183.073 63.4389 185.996 57.7264 182.804 52.5544C181.023 53.8201 180.773 57.0188 180.95 59.3189C181.015 59.972 181.506 60.957 181.599 61.7143C181.862 63.0965 181.472 64.544 181.575 65.7461C181.725 66.7117 182.452 67.7444 182.422 68.8706C182.456 71.8803 180.094 75.5398 180.345 78.9379C175.609 75.0793 177.878 69.4321 177.176 64.3677C176.238 58.0252 175.692 49.0048 172.345 46.5583C169.874 47.3404 170.4 50.1047 170.208 52.2813C169.918 56.1613 169.811 58.6503 171.234 63.0722C172.515 66.9734 173.674 71.2434 175.921 74.9945C177.602 77.893 180.58 80.2159 180.603 84.0112C180.559 88.3837 178.753 93.6813 178.699 98.8394C178.686 100.855 179.327 102.806 179.239 104.954C175.477 94.7935 173.716 81.2948 167.326 75.8722C164.92 77.3074 166.749 82.4019 167.529 86.1036C169.523 95.514 176.554 102.887 180.473 109.092C179.73 112.536 180.576 116.891 181.157 121.094C178.498 120.361 178.115 116.887 177.21 114.785C175.181 110.192 173.654 105.798 170.439 103.428C169.324 102.612 167.753 102.591 166.665 101.88C165.682 101.14 165.002 99.8708 164.047 99.2354C162.827 98.4481 161.332 98.2946 159.961 97.7722C158.721 97.3256 157.436 95.8852 155.959 96.6214C158.52 105.654 167.306 103.83 170.143 112.229C174.03 114.194 180.391 120.742 181.565 127.133C181.941 128.931 181.152 131.382 181.461 133.758C181.798 136.238 183.025 138.7 183.098 141.029C183.198 143.461 181.945 146.261 183.246 149.821C179.11 143.228 174.443 137.562 170.61 130.439C165.921 132.941 168.819 139.087 170.987 145.432C172.74 150.658 176.244 155.746 178.009 158.957C174.604 157.532 173.446 153.262 170.62 150.674C168.833 149.035 163.765 145.601 161.182 144.737C160.208 144.442 159.166 144.724 158.088 144.458C156.3 144.048 154.797 142.22 152.875 142.965C152.725 148.596 157.551 149.076 160.994 151.049C162.715 152.036 163.716 153.665 164.907 154.348C166.978 155.799 169.712 156.399 172.039 157.557C174.47 158.687 176.578 160.687 179.171 160.766C181.436 165.407 184.839 168.062 188.167 170.849C189.355 173.993 191.075 176.21 192.339 179.221C191.165 179.428 189.283 178.261 187.013 177.311C185.14 176.589 182.642 176.037 181.83 174.692C181.018 173.347 181.616 171.843 181.041 170.545C178.654 171.64 181.367 173.811 181.496 176.348C178.051 176.835 175.154 177.285 174.345 180.076C173.043 184.343 177.35 190.33 181.65 188.046C181.862 192.126 183.561 195.914 186.362 195.937C194.085 195.966 191.576 183.006 185.311 182.581C185.405 176.741 192.393 180.66 193.762 183.643C196.14 188.7 193.141 194.545 194.144 201.541C194.444 203.472 195.341 205.13 195.641 207.061C196.794 215.022 193.285 220.222 191.709 223.892C191.537 224.498 190.363 224.705 189.823 225.187C189.878 226.625 190.03 226.36 190.558 227.894C189.358 233.363 189.481 239.591 189.104 245.619C187.987 246.034 187.824 247.084 186.177 247.196C182.583 245.487 182.932 239.355 181.744 236.211C180.697 233.588 178.644 233.026 177.94 229.192C177.846 228.435 177.876 227.309 178.019 226.599C178.861 220.221 182.808 213.337 181.635 205.716C181.185 202.819 180.025 199.78 178.952 195.822C177.162 196.643 177.187 199.208 176.616 200.816C174.202 208.403 174.746 218.654 176.974 229.342C172.111 228.313 170.742 218.734 167.805 214.499C165.33 211.145 161.377 208.527 158.134 206.053C156.329 204.753 154.503 203.795 153.086 202.279C151.696 200.867 150.981 197.818 148.265 198.108C147.953 204.789 152.071 210.492 155.54 213.8C149.797 212.004 142.983 205.019 134.66 207.723C137.229 211.835 141.693 213.866 145.769 216.115C150.64 218.819 154.989 221.665 161.606 221.324C165.992 224.718 168.738 231.129 175.25 230.817C179.184 232.545 179.82 238.186 182.02 242.174C179.559 242.17 179.335 240.107 177.566 239.357C169.64 235.692 158.973 242.946 150.696 246.645C152.689 249.458 159.504 248.616 163.679 247.931C169.34 246.955 176.796 241.466 182.604 243.916C183.319 246.965 184.537 248.982 187.226 248.589C187.858 250.094 187.023 251.551 187.399 253.349C187.634 254.627 188.465 255.632 188.728 257.014C189.594 261.028 188.782 266.28 189.532 271.108C189.739 272.282 190.229 273.267 190.464 274.545C191.306 274.763 191.82 272.947 192.186 275.531C191.975 276.818 191.762 273.969 190.634 275.169C191.008 278.199 191.744 279.676 192.668 282.668C191.162 283.3 190.491 282.476 189.033 282.871C187.294 280.995 185.628 281.447 182.184 280.704C180.055 280.275 178.618 279.099 176.014 279.806C173.098 280.597 171.532 283.481 168.833 284.66C171.178 286.708 174.578 285.227 177.483 285.221C178.269 285.232 179.063 285.687 179.849 285.698C183.729 285.987 188.246 284.091 192.382 284.087C194.262 286.485 194.22 289.627 195.011 292.543C195.237 293.376 196.012 294.172 196.057 295.166C196.262 297.57 194.716 300.114 196.151 302.52C195.989 303.57 193.973 303.558 193.309 304.409C191.062 307.255 193.239 314.044 196.95 313.708C201.786 313.402 201.892 305.547 197.248 303.676C197.468 301.604 195.542 298.213 197.352 297.051C201.057 300.407 202.026 304.393 204.205 309.951C205.94 314.288 210.902 318.98 213.092 323.753C213.856 325.335 213.835 326.906 214.619 328.147C215.941 330.136 218.901 331.57 220.536 333.474C222.303 335.455 222.896 337.642 224.171 339.868C216.383 339.185 209.45 335.475 203.124 331.936C199.842 330.142 196.588 328.453 193.487 326.499C188.872 323.502 184.673 321.622 180.21 318.36C175.483 314.946 171.127 309.195 167.018 303.937C160.385 295.561 151.954 287.561 145.474 278.921C145.655 277.53 147.103 277.92 147.918 276.804C150.688 272.587 146.393 264.583 141.63 265.987C142.013 262.864 139.008 259.207 139.478 255.166C137.278 257.775 139.865 262.776 140.391 265.54C139.621 267.65 137.793 269.152 138.026 271.661C136.778 270.769 136.926 266.368 134.133 266.79C134.135 265.56 136.359 265.516 136.493 264.361C136.959 262.781 136.262 260.623 135.64 258.331C134.638 257.932 133.863 257.136 132.908 256.501L130.096 257.264C127.571 255.377 127.154 248.893 130.874 249.002C133.01 251.106 130.487 254.586 132.094 256.386C134.092 255.509 131.059 251.747 132.793 250.718C132.538 249.781 132.36 248.711 131.831 248.407C135.031 247.427 136.106 250.155 138.367 250.659C138.275 248.672 135.599 247.05 133.631 246.801C134.962 242.638 141.227 243.063 144.383 239.859C145.059 236.993 147.391 234.459 146.714 230.729C146.329 228.486 144.951 226.288 144.036 223.741C139.68 225.817 139.692 230.398 138.75 234.343C137.371 238.742 133.449 241.595 132.307 246.042C131.322 246.533 131.58 245.009 130.339 245.793C131.064 248.056 127.289 247.738 126.823 249.318C126.012 246.743 124.644 243.76 124.194 240.863C124.035 239.452 124.718 238.261 124.531 236.746C124.011 229.06 118.278 221.112 120.171 213.666C123.006 210.102 122.559 204.744 125.29 201.208C124.944 198.283 127.115 195.57 127.849 191.681C128.345 188.975 128.359 185.729 128.742 182.606C129.077 179.72 129.414 175.603 131.044 174.602C134.975 172.194 136.919 176.475 141.245 175.525C142.513 176.076 143.789 177.071 144.905 177.887C146.048 178.806 146.804 179.943 147.92 180.759C148.903 181.498 150.559 181.832 151.779 182.619C153.528 183.71 154.425 185.368 156.317 185.749C157.5 185.987 158.939 185.932 160.121 186.17C162.856 186.771 165.389 189.102 168.513 188.255C165.715 179.175 157.787 176.741 150.02 174.487C143.36 172.603 137.79 168.971 130.108 173.626C130.062 166.036 132.266 159.735 131.189 151.642C132.707 148.994 133.459 145.995 137.493 144.789C138.458 144.639 138.513 146.077 139.299 146.088C137.92 150.487 140.484 158.289 145.502 156.593C149.063 155.291 148.912 147.729 144.788 145.717C142.49 144.663 141.664 146.564 139.433 144.933C143.081 141.484 148.695 140.744 153.062 137.882C155.364 136.475 157.335 134.263 159.42 132.468C164.338 128.339 173.277 125.02 172.871 117.751C170.362 117.984 168.675 120.007 166.677 120.884C162.68 122.639 159.451 123.515 156.514 125.877C154.041 127.889 152.315 130.594 149.501 132.587C147.436 134.041 145.145 134.663 143.505 136.449C141.609 138.529 140.285 144.367 135.337 143.025C143.93 130.185 153.024 117.543 148.509 97.1883C146.34 98.6712 145.74 101.406 145.103 103.591C144.238 106.174 144.395 108.814 143.843 111.312C143.024 114.889 140.757 118.075 139.91 121.547C139.425 123.468 139.224 125.2 139.211 127.216C139.171 129.127 139.792 131.419 139.439 133.415C138.695 138.09 134.677 141.415 131.757 144.667C130.271 138.362 132.172 132.591 130.874 126.57C130.15 123.076 128.139 119.373 128.22 115.55C128.37 109.918 135.152 106.066 139.701 101.814C141.217 100.396 143.475 96.7649 145.048 95.5556C145.872 94.8848 147.207 94.8583 148.087 94.3957C148.864 93.9615 149.708 92.9499 150.532 92.2791C153.498 90.0212 155.062 88.3671 156.751 85.1137C156.348 81.9804 157.799 79.9097 157.926 77.08C154.754 78.164 153.303 80.2347 152.382 82.609C149.416 84.8669 146.848 87.3525 143.485 89.3826C144.805 86.0057 149.278 81.8854 151.981 78.2453C153.158 75.578 152.53 71.6115 151.996 67.1719C151.753 65.449 152.381 62.8188 150.612 62.0686C148.727 63.3626 148.533 66.7696 148.028 69.0309C146.438 75.9472 144.307 83.3454 141.005 89.7199C140.975 90.8461 140.975 90.8461 141.57 91.8029C134.53 97.1783 134.744 106.624 127.837 112.076C126.801 108.667 124.262 103.43 126.112 100.356C127.229 99.9413 127.817 99.2228 129.039 98.7797C129.988 96.5095 133.03 94.1192 134.246 90.7705C135.063 88.4245 135.153 85.0458 135.848 81.8383C136.981 76.9467 138.159 74.2794 135.952 68.6166C134.547 65.0844 131.588 62.4207 129.861 58.5284C127.879 61.5259 128.282 64.6592 130.065 68.7598C130.48 69.8772 131.5 71.1658 131.726 71.999C132.102 73.7977 131.237 76.3803 130.997 78.7934C130.461 83.4113 129.594 87.2243 128.557 91.6428C127.538 95.7205 127.628 98.9386 124.539 101.565C123.351 98.4215 121.983 95.4383 121.826 92.7975C121.593 90.2891 122.865 87.1487 123.229 84.3666C123.793 79.8529 124.3 76.3612 122.822 70.5006C118.781 70.0312 117.546 73.7207 116.464 75.9149C114.026 73.11 115.856 70.3774 116.598 68.1637C117.976 63.7647 118.76 58.4089 119.316 53.4503C119.871 48.4916 120.258 42.9081 119.811 37.5506C121.34 34.1172 124.296 31.4144 123.044 26.3871C119.521 28.2372 115.752 29.5948 114.063 32.8483C112.981 35.0425 113.401 39.0655 113.14 43.0497C112.784 47.5069 111.594 52.1902 112.138 55.8442C112.747 60.1514 114.276 63.3147 115.104 66.7798C114.259 69.0217 114.473 71.8708 114.658 74.6158C111.883 69.3307 110.101 63.9998 108.558 57.4861C108.664 56.2274 107.745 57.3713 107.234 56.7271C106.318 55.4102 106.493 52.344 105.568 50.5823C103.54 52.5859 107.197 56.1781 106.673 58.7801C105.084 57.8693 103.695 56.4571 102.334 55.1491C99.3662 45.4439 101.253 36.3228 97.8015 27.3078C97.3866 26.1904 96.5551 25.186 96.1402 24.0687C94.8497 19.7227 95.169 14.7164 91.0364 12.2594C89.9473 12.7784 89.0453 14.812 88.7594 16.2313C87.5011 22.7221 91.671 32.3249 93.8179 40.2402C92.2573 39.4335 93.0446 38.2137 92.5732 36.888C89.4148 28.129 82.9396 22.394 77.7143 16.32C76.5863 17.5204 77.7568 19.7746 78.2846 21.3086C80.1984 26.7154 84.6771 32.0975 87.9853 35.2254L88.5502 37.3083C90.7639 38.0496 91.9626 40.408 93.3413 42.6056C94.8365 42.7592 93.05 41.1193 94.0156 40.9692C95.8004 43.8395 97.4987 47.6276 99.0646 51.3399C99.9138 53.2339 99.8821 55.5905 100.959 57.0874C102.678 59.3045 105.651 58.7219 106.822 60.976C105.563 60.8702 102.631 59.541 100.255 59.8501C102.07 61.5941 105.25 60.9549 107.189 62.33C109.238 65.352 110.305 67.6344 111.558 71.4314C109.44 70.217 106.479 68.7837 104.059 66.8685C103.341 66.2807 102.822 65.1916 101.971 64.5279C98.9927 62.205 93.2874 60.9572 89.0966 59.5222C81.4812 57.0035 75.2674 53.881 66.362 60.2098C74.5035 65.4929 85.9864 63.7201 95.7219 66.2228C99.3265 67.1459 102.163 68.9481 105.75 68.9815C109.636 72.1764 114.033 74.7853 115.114 80.4181C115.668 83.2866 114.081 87.7422 114.558 91.9734C114.652 92.7307 115.114 93.6116 115.208 94.3689C115.448 98.5525 114.543 103.047 115.475 106.484C116.181 109.087 118.375 110.169 119.735 112.708C117.413 114.456 116.834 109.022 114.155 109.861C111.556 106.876 111.462 99.5218 109.944 95.573C109.114 93.3382 107.499 91.0929 106.14 88.5545C103.61 83.762 101.05 80.0957 97.9324 76.0216C95.325 72.5918 94.0044 69.3721 90.3238 68.5814C89.556 69.4605 89.5543 70.6909 89.2878 71.7695C88.783 74.0308 88.4954 76.6804 90.4779 80.2797C91.1858 81.653 92.5469 82.961 93.5479 84.5903C94.8507 86.9204 96.3142 89.4305 97.6647 91.524C98.987 93.5134 100.016 95.2468 101.414 97.1038C102.463 98.4965 103.227 100.078 103.87 100.798C106.251 103.395 111.549 105.201 113 109.727C111.939 110.35 110.739 109.222 109.736 108.823C108.705 108.32 107.362 107.902 106.274 107.19C103.807 105.512 102.58 103.049 99.7322 102.032C94.8795 100.218 87.9985 100.407 81.476 101.505C77.1971 102.219 69.3118 103.239 68.6058 107.232C72.5617 107.389 76.7348 107.935 81.3916 107.79C85.6317 107.758 90.1648 107.982 94.4049 107.95C97.623 107.86 100.899 106.747 103.814 107.187C107.438 107.769 109.724 110.839 112.855 111.667C112.409 112.906 112.729 114.496 113.341 116.343C107.989 119.695 112.348 129.582 117.631 128.037C119.193 127.614 120.9 125.25 120.865 123.471C120.861 119.335 117.089 116.556 114.298 115.748C113.855 114.526 113.809 113.532 113.763 112.539C118.323 114.097 123.338 114.861 126.806 118.169C130.02 128.367 129.024 136.24 130.119 145.223C126.771 144.007 125.27 140.948 123.182 138.607C118.126 133.158 110.893 127.517 103.428 125.964C102.009 125.678 100.438 125.657 98.4975 125.512C96.1886 125.244 93.7295 124.01 91.2865 124.896C92.2363 129.223 97.4209 130.612 101.176 132.501C108.449 136.23 117.143 139.015 124.843 141.847C126.364 143.335 127.478 145.38 129.351 146.102C129.081 149.642 129.793 155.151 129.758 159.968C129.733 164 128.526 167.794 128.389 171.409C126.531 166.21 124.219 161.806 121.366 157.884C119.939 155.923 118.485 153.858 117.389 152.701C113.835 149.081 108.915 147.844 104.594 145.103C102.447 143.784 100.908 141.406 98.3058 140.882C100.504 146.1 104.096 149.039 106.598 153.727C109.69 155.237 112.176 157.805 114.993 159.948C118.372 160.038 120.469 162.823 123.191 165.439C125.942 168.159 125.781 167.979 126.911 172.145C127.363 173.812 128.262 174.239 127.928 175.895C127.174 180.124 126.382 185.035 125.884 188.972C124.209 188.979 123.597 187.132 122.557 186.184C120.37 186.778 117.978 184.967 115.573 185.171C107.443 185.7 98.9468 190.24 96.2321 195.896C104.817 195.804 112.177 190.789 122.508 187.651C123.415 188.523 124.199 189.764 125.21 190.608C125.219 197.65 121.521 202.566 120.206 208.849C119.4 210.409 115.973 210.556 116.888 213.103C118.201 214.647 118.196 211.742 119.283 212.453C119.688 214.356 117.967 213.369 117.34 214.769C117.988 218.395 117.651 222.512 119.577 225.903C120.59 225.516 119.75 224.067 119.572 222.997C120.47 223.424 120.837 224.778 121.233 226.236C121.023 227.523 119.909 225.477 119.462 226.716C119.224 227.899 119.754 228.203 120.197 229.424C118.89 229.555 117.604 229.345 116.675 230.044C111.037 234.816 110.667 242.519 106.826 248.145C105.078 245.824 103.53 243.001 101.355 241.579C100.054 238.018 100.606 235.52 99.9954 232.444C97.9036 232.564 96.7263 235.231 96.3644 236.783C96.0697 237.757 96.2851 239.376 96.0275 240.899C95.8933 242.054 95.2385 243.35 95.1044 244.504C94.9032 246.236 95.5158 248.082 95.3623 249.577C95.1788 252.199 93.9539 255.103 93.6469 258.093C93.4457 259.825 93.8694 261.387 93.5076 262.939C93.2217 264.358 92.3303 265.606 92.0444 267.025C91.6632 268.918 92.1716 270.792 91.5733 272.296C90.4525 275.172 87.7905 276.9 86.0836 279.264C82.4205 272.766 84.994 266.589 84.8878 261.251C84.909 259.68 84.2487 258.07 84.4022 256.575C84.5186 254.531 85.9076 249.346 87.0461 247.361C87.6816 246.406 88.979 245.83 89.7186 244.847C92.4122 240.762 92.8268 235.282 94.7825 230.95C95.6617 231.718 95.9336 233.545 97.0687 234.02C98.0925 232.848 96.2971 230.763 95.5415 229.627C97.0242 225.199 98.4803 219.437 96.7166 214.996C94.7749 216.082 94.7149 218.334 92.7732 219.42C90.0582 218.479 90.4871 216.35 89.4702 212.601C88.0012 207.185 85.0688 199.259 83.7075 191.355C83.2378 188.799 83.0912 185.372 81.9225 181.888C80.4236 177.598 78.0704 175.106 80.3651 172.024C82.9971 171.422 83.2284 175.16 85.8604 174.558C86.1041 176.281 85.5534 177.549 84.7096 178.56C84.2208 182.941 86.447 188.264 90.3482 186.982C92.583 186.152 91.762 184.362 93.1653 182.528C91.8325 181.324 91.2587 178.796 90.2295 177.063C89.3115 176.976 88.9249 175.963 87.5516 176.671C82.4058 174.601 80.1656 172.525 77.4983 171.348ZM254.065 30.4311C255.696 34.7965 258.925 40.5175 260.839 45.9244C262.281 50.0056 263.137 53.5749 260.844 55.4267C258.851 52.613 256.007 49.1356 253.515 44.892C249.776 38.5267 242.066 28.654 245.748 21.6176C249.314 23.222 250.499 28.8266 254.065 30.4311ZM95.2336 83.7976C96.3193 85.7394 96.7801 87.8506 97.9417 89.6599C100.832 94.1312 105.217 98.7559 106.373 104.256C102.184 101.591 99.2748 97.4605 96.1961 92.705C94.5243 90.2514 93.5815 87.6 92.1939 84.9575C90.3155 81.33 86.4019 78.0309 87.6762 73.6601C89.6587 77.2594 93.0904 80.0183 95.2336 83.7976ZM115.057 107.827C115.258 106.095 113.59 107.778 113.563 106.443C113.302 103.831 113.333 101.474 112.968 98.8898C114.371 97.0556 113.03 95.4069 112.625 93.504C111.347 87.1421 113.901 74.7094 118.835 72.7003C121.068 86.2944 116.341 96.0741 115.057 107.827ZM264.767 65.7674C263.08 61.1937 261.856 56.2705 263.716 52.4116C265.376 56.8811 265.87 62.0021 264.767 65.7674ZM90.0658 104.319C90.9643 104.746 87.4621 105.025 87.0561 104.353C88.2776 103.909 88.9961 104.497 90.0658 104.319ZM97.6441 106.289C96.103 105.141 92.0518 105.457 91.5045 104.264C93.3775 104.986 97.3722 104.462 97.6441 106.289ZM123.458 116.953C120.176 115.16 116.43 113.716 115.849 109.513C115.727 108.651 116.28 106.154 116.633 104.157C117.053 101.583 117.549 98.8772 118.373 98.2064C119.708 104.777 122.785 110.762 123.458 116.953ZM113.32 124.511C112.365 123.875 110.995 122.122 111.49 120.647L112.531 120.364C113.069 121.112 114.457 123.755 113.32 124.511ZM184.811 161.361C183.815 156.04 181.419 150.093 181.274 145.437C181.172 144.234 181.799 142.834 181.696 141.632C181.558 138.651 180.37 135.507 180.337 132.497C180.208 129.961 180.77 126.677 179.459 123.902C181.9 117.65 190.034 114.661 193.137 108.788C197.194 111.377 200.036 116.085 203.457 119.629C206.769 120.297 209.009 122.372 211.685 123.995C212.905 124.782 214.75 125.4 215.657 126.272C217.869 128.243 218.801 131.68 221.183 134.277C222.733 135.869 225.495 136.573 227.045 138.165C228.728 139.833 229.434 142.437 230.88 144.058C227.358 144.677 224.082 145.79 220.911 145.643C218.763 145.555 215.848 145.116 213.928 144.63C211.033 143.85 208.046 141.082 204.574 140.235C202.653 139.75 200.874 139.785 199.133 139.139C196.049 138.075 194.035 136.832 191.804 135.201C191.246 134.793 189.466 134.829 189.885 133.485C193.652 133.358 197.085 134.887 200.453 135.762C202.137 136.2 203.897 136.505 205.582 136.943C210.738 138.228 214.143 139.652 218.456 141.949C220.943 143.287 223.534 144.596 226.544 144.563C219.626 137.606 210.706 133.988 200.903 132.062C200.243 130.452 200.294 127.755 198.875 127.469C197.057 128.186 197.858 130.316 197.496 131.868C195.187 131.6 190.209 131.385 188.342 133.568C190.806 137.708 195.216 138.301 199.075 140.161C198.425 144.363 201.261 147.395 202.269 150.7C203.72 155.226 203.485 160.544 205.041 165.042C205.427 166.055 206.126 166.984 206.617 167.969C207.523 170.071 207.632 172.949 209.723 174.059C207.514 169.626 208.305 165.946 208.11 162.756C207.902 156.216 205.984 146.673 203.077 141.312C206.749 141.658 209.206 144.122 212.574 144.997C210.136 148.789 209.799 152.906 209.489 158.357C209.314 161.423 208.704 164.943 208.908 167.347C209.152 169.07 210.181 170.804 210.406 172.867C210.808 176.001 209.952 179.028 211.878 182.419C208.171 186.89 206.422 192.396 201.127 195.957C198.915 200.582 196.174 204.904 194.52 209.936C195.432 207.117 193.506 203.726 193.047 200.385C192.353 195.765 194.337 191.537 193.151 187.163C192.888 185.781 194.318 185.281 194.187 183.975C193.317 183.652 192.835 183.112 192.268 182.259C188.49 176.575 189.745 172.545 190.622 167.947C192.281 159.223 195.635 150.151 191.163 139.847C187.393 142.435 188.927 148.504 188.579 153.406C188.339 155.819 187.542 157.825 187.851 160.201C188.44 164.849 190.781 169.357 187.975 173.025C185.055 169.68 185.741 166.028 184.811 161.361ZM244.156 111.386C242.737 111.1 242.241 107.209 243.671 106.71C244.294 107.771 245.899 110.801 244.156 111.386ZM236.475 122.638C237.585 127.144 236.803 131.27 237.243 134.952C237.448 137.356 237.729 139.628 237.953 141.692C238.421 145.478 240.112 147.591 239.872 150.004C238.663 148.431 238.239 146.869 238.062 144.569C237.515 143.376 236.332 143.138 235.861 141.812C235.049 133.87 229.952 123.736 231.447 117.293C231.856 115.505 233.325 114.324 233.554 112.696C233.994 116.378 235.731 119.485 236.475 122.638ZM184.876 168.611C179.286 166.549 177.676 160.612 174.05 154.664C173.077 153.139 172.245 152.134 171.481 150.553C168.999 145.524 167.228 139.407 167.245 133.7C167.265 133.359 167.445 133.199 167.89 133.19C174.662 143.317 184.472 153.514 184.876 168.611ZM127.842 149.195C127.872 148.069 129.512 146.282 130.912 146.909C128.924 147.001 129.639 150.049 127.842 149.195ZM140.946 152.573C139.602 152.155 139.122 150.384 139.115 148.709L140.469 148.342C141.509 149.29 141.874 151.874 140.946 152.573ZM212.817 167.741C214.748 160.844 215.628 153.785 215.951 146.318C218.299 145.905 220.048 146.995 221.723 146.988C223.739 147 225.236 145.924 227.64 145.719C229.287 145.607 231.197 146.878 232.798 145.773C234.205 148.075 236.267 149.081 237.475 151.884C237.208 152.963 236.11 153.037 235.447 153.888C235.219 154.285 235.729 154.929 235.501 155.327C235.426 155.459 234.441 155.95 233.929 156.536C232.829 157.841 232.81 158.181 231.682 159.382C230.45 160.61 229.452 163.117 228.864 163.835C227.092 165.546 224.556 165.675 222.755 167.281C221.855 168.085 221.777 169.447 221.009 170.327C219.398 172.217 217.191 173.151 215.608 175.146C215.283 177.247 214.06 178.92 213.073 180.641C210.107 176.302 211.542 172.112 212.817 167.741ZM243.71 160.032C243.549 159.852 242.51 158.905 243.343 158.679C243.2 159.388 244.695 159.542 243.71 160.032ZM184.568 179.428C181.491 180.039 182.812 183.259 181.191 184.704C181.271 182.111 179.959 179.336 178.513 177.716C180.993 177.379 183.198 177.675 184.568 179.428ZM173.731 186.057C169.699 179.436 178.326 176.201 180.372 181.684C180.956 183.426 180.074 185.119 179.673 187.352C176.681 188.276 174.572 187.506 173.731 186.057ZM73.5563 208.755C73.2262 207.95 73.7946 207.572 74.2305 207.119C75.498 207.669 74.5113 209.391 73.5563 208.755ZM185.794 189.718L184.44 190.085C183.485 189.449 183.866 187.557 184.321 186.763C185.116 187.218 185.53 188.335 185.794 189.718ZM40.6499 241.608C38.6922 240.573 34.9939 238.893 34.4749 237.804C32.1623 233.4 36.1356 227.85 41.8498 229.542C43.4228 234.93 46.5404 239.004 47.6033 243.747C45.7198 243.811 43.1089 242.842 40.6499 241.608ZM157.098 209.241C158.242 210.16 159.423 211.629 160.596 212.653C161.928 213.857 163.649 214.843 164.509 215.952C167.041 219.514 168.33 225.09 170.406 229.447C166.48 228.164 163.182 224.25 159.837 220.573C156.652 217.077 153.061 212.907 150.473 209.137C149.179 207.252 147.972 204.448 148.127 201.723C149.919 206.268 153.856 206.766 157.098 209.241ZM251.977 176.91C251.76 176.521 251.818 175.499 252.092 176.096C252.338 176.588 252.251 177.506 251.977 176.91ZM258.94 186.09C258.564 184.292 260.385 181.114 262.456 182.565C260.61 183.178 260.038 186.016 258.94 186.09ZM257.369 186.069C257.455 185.151 255.591 184.874 256.491 184.071C257.002 184.715 258.818 185.229 257.369 186.069ZM73.268 239.022C75.9939 245.774 79.38 254.136 80.1569 260.298C80.8968 265.912 78.438 271.275 80.087 276.53C77.8645 275.344 76.0709 272.029 74.9586 268.752C72.1498 260.458 68.082 245.46 68.6855 240.265C68.9061 238.193 70.4418 236.434 71.4179 235.499C72.0499 237.004 72.8249 237.801 73.268 239.022ZM113.242 241.709C113.692 238.009 111.619 231.192 116.928 232.212C119.147 235.859 117.966 240.987 119.302 246.327C121.213 254.194 126.181 261.792 127.713 269.091C117.794 269.21 110.968 264.241 106.77 254.534C110.494 250.952 112.524 247.718 113.242 241.709ZM119.917 240.346C119.465 238.679 119.344 236.588 119.148 234.628C119.027 233.767 117.817 232.194 119.143 231.723C119.328 234.468 121.018 237.811 119.917 240.346ZM261.742 199.307C261.525 198.918 261.583 197.896 261.857 198.493C262.102 198.985 262.016 199.903 261.742 199.307ZM125.288 270.867C126.347 271.474 123.755 270.164 123.517 271.347C124.546 273.08 126.638 272.96 128.531 273.341C129.908 276.77 134.736 276.019 134.843 280.127C130.921 282.98 134.305 292.572 139.163 290.695C141.398 289.865 140.937 287.754 142.312 285.816C145.977 291.083 151.944 294.944 154.661 301.251C162.358 306.543 167.094 316.998 174.336 323.084C169.695 325.349 164.812 324.661 160.876 324.163C159.836 323.216 159.887 320.518 158.42 320.469C157.68 321.452 159.477 322.306 159.352 323.906C156.418 323.807 153.333 323.973 150.902 322.843C148.72 319.745 146.418 314.556 142.981 315.488C145.601 316.902 147.897 319.186 149.378 322.586C144.692 323.857 141.903 321.818 138.278 321.236C139.401 317.13 138.495 308.431 133.651 307.061C131.83 310.239 133.876 315.721 133.378 319.658C124.006 320.97 130.971 301.303 119.988 304.506C112.289 293.847 113.176 268.673 100.274 270.16C97.9372 276.384 102.606 280.82 104.965 286.218C106.116 288.813 106.699 291.786 107.926 294.248C108.228 294.949 109.098 295.272 109.532 296.049C110.127 297.005 110.229 298.208 110.692 299.088C112.931 302.395 116.193 304.529 118.301 306.529C116.348 308.4 115.588 310.954 112.841 312.37C106.239 309.465 100.899 304.204 93.737 302.122C93.6628 301.024 92.7731 301.041 92.7748 299.811C91.7439 299.308 90.5329 298.966 89.1984 298.992C86.6651 296.66 82.5377 290.512 84.6258 286.256C84.1439 285.716 83.2348 286.074 82.9047 285.269C83.1641 282.516 84.1613 280.009 87.3229 279.71C87.7783 278.916 87.0969 278.877 86.8709 278.044C90.2653 273.657 92.8371 268.711 95.6736 263.916C98.5861 258.99 99.0677 252.933 99.0957 246.44C100.665 247.692 101.172 250.797 103.405 251.198C103.354 253.895 100.66 257.98 103.326 260.387C104.378 259.319 103.785 257.132 105.206 256.188C107.086 258.585 107.931 262.94 110.419 264.278C111.278 265.386 109.651 265.157 110.142 266.142C112.158 266.154 113.215 267.992 114.595 268.959C117.775 269.55 119.996 271.967 123.583 272C123.745 270.95 122.146 270.825 123.528 270.561C124.172 270.051 124.654 270.591 125.288 270.867ZM23.6888 269.353C27.348 265.118 30.81 273.347 28.8471 276.004L26.0351 276.767C23.765 275.817 23.2123 271.718 23.6888 269.353ZM120.676 245.619C120.093 242.646 121.205 245.922 120.988 245.534C121.451 246.415 122.318 249.198 122.485 251.054C121.74 249.131 120.826 246.584 120.676 245.619ZM265.923 214.721C266.196 215.317 265.732 215.667 265.61 214.805C265.017 212.618 264.291 210.355 264.757 208.775C265.587 211.01 265.093 212.486 265.923 214.721ZM263.36 220.112C264.135 220.908 264.341 222.082 265.249 222.954C268.935 226.65 275.973 229.102 276.665 234.952C267.985 228.92 258.066 222.442 252.761 212.365C255.568 215.293 260.052 216.984 263.36 220.112ZM208.671 235.728C207.489 235.49 207.047 233.038 208.666 232.822C209.224 233.23 210.214 235.645 208.671 235.728ZM21.9579 288.942C21.1547 288.042 20.618 286.063 20.8562 284.88L21.8977 284.598C22.9092 285.441 24.5422 288.576 21.9579 288.942ZM218.303 238.259C217.773 237.955 217.547 237.122 217.425 236.261C217.889 235.911 218.117 235.514 218.581 235.164C219.716 235.639 220.158 238.091 218.303 238.259ZM80.8817 283.582C79.2769 280.551 75.9299 278.105 76.0021 273.836C77.2273 277.529 82.9133 279.118 80.8817 283.582ZM117.596 268.48C116.121 267.986 113.254 267.31 113.227 265.976C114.504 266.971 116.595 266.851 117.596 268.48ZM207.773 241.897C208.34 242.75 209.665 242.279 210.536 242.602C212.605 245.283 213.014 250.091 209.133 251.032C205.793 250.261 204.004 243.255 207.773 241.897ZM187.168 256.207C186.696 254.882 186.49 253.708 187.049 252.885C187.18 254.191 188.285 255.792 187.168 256.207ZM133.436 271.228C132.215 271.671 130.836 269.474 132.559 269.23C133.088 269.534 133.314 270.367 133.436 271.228ZM77.9606 294.661C74.8202 293.388 71.5032 289.815 70.571 286.378C72.7053 289.713 75.2191 292.385 77.9606 294.661ZM278.535 244.731C276.711 242.542 274.404 241.044 272.305 239.489C272.241 237.605 271.809 235.598 271.452 233.459C275.436 233.72 280.028 239.518 278.535 244.731ZM141.604 271.249C141.196 271.807 140.561 272.762 139.606 272.127C139.021 270.384 141.067 269.27 141.604 271.249ZM187.791 263.865C187.925 262.71 187.265 261.101 187.901 260.146C188.637 261.623 188.264 263.96 187.791 263.865ZM281.649 257.863C281.639 258.648 280.973 260.73 280.583 262.177C279.688 265.886 278.227 268.742 275.886 270.83C275.305 266.627 277.999 262.543 277.513 257.866C277.038 252.405 273.467 247.895 273.333 242.452C273.352 242.112 273.532 241.951 273.977 241.942C278.042 244.977 281.905 250.973 281.649 257.863ZM89.119 301.585C85.5709 300.871 82.8576 298.699 80.2961 296.263C83.4171 297.877 85.7986 300.473 89.119 301.585ZM188.219 269.563C188.106 269.147 187.437 267.092 188.164 268.124C188.381 268.513 188.946 270.596 188.219 269.563ZM273.333 255.646C273.317 253.526 273.036 251.254 273.522 249.333C275.005 251.503 274.537 254.313 273.333 255.646ZM191.264 277.906L189.965 273.115C193.149 270.015 195.25 276.936 191.264 277.906ZM108.678 311.039C109.605 311.57 111.109 312.169 111.183 313.267C106.793 312.333 103.617 309.281 100.138 306.759C97.3753 306.055 92.1077 303.123 91.1809 302.591C97.4441 304.247 103.591 307.947 108.678 311.039ZM190.59 279.542C190.703 279.959 191.753 280.121 190.957 280.896C189.767 278.982 189.571 277.023 190.59 279.542ZM275.227 261.393C273.914 259.849 274.675 257.295 276.096 256.35C276.292 258.31 276.62 260.345 275.227 261.393ZM193.386 289.853C195.583 296.301 201.226 301.032 202.021 308.084C199.27 298.767 191.517 293.267 191.665 282.269C192.996 284.703 192.5 287.41 193.386 289.853ZM274.781 269.229C274.69 273.838 275.989 278.629 272.589 280.11C271.955 273.238 271.879 266.774 273.363 261.116C276.029 263.524 274.919 265.614 274.781 269.229ZM100.659 326.408C103.376 319.521 110.29 315.745 116.818 310.956C117.75 307.796 121.277 303.485 124.897 306.528L125.349 308.195C123.275 309.204 123.27 306.299 121.575 306.647C121.341 311.965 119.775 314.85 116.968 318.518C112.407 324.787 107.203 330.335 98.8416 333.721C99.9713 331.29 99.7381 328.782 100.659 326.408ZM123.295 308.864C125.964 308.811 127.254 313.157 126.2 315.455C124.393 315.386 122.509 315.45 121.385 314.19C122.4 312.573 121.854 310.149 123.295 308.864ZM143.98 324.944C140.12 324.314 136.744 321.764 132.485 322.136C129.345 320.864 127.343 317.605 123.747 317.127C123.634 316.71 123.625 316.265 124.278 316.2C124.495 316.588 124.912 316.475 125.404 316.23C129.676 320.438 136.64 321.792 142.45 323.011C144.106 323.345 145.753 323.234 147.38 323.463C149.244 323.74 150.965 324.727 152.905 324.872C154.741 325.044 156.815 324.035 158.261 325.655C155.62 325.812 152.233 325.278 150.206 326.051C151.765 328.088 155.885 325.964 157.928 327.311C153.397 332.453 145.109 330.341 138.463 331.808C137.375 331.096 136.335 330.149 136.007 328.113C137.191 327.121 136.655 325.142 137.971 324.226C141.511 324.496 145.303 326.934 148.987 325.264C147.446 324.116 145.608 325.174 143.98 324.944ZM127.782 321.287C127.507 321.921 126.409 321.995 125.472 322.25C124.008 319.739 121.027 319.877 119.411 317.632C122.714 317.854 126.425 317.519 127.782 321.287ZM270.451 279.237C270.282 278.612 270.587 276.852 271.126 277.6C270.425 277.902 271.445 279.191 270.451 279.237ZM55.6323 343.428C53.521 343.889 49.5651 343.732 46.8484 344.022C44.7848 344.246 41.4327 345.491 40.7636 343.436C40.1227 341.486 44.2233 339.702 46.5905 338.949C53.2471 336.696 66.6595 335.853 73.1786 337.216C68.4619 339.613 62.1742 341.989 55.6323 343.428ZM281.273 283.681C279.995 283.916 279.01 284.407 278.233 284.841C277.216 287.689 277.104 293.869 280.916 294.735L284.353 293.803C285.296 296.454 287.349 297.016 289.174 297.974C283.671 301.591 277.891 305.842 273.92 310.162C272.536 311.655 272.05 313.576 270.289 314.501C270.804 304.858 270.524 294.759 270.775 284.963C275.793 283.267 277.133 279.549 281.329 277.293C282.007 279.792 280.462 281.106 281.273 283.681ZM66.3107 355.179C66.9479 352.994 66.6865 350.381 66.9548 348.072C71.9431 340.905 80.4989 334.112 89.5051 330.216C82.9528 339.037 77.3063 349.961 66.3107 355.179ZM271.384 282.674C272.558 282.467 273.961 280.633 274.85 280.615C274.291 281.438 273.048 283.452 271.384 282.674ZM114.035 325.016C114.451 324.903 114.442 324.458 114.991 324.421C115.738 325.113 114.1 325.669 114.035 325.016ZM76.19 335.952C76.9667 335.517 76.5519 334.4 77.9905 334.345C78.6137 335.406 76.672 336.492 76.19 335.952ZM134.914 331.093C131.414 330.142 129.431 326.542 126.993 323.738C128.556 323.314 128.557 322.084 129.751 321.536C132.958 322.232 134.672 328.14 134.914 331.093ZM116.916 329.043C114.226 330.667 114.344 333.989 115.626 337.89C109.294 338.042 112.16 332.121 110.746 328.144L115.537 326.845C116.275 327.092 116.254 328.663 116.916 329.043ZM281.917 289.768C281.142 288.972 280.304 286.292 281.629 285.821C281.788 287.231 282.713 288.993 281.917 289.768ZM121.112 333.383C119.862 333.722 119.647 332.103 119.336 330.958C120.358 331.016 121.587 332.248 121.112 333.383ZM204.729 313.946C204.57 312.536 202.565 311.738 203.4 310.281C203.407 311.957 205.488 312.622 204.729 313.946ZM286.936 288.071C290.789 287.026 291.898 292.763 290.74 295.09C285.729 298.461 283.838 290.253 286.936 288.071ZM207.525 317.66C206.931 316.703 205.153 315.508 205.552 314.506C205.967 315.623 208.029 316.629 207.525 317.66ZM269.088 300.18C269.609 300.039 269.042 299.186 269.534 298.941C270.045 299.585 269.55 301.061 269.088 300.18ZM211.755 325.01C211.16 324.054 209.829 321.619 210.228 320.617C210.871 321.337 212.161 325.683 211.755 325.01ZM269.231 306.067C269.014 305.679 269.072 304.656 269.346 305.253C269.591 305.746 269.505 306.663 269.231 306.067ZM269.261 311.537C269.395 310.383 268.924 309.057 269.455 308.13C269.851 309.588 270.086 310.867 269.261 311.537ZM216.091 331.102C215.222 329.549 212.583 328.475 212.936 326.479C213.549 328.325 216.368 329.238 216.091 331.102ZM153.12 347.511C152.165 346.875 152.101 344.992 153.115 344.605C153.672 345.013 154.663 347.428 153.12 347.511ZM219.087 334.315C218.652 333.538 216.751 332.712 217.311 331.889C217.669 332.798 219.826 333.331 219.087 334.315ZM270.54 324.496C269.954 323.984 269.475 320.983 270.005 321.287C270.051 322.281 271.26 323.853 270.54 324.496ZM119.758 367.964L117.987 368.445C116.891 367.288 116.573 364.468 118.239 364.016C119.138 364.443 120.204 366.725 119.758 367.964ZM149.698 364.987C149.537 364.807 148.498 363.859 149.331 363.633C149.491 363.813 150.503 364.657 149.698 364.987ZM272.44 339.746C272.157 338.704 272.14 337.815 272.519 337.153C272.802 338.194 272.819 339.084 272.44 339.746ZM275.014 353.359C274.439 352.062 273.051 349.419 273.517 347.84C273.817 349.771 275.66 351.619 275.014 353.359ZM277.608 360.035C277.468 358.284 275.33 357.411 276.08 355.642C276.448 356.996 278.234 358.636 277.608 360.035ZM279.472 366.909C278.81 366.53 278.462 364.835 279.636 364.629C279.786 365.594 280.277 366.579 279.472 366.909ZM317.7 406.855C318.826 406.885 317.008 407.602 317.755 408.294C322.982 413.137 328.133 418.113 334.072 421.87C333.994 423.232 333.33 424.083 333.149 425.474C330.197 424.486 328.508 421.143 325.148 420.712C325.062 421.63 327.191 422.059 325.6 422.378C324.836 420.797 323.256 420.331 322.188 419.279L321.736 417.612C320.318 416.096 318.719 415.971 317.282 414.795C316.138 413.876 314.495 411.526 312.888 409.726C311.036 407.433 308.447 404.893 308.544 403.189C311.4 404.651 315.423 404.23 317.7 406.855ZM335.966 421.021C334.158 420.952 332.56 419.596 331.284 418.601C326.689 415.263 322.682 411.206 318.826 406.885C318.846 406.544 319.026 406.384 319.471 406.375C325.988 408.968 335.259 411.82 335.966 421.021ZM345.244 432.145C348.033 434.183 350.738 435.91 353.557 436.822C355.534 437.516 357.891 437.548 359.924 438.45C362.431 439.447 364.947 440.889 367.557 441.858C370.272 442.799 372.807 443.9 375.418 444.869C381.217 446.874 387.011 445.974 392.885 447.846C390.64 449.462 391.989 452.786 393.198 454.358C389.885 454.922 387.051 450.659 382.213 452.195C375.989 449.858 369.155 449.81 363.282 446.707C361.958 445.948 361.023 444.972 359.623 444.346C358.119 443.747 356.5 443.963 354.892 443.392C353.312 442.927 351.194 441.712 349.397 440.858C343.4 438.124 338.851 435.78 335.272 429.594C337.412 429.238 334.548 426.101 336.82 425.82C339.278 428.284 342.323 430.03 345.244 432.145ZM196.263 480.603C194.718 481.917 193.996 483.79 193.615 485.682C192.695 480.229 191.142 474.501 193.239 470.69C195.128 473.532 194.194 477.922 196.263 480.603ZM200.076 488.067C198.288 487.657 198.558 484.118 199.591 483.391C199.541 484.858 201.478 487.463 200.076 488.067ZM84.7698 182.904C84.6197 181.939 83.8077 180.594 84.8492 180.311C85.0275 181.381 85.7072 182.65 84.7698 182.904Z" stroke="#01423A" stroke-width="1.07911"/>
</svg>
