<svg width="103" height="21" viewBox="0 0 103 21" fill="none" xmlns="http://www.w3.org/2000/svg">
<path d="M102.664 20.5892C102.018 20.5892 99.7943 20.5413 99.1487 20.5413C98.4074 20.5413 97.69 20.5653 97.0443 20.6131C96.5661 20.6609 96.3987 20.5413 96.303 20.1348C95.8248 18.4131 95.6335 16.9544 95.7291 15.8065C95.7291 15.7826 95.6813 15.5196 95.6095 15.0174C93.3378 14.8978 92.0226 14.8261 91.6639 14.7783C91.2813 14.7783 90.8987 14.7065 90.54 14.6109C89.7747 14.4435 89.3204 14.85 89.153 15.4239C88.9139 16.3087 88.1247 19.4413 87.9095 20.3261C87.8617 20.4935 87.6704 20.8522 87.503 20.8522C86.0921 20.9479 84.6573 20.9957 83.2465 20.9957C82.7682 21.0435 82.5291 20.6848 82.6486 20.1587C83.6291 15.687 85.0399 9.20652 85.9247 6.19347C86.5465 4.13694 86.8813 2.36737 87.8378 0.932585C88.053 0.597801 88.3639 0.43041 88.7704 0.406497C90.9943 0.310844 92.9552 0.191279 94.653 0.0477991C96.2074 -0.0478528 96.8291 0.406497 97.2835 1.53041C97.953 3.25216 98.4791 4.73477 98.8856 6.02608C99.0052 6.38478 99.4117 7.93913 100.105 10.6652L101.54 16.2131C101.683 16.7631 102.281 19.1544 102.425 19.7283C102.473 19.9674 102.616 20.2066 102.688 20.3979C102.712 20.4696 102.736 20.5174 102.736 20.5413C102.736 20.5892 102.712 20.5892 102.664 20.5892ZM90.803 6.4326C90.6356 8.65652 90.5161 9.87609 90.4921 10.1152C90.4682 10.5696 90.6595 10.7848 91.1139 10.7848C92.8834 10.7848 93.9595 10.7848 94.3422 10.7848C94.7965 10.7848 94.9878 10.6174 94.9161 10.1391C94.6769 8.10652 94.5335 6.9826 94.5095 6.76739C94.4856 6.64782 94.3421 6.45652 94.1987 6.45652C93.7682 6.4326 92.6443 6.4326 90.803 6.4326Z" fill="white"/>
<path d="M70.3083 0.0478516C71.0496 0.0478516 71.2648 0.310896 71.1931 1.0522C71.1453 2.20003 70.9539 3.68265 70.8822 4.80656C70.8105 6.07396 70.5713 10.6892 70.4996 11.8609C70.4518 12.4827 70.5713 12.6979 71.1692 12.6979C71.9344 12.7696 76.9083 13.2718 77.1953 13.2957C77.7214 13.3675 77.9844 13.7022 77.9844 14.2762C77.9605 15.0175 77.9605 16.5718 77.9844 18.9631C77.9844 19.5849 77.7214 19.9197 77.2192 19.9436C75.6887 20.0631 74.517 20.1349 73.704 20.1349C73.154 20.1349 71.2648 20.0392 70.7148 20.0631C67.4626 20.2305 66.4822 20.4218 62.3691 20.9957C62.5126 18.461 62.6083 17.0979 62.6083 16.9066C62.8952 14.5153 63.1583 12.6022 63.3974 11.1675C63.6365 9.9718 63.7561 8.25005 63.7561 6.02613C63.78 3.82612 63.8039 2.36742 63.8518 1.67394C63.8518 1.65003 63.8757 1.60221 63.8757 1.55438C63.9235 0.813072 64.0191 0.382635 64.1626 0.239157C64.3061 0.119592 64.7844 0.0478516 65.5735 0.0478516C67.8213 0.0478516 69.3996 0.0478516 70.3083 0.0478516Z" fill="white"/>
<path d="M62.2315 20.5892C61.5859 20.5892 59.362 20.5413 58.7163 20.5413C57.975 20.5413 57.2576 20.5653 56.612 20.6131C56.1337 20.6609 55.9663 20.5413 55.8706 20.1348C55.3924 18.4131 55.2011 16.9544 55.2967 15.8065C55.2967 15.7826 55.2489 15.5196 55.1772 15.0174C52.9054 14.8978 51.5902 14.8261 51.2315 14.7783C50.8489 14.7783 50.4663 14.7065 50.1076 14.6109C49.3424 14.4435 48.888 14.85 48.7206 15.4239C48.4815 16.3087 47.6924 19.4413 47.4771 20.3261C47.4293 20.4935 47.238 20.8522 47.0706 20.8522C45.6597 20.9479 44.225 20.9957 42.8141 20.9957C42.3358 21.0435 42.0967 20.6848 42.2163 20.1587C43.1967 15.687 44.6076 9.20652 45.4924 6.19347C46.1141 4.13694 46.4489 2.36737 47.4054 0.932585C47.6206 0.597801 47.9315 0.43041 48.338 0.406497C50.5619 0.310844 52.5228 0.191279 54.2206 0.0477991C55.775 -0.0478528 56.3967 0.406497 56.8511 1.53041C57.5207 3.25216 58.0467 4.73477 58.4533 6.02608C58.5728 6.38478 58.9794 7.93913 59.6728 10.6652L61.1076 16.2131C61.2511 16.7631 61.8489 19.1544 61.9924 19.7283C62.0402 19.9674 62.1837 20.2066 62.2555 20.3979C62.2794 20.4696 62.3033 20.5174 62.3033 20.5413C62.3033 20.5892 62.2794 20.5892 62.2315 20.5892ZM50.3706 6.4326C50.2032 8.65652 50.0837 9.87609 50.0598 10.1152C50.0358 10.5696 50.2272 10.7848 50.6815 10.7848C52.4511 10.7848 53.5272 10.7848 53.9098 10.7848C54.3641 10.7848 54.5554 10.6174 54.4837 10.1391C54.2446 8.10652 54.1011 6.9826 54.0772 6.76739C54.0533 6.64782 53.9098 6.45652 53.7663 6.45652C53.3359 6.4326 52.2119 6.4326 50.3706 6.4326Z" fill="white"/>
<path d="M29.8762 0.0478516C30.6175 0.0478516 30.8327 0.310896 30.761 1.0522C30.7131 2.20003 30.5218 3.68265 30.4501 4.80656C30.3783 6.07396 30.1392 10.6892 30.0675 11.8609C30.0196 12.4827 30.1392 12.6979 30.737 12.6979C31.5023 12.7696 36.4762 13.2718 36.7631 13.2957C37.2892 13.3675 37.5523 13.7022 37.5523 14.2762C37.5284 15.0175 37.5284 16.5718 37.5523 18.9631C37.5523 19.5849 37.2892 19.9197 36.7871 19.9436C35.2566 20.0631 34.0849 20.1349 33.2718 20.1349C32.7218 20.1349 30.8327 20.0392 30.2827 20.0631C27.0305 20.2305 26.0501 20.4218 21.937 20.9957C22.0805 18.461 22.1761 17.0979 22.1761 16.9066C22.4631 14.5153 22.7261 12.6022 22.9653 11.1675C23.2044 9.9718 23.324 8.25005 23.324 6.02613C23.3479 3.82612 23.3718 2.36742 23.4196 1.67394C23.4196 1.65003 23.4435 1.60221 23.4435 1.55438C23.4914 0.813072 23.587 0.382635 23.7305 0.239157C23.874 0.119592 24.3522 0.0478516 25.1414 0.0478516C27.3892 0.0478516 28.9675 0.0478516 29.8762 0.0478516Z" fill="white"/>
<path d="M12.2435 0.45435C13.1522 0.31087 14.0131 0 15.0892 0C15.3283 0 15.5914 0.023913 15.8305 0.071739C16.2848 0.167393 16.9544 0.191306 17.8392 0.0956536C18.4131 0.047826 18.7479 0.31087 18.8196 0.908698C18.987 2.65436 18.9392 3.30001 18.8196 5.06958C18.7479 5.88263 18.724 6.50437 18.724 6.91089C18.6283 9.63699 18.6283 11.6935 18.0305 13.9413C17.6957 15.2566 17.6718 15.4 17.2174 16.524C16.5718 18.1261 15.4 19.0588 13.8457 19.7283C13.6783 19.824 12.9609 20.0631 11.6696 20.4935C10.0196 21.0675 8.13046 21.0914 5.97828 20.6131C3.94566 20.1827 2.51088 18.8675 1.67392 16.6435C1.12392 15.2566 0.597828 12.5783 0.454349 10.9283C0.239131 8.3935 0.167392 6.88698 0 3.25218V3.08479C0 1.98479 0.286957 1.12392 0.932612 1.12392C1.1 1.14783 5.40436 1.14783 5.6435 1.14783C5.66741 1.14783 6.07393 1.19566 6.83915 1.29131C6.76741 2.48697 6.55219 4.13697 6.62393 5.38045C6.64785 6.76741 6.81524 8.03481 7.1022 9.13481C7.22176 9.63699 7.62828 10.3066 8.29785 11.1435C8.82394 11.837 10.0435 12.0044 10.8566 11.4305C11.9805 10.6174 12.5305 9.54134 12.5305 8.2022C12.5305 8.2022 12.3631 3.41958 12.2435 0.45435Z" fill="white"/>
</svg>
