<svg width="11" height="13" viewBox="0 0 11 13" fill="none" xmlns="http://www.w3.org/2000/svg">
<path d="M7.46429 3.25C7.46429 2.71128 7.25734 2.19462 6.88896 1.81369C6.52059 1.43276 6.02096 1.21875 5.5 1.21875C4.97904 1.21875 4.47942 1.43276 4.11104 1.81369C3.74267 2.19462 3.53571 2.71128 3.53571 3.25C3.53571 3.78872 3.74267 4.30538 4.11104 4.68631C4.47942 5.06724 4.97904 5.28125 5.5 5.28125C6.02096 5.28125 6.52059 5.06724 6.88896 4.68631C7.25734 4.30538 7.46429 3.78872 7.46429 3.25ZM2.35714 3.25C2.35714 2.38805 2.68826 1.5614 3.27766 0.951903C3.86706 0.34241 4.66646 0 5.5 0C6.33354 0 7.13294 0.34241 7.72234 0.951903C8.31174 1.5614 8.64286 2.38805 8.64286 3.25C8.64286 4.11195 8.31174 4.9386 7.72234 5.5481C7.13294 6.15759 6.33354 6.5 5.5 6.5C4.66646 6.5 3.86706 6.15759 3.27766 5.5481C2.68826 4.9386 2.35714 4.11195 2.35714 3.25ZM1.21049 11.7812H9.79196C9.57344 10.174 8.23772 8.9375 6.62455 8.9375H4.38036C2.76719 8.9375 1.43147 10.174 1.21295 11.7812H1.21049ZM0 12.2459C0 9.74492 1.95938 7.71875 4.3779 7.71875H6.6221C9.04063 7.71875 11 9.74492 11 12.2459C11 12.6623 10.6734 13 10.2708 13H0.729241C0.326563 13 0 12.6623 0 12.2459Z" fill="white"/>
</svg>
