<svg width="995" height="162" viewBox="0 0 995 162" fill="none" xmlns="http://www.w3.org/2000/svg">
<path d="M84.8642 100.97C85.5642 101.11 86.1242 100.83 86.5442 100.69C95.6442 97.7499 104.604 94.9499 113.844 92.7099C118.884 91.4499 124.064 90.3299 129.384 89.7699C131.204 89.6299 132.884 89.6299 134.704 90.1899C135.124 90.3299 135.544 90.4699 135.964 90.7499C136.804 91.3099 137.224 92.4299 136.804 93.2699C136.524 94.2499 135.544 94.8099 134.564 94.5299C130.504 93.4099 126.724 94.3899 122.944 95.0899C112.164 97.1899 101.804 100.41 91.4442 103.63C88.0842 104.61 84.8642 105.87 81.5042 106.85C80.2442 107.27 79.4042 107.97 78.5642 108.95C74.5042 113.99 70.1642 118.75 65.4042 123.23C59.8042 128.27 53.7842 132.89 47.0642 136.53C43.9842 138.07 40.7642 139.47 37.1242 139.75C36.5642 139.75 35.8642 139.75 35.3042 139.61C31.3842 139.05 29.5642 135.97 30.6842 132.19C31.6642 129.25 33.6242 127.01 35.7242 124.91C39.5042 121.27 43.8442 118.47 48.4642 115.95C55.6042 111.89 63.1642 108.81 70.8642 106.01C72.5442 105.45 74.0842 104.89 75.7642 104.33C76.6042 104.05 77.3042 103.49 77.8642 102.79C82.0642 97.4699 85.8442 91.7299 89.3442 85.9899C94.1042 78.0099 98.1642 69.7499 101.244 60.9299C104.044 52.9499 106.004 44.6899 106.004 36.1499C105.864 30.9699 105.164 25.7899 102.784 21.0299C99.4242 14.0299 93.6842 9.82989 85.9842 8.42989C78.7042 7.16989 71.5642 8.14989 64.5642 9.96989C49.8642 13.7499 36.5642 20.3299 24.5242 29.7099C19.2042 34.0499 14.3042 38.8099 10.2442 44.4099C8.4242 47.2099 6.7442 50.2899 6.0442 53.6499C5.4842 55.8899 5.4842 58.2699 6.3242 60.5099C6.8842 62.0499 7.7242 63.3099 9.2642 64.0099C10.6642 64.5699 11.0842 65.6899 10.6642 66.6699C10.2442 67.9299 8.9842 68.4899 7.5842 67.9299C5.4842 67.0899 3.9442 65.5499 2.9642 63.5899C1.1442 60.0899 0.864199 56.4499 1.7042 52.6699C2.5442 49.0299 4.2242 45.8099 6.1842 42.7299C9.9642 36.9899 14.7242 32.2299 19.9042 27.8899C27.6042 21.4499 36.0042 16.4099 45.1042 12.2099C53.3642 8.42989 61.9042 5.48989 71.0042 4.22989C76.8842 3.38989 82.7642 3.24989 88.5042 4.64989C93.6842 5.7699 98.1642 8.28989 101.944 12.0699C104.884 15.1499 106.984 18.9299 108.384 23.1299C109.644 26.9099 110.204 30.8299 110.204 34.8899C110.484 45.8099 107.824 56.1699 103.904 66.2499C99.2842 78.0099 92.9842 89.0699 85.7042 99.5699C85.4242 99.9899 85.0042 100.27 84.8642 100.97ZM71.2842 110.77C70.7242 110.63 70.4442 110.77 70.1642 110.91C67.6442 111.89 65.2642 112.73 62.8842 113.71C55.7442 116.79 48.7442 120.15 42.5842 124.91C40.6242 126.31 38.8042 127.85 37.2642 129.67C36.2842 130.79 35.4442 131.91 35.0242 133.17C34.6042 134.71 35.0242 135.27 36.5642 135.41C37.9642 135.41 39.2242 135.13 40.4842 134.71C43.8442 133.45 46.9242 131.63 49.8642 129.81C56.3042 125.61 62.0442 120.71 67.3642 115.25C68.6242 113.85 70.0242 112.45 71.2842 110.77ZM53.0842 26.3499C52.9442 27.6099 52.8042 28.7299 52.5242 29.8499C52.5242 30.1299 52.3842 30.2699 52.2442 30.4099C50.9842 31.3899 50.5642 32.9299 50.0042 34.3299C46.2242 43.7099 42.0242 53.0899 38.1042 62.4699C33.3442 73.3899 29.0042 84.3099 24.8042 95.5099C19.7642 109.09 14.7242 122.81 9.6842 136.39C9.1242 138.21 8.2842 140.03 7.7242 141.85C7.3042 142.83 6.8842 143.67 7.0242 144.79C7.0242 145.35 6.7442 145.77 6.4642 146.19C5.6242 147.31 4.5042 147.73 3.5242 147.31C2.4042 146.89 1.8442 145.77 2.2642 144.37C2.4042 143.53 2.6842 142.83 2.9642 141.99C7.7242 129.53 12.4842 116.93 16.9642 104.33C23.6842 85.4299 31.2442 66.8099 39.3642 48.4699C42.4442 41.3299 45.3842 34.0499 48.4642 26.9099C48.7442 26.2099 49.0242 25.5099 49.4442 24.9499C50.1442 24.2499 50.9842 23.9699 51.8242 24.3899C52.8042 24.8099 53.2242 25.5099 53.0842 26.3499ZM137.792 93.5499C138.632 92.2899 139.472 91.0299 140.452 89.7699C143.112 85.8499 146.192 82.0699 149.552 78.5699C150.532 77.4499 151.792 76.4699 153.052 75.6299C155.712 73.9499 157.952 74.5099 159.772 77.0299C159.912 77.1699 160.052 77.4499 160.332 77.7299C164.112 84.0299 170.272 86.1299 177.132 86.6899C178.252 86.8299 179.372 86.6899 180.492 86.2699C180.912 86.1299 181.332 85.9899 181.752 85.9899C182.732 85.8499 183.572 86.4099 183.992 87.2499C184.272 88.2299 183.992 89.0699 183.292 89.6299C182.872 90.0499 182.312 90.1899 181.892 90.3299C178.532 91.5899 175.312 91.3099 171.952 90.4699C168.592 89.6299 165.512 88.2299 162.572 86.4099C160.192 85.0099 158.512 82.9099 156.972 80.6699C155.852 78.8499 155.712 78.7099 154.032 80.2499C149.132 85.0099 144.932 90.4699 141.292 96.2099C139.192 99.5699 137.092 103.07 134.992 106.57C134.432 107.41 133.872 108.25 133.312 109.09C132.612 109.93 131.632 110.49 130.372 110.07C129.392 109.79 128.832 108.81 128.832 107.41C128.692 105.45 129.252 103.49 129.952 101.67C131.352 97.0499 133.172 92.5699 134.992 88.0899C136.392 84.4499 137.932 80.8099 139.472 77.1699C139.612 76.7499 139.612 76.4699 139.892 76.1899C140.592 75.0699 141.992 74.7899 143.112 75.4899C144.232 76.3299 144.652 77.7299 143.672 78.7099C142.832 79.8299 142.552 81.0899 141.992 82.2099C140.452 85.9899 139.052 89.7699 137.512 93.4099C137.512 93.5499 137.652 93.5499 137.792 93.5499ZM194.76 105.59C192.8 105.73 190.84 105.45 188.88 104.89C183.84 103.35 180.76 99.4299 180.62 93.9699C180.48 91.8699 180.9 89.6299 181.6 87.5299C183.28 82.3499 186.08 77.8699 190 74.0899C192.24 71.9899 194.9 70.4499 197.98 69.8899C199.1 69.7499 200.08 69.6099 201.2 69.7499C205.26 70.4499 207.36 73.6699 206.24 77.8699C205.68 80.1099 204.42 82.0699 203.02 83.8899C199.66 87.9499 195.74 90.7499 190.56 91.7299C189.16 91.8699 187.9 91.8699 186.64 91.8699C185.24 91.8699 184.82 92.1499 184.96 93.4099C185.1 97.6099 186.64 99.9899 191.12 100.97C195.04 101.81 198.82 101.25 202.46 99.9899C208.48 98.0299 214.22 95.5099 220.1 92.9899C222.62 91.8699 225.28 90.7499 227.8 89.2099C228.08 88.9299 228.5 88.7899 228.92 88.7899C229.76 88.6499 230.46 88.9299 231.02 89.6299C231.44 90.3299 231.44 91.1699 230.88 92.0099C230.46 92.7099 229.76 93.1299 228.92 93.5499C226.4 94.9499 223.88 96.0699 221.22 97.1899C215.34 99.7099 209.6 102.23 203.58 104.19C200.78 105.03 197.84 105.73 194.76 105.59ZM188.18 87.5299C191.4 87.3899 194.06 86.2699 196.58 84.3099C198.96 82.3499 200.92 79.9699 202.04 77.0299C202.6 75.2099 201.9 74.0899 199.94 74.0899C199.52 73.9499 199.1 74.0899 198.68 74.0899C197.14 74.5099 195.6 75.2099 194.2 76.1899C190.7 78.8499 188.46 82.4899 186.64 86.4099C186.22 87.2499 186.5 87.5299 187.48 87.5299C187.76 87.6699 187.9 87.5299 188.18 87.5299ZM272.474 79.6899C270.514 80.3899 268.974 80.9499 267.434 81.5099C257.494 85.2899 247.694 89.3499 238.174 93.6899C235.654 94.8099 235.934 94.5299 237.334 96.4899C238.174 97.8899 239.154 99.4299 239.154 101.25C239.154 103.49 238.174 105.03 236.074 105.87C235.094 106.29 233.974 106.57 232.714 106.57C229.494 106.43 226.274 105.87 223.194 104.61C221.654 104.05 220.394 103.21 219.554 101.81C218.434 100.13 218.714 98.8699 220.394 97.8899C222.354 96.6299 224.454 95.6499 226.414 94.5299C227.114 94.2499 227.674 93.8299 228.374 93.5499C229.214 92.9899 229.214 92.9899 228.654 92.1499C227.814 90.7499 226.974 89.3499 226.414 87.8099C224.314 82.7699 225.574 78.4299 229.914 75.2099C233.134 72.8299 236.634 71.2899 240.694 71.2899C244.614 71.2899 247.274 73.9499 247.274 77.8699C247.414 79.1299 246.994 80.2499 246.994 81.5099C246.854 82.7699 245.874 83.6099 244.614 83.6099C243.494 83.4699 242.514 82.4899 242.514 81.0899C242.514 80.8099 242.514 80.3899 242.654 80.1099C242.794 79.5499 242.934 78.9899 242.934 78.4299C243.214 76.6099 242.234 75.6299 240.554 75.4899C239.574 75.4899 238.594 75.7699 237.754 76.0499C235.794 76.4699 233.974 77.4499 232.434 78.7099C229.774 80.6699 229.214 83.0499 230.334 86.1299C230.894 87.6699 231.734 88.9299 232.714 90.1899C233.134 90.8899 233.694 91.0299 234.394 90.6099C237.614 89.2099 240.694 87.8099 243.914 86.4099C254.974 81.6499 266.174 77.3099 277.514 73.1099C279.334 72.5499 281.154 71.8499 282.974 71.1499C283.394 71.0099 283.954 70.7299 284.374 70.7299C285.634 70.4499 286.614 70.8699 287.034 71.8499C287.454 72.6899 287.174 73.8099 286.194 74.5099C285.774 74.9299 285.214 75.2099 284.654 75.4899C282.414 76.8899 280.174 78.4299 278.214 80.2499C277.374 80.9499 276.674 81.6499 275.974 82.4899C274.994 83.8899 274.854 84.7299 275.974 86.1299C276.534 86.8299 277.094 87.5299 277.794 88.0899C279.054 89.4899 280.314 90.7499 281.434 92.1499C282.134 92.9899 282.694 93.8299 283.254 94.8099C285.214 98.4499 284.234 102.23 280.874 104.47C278.354 106.15 275.694 106.85 272.754 106.43C267.574 105.73 262.534 104.19 257.914 101.81C256.514 101.11 255.254 100.27 254.274 99.0099C253.294 97.7499 253.154 96.3499 253.854 94.9499C254.414 93.9699 255.394 93.4099 256.234 93.5499C257.214 93.6899 257.914 94.3899 257.914 95.7899C257.914 96.6299 258.474 97.1899 259.174 97.6099C261.834 99.1499 264.634 100.13 267.574 100.97C269.254 101.53 271.074 101.95 272.894 102.09C274.574 102.37 276.254 102.09 277.794 101.25C279.894 100.27 280.454 98.5899 279.194 96.4899C278.214 94.8099 276.814 93.5499 275.554 92.1499C274.574 91.0299 273.454 90.0499 272.614 88.7899C270.654 86.1299 269.954 83.6099 272.194 80.3899C272.194 80.2499 272.334 80.1099 272.474 79.6899ZM224.594 100.55C226.414 101.39 228.094 101.81 229.774 101.95C231.174 102.09 232.434 102.51 233.834 102.09C234.814 101.67 234.954 101.53 234.674 100.55C234.114 99.2899 233.274 98.1699 232.294 97.0499C232.154 96.7699 231.734 96.6299 231.314 96.9099C229.214 98.0299 226.974 99.0099 224.594 100.55ZM325.675 97.1899C325.675 92.9899 326.655 89.3499 327.775 85.8499C328.475 83.3299 329.455 80.9499 330.295 78.5699C330.855 77.4499 331.275 76.3299 331.555 75.0699C331.835 74.3699 332.115 73.6699 332.675 73.1099C333.375 72.5499 334.215 72.4099 335.055 72.8299C335.755 73.1099 336.175 73.8099 336.175 74.6499C336.175 75.3499 336.035 75.9099 335.755 76.4699C334.915 78.8499 334.075 81.0899 333.095 83.3299C331.695 87.2499 330.575 91.1699 330.015 95.2299C329.875 96.6299 329.875 98.0299 330.295 99.4299C330.575 100.55 331.135 100.83 332.395 100.83C333.235 100.83 334.075 100.69 334.775 100.41C343.455 97.3299 351.855 93.8299 359.415 88.5099C359.695 88.2299 359.975 88.0899 360.255 87.9499C361.235 87.5299 362.075 87.8099 362.635 88.5099C363.195 89.3499 363.335 90.1899 362.775 91.0299C362.215 91.7299 361.515 92.1499 360.955 92.7099C357.315 95.2299 353.255 97.3299 349.335 99.1499C345.275 101.11 341.215 102.93 337.015 104.33C335.615 104.75 334.215 105.03 332.815 105.31C329.875 105.59 327.355 104.19 326.375 101.25C325.815 99.8499 325.675 98.3099 325.675 97.1899ZM342.335 58.2699C342.335 59.2499 341.915 59.9499 341.215 60.3699C340.515 60.6499 340.235 61.2099 339.955 61.9099C339.395 63.3099 338.835 64.7099 339.115 66.3899C339.395 67.3699 338.415 68.3499 337.435 68.6299C336.315 68.9099 335.195 68.4899 334.635 67.5099C334.355 66.8099 334.215 66.1099 334.355 65.2699C335.055 62.3299 336.175 59.3899 337.575 56.7299C337.715 56.1699 338.135 55.7499 338.555 55.4699C339.815 54.6299 341.495 55.0499 341.915 56.5899C342.195 57.1499 342.195 57.8499 342.335 58.2699ZM364.234 89.9099C365.074 88.7899 365.914 87.8099 366.754 86.8299C370.254 82.2099 374.314 78.0099 378.794 74.3699C379.634 73.5299 380.614 72.9699 381.454 72.2699C382.154 71.8499 382.714 71.5699 383.554 71.4299C385.514 70.8699 387.194 71.8499 387.614 73.8099C387.894 75.0699 387.894 76.1899 387.614 77.3099C387.054 81.2299 385.794 84.8699 384.954 88.6499C384.254 91.4499 383.694 94.2499 383.274 97.0499C383.134 98.1699 382.994 99.4299 383.134 100.55C383.414 101.81 383.974 102.23 385.234 101.95C386.774 101.67 388.314 101.11 389.854 100.27C396.154 97.0499 402.314 93.5499 408.474 89.9099C408.894 89.6299 409.454 89.2099 410.014 89.0699C411.134 88.6499 412.114 88.9299 412.674 89.7699C413.374 90.7499 413.094 91.8699 412.114 92.7099C410.574 93.6899 409.034 94.6699 407.494 95.5099C402.034 98.7299 396.434 101.95 390.694 104.75C388.734 105.59 386.634 106.29 384.534 106.29C381.874 106.29 380.054 105.03 379.214 102.51C378.654 100.97 378.654 99.4299 378.794 97.8899C379.354 92.1499 380.894 86.5499 382.434 80.9499C382.854 79.5499 383.134 78.1499 383.274 76.4699C382.434 76.7499 381.874 77.3099 381.314 77.8699C376.554 81.6499 372.634 86.1299 368.994 90.8899C365.634 95.0899 362.554 99.4299 359.614 103.91C359.194 104.61 358.634 105.31 358.074 105.87C357.234 106.85 356.114 107.13 355.134 106.71C354.294 106.15 353.734 105.17 354.014 103.91C354.154 102.79 354.574 101.67 354.994 100.55C356.954 95.5099 358.914 90.4699 361.154 85.4299C362.834 81.5099 364.654 77.5899 366.334 73.5299C366.474 73.3899 366.474 73.2499 366.614 72.9699C367.314 71.5699 368.574 71.0099 369.834 71.7099C370.954 72.2699 371.374 73.9499 370.674 75.0699C368.294 79.4099 366.614 84.1699 364.514 88.6499C364.374 88.9299 364.234 89.3499 364.094 89.7699C364.234 89.7699 364.234 89.7699 364.234 89.9099ZM453.054 152.49C454.034 150.81 455.014 149.13 455.854 147.45C460.054 139.75 464.254 132.05 468.454 124.49C474.194 114.13 480.214 103.91 486.514 93.9699C493.934 82.2099 501.634 70.5899 509.754 59.3899C511.294 57.1499 513.114 55.0499 514.934 53.0899C515.774 52.1099 516.754 51.2699 517.874 50.5699C520.254 49.4499 522.354 50.2899 523.194 52.8099C523.614 54.2099 523.614 55.6099 523.614 57.1499C523.054 62.3299 522.074 67.3699 520.954 72.5499C518.854 83.6099 516.334 94.6699 514.374 105.73C512.974 113.85 511.714 121.83 510.874 130.09C510.594 132.75 510.314 135.41 510.454 138.07C510.594 138.35 510.594 138.77 510.594 139.19C510.594 139.33 510.594 139.61 510.874 139.61C511.154 139.75 511.294 139.47 511.434 139.33C512.274 138.07 512.974 136.81 513.674 135.55C516.054 131.21 517.874 126.73 519.834 122.11C527.114 104.75 534.394 87.5299 541.394 70.0299C549.794 49.3099 557.914 28.3099 565.334 7.16989C565.894 5.62989 566.454 3.94989 566.874 2.26989C567.154 0.869892 568.274 0.169893 569.254 0.309891C570.514 0.589896 571.214 1.70989 571.074 3.10989C570.934 4.22989 570.514 5.34989 570.234 6.4699C567.294 15.1499 564.074 23.6899 560.854 32.2299C556.094 44.8299 551.334 57.2899 546.294 69.7499C539.154 87.1099 532.014 104.47 524.734 121.69C522.774 126.17 520.954 130.65 518.854 134.99C517.594 137.65 516.054 140.45 514.234 142.83C513.674 143.67 512.974 144.37 512.274 144.79C510.174 146.05 508.074 145.49 507.094 143.39C506.534 142.13 506.254 140.73 506.254 139.19C506.114 134.71 506.394 130.09 506.954 125.47C508.494 113.15 510.734 100.83 513.254 88.6499C515.074 79.5499 517.174 70.4499 518.574 61.2099C518.994 59.3899 519.274 57.5699 519.134 55.6099C518.574 55.4699 518.294 55.8899 518.014 56.1699C516.334 57.8499 514.794 59.6699 513.394 61.6299C499.394 81.0899 486.514 101.11 474.894 121.97C469.574 131.35 464.394 140.87 459.214 150.39C457.814 153.05 456.274 155.57 454.734 158.09C454.034 158.93 453.474 159.77 452.634 160.47C450.674 162.01 448.574 161.31 448.014 158.79C447.594 157.11 447.874 155.43 448.154 153.75C449.134 145.91 450.954 138.35 452.774 130.65C457.114 112.31 462.154 94.1099 467.614 75.9099C470.694 65.6899 473.914 55.6099 477.274 45.5299C479.794 37.8299 482.314 30.2699 484.134 22.2899C484.694 20.0499 484.974 17.6699 485.114 15.2899C485.254 14.5899 485.114 13.8899 484.974 13.1899C484.834 12.3499 484.414 12.2099 483.574 12.4899C482.454 12.7699 481.334 13.3299 480.354 14.0299C476.154 16.8299 472.234 19.9099 468.594 23.2699C460.474 30.5499 453.614 38.8099 448.014 48.0499C446.194 51.1299 444.654 54.2099 443.674 57.5699C443.114 59.2499 442.694 60.7899 442.834 62.4699C442.834 65.2699 444.654 67.0899 447.174 66.9499C447.734 66.9499 448.434 66.9499 448.994 67.3699C449.834 67.7899 450.254 68.6299 450.114 69.4699C449.974 70.3099 449.414 71.0099 448.434 71.1499C443.814 72.1299 439.194 68.7699 438.494 64.1499C438.214 61.6299 438.634 59.2499 439.334 56.8699C440.734 52.2499 442.974 47.9099 445.494 43.8499C450.394 36.1499 456.134 29.1499 462.714 22.8499C467.334 18.3699 472.234 14.3099 477.554 10.8099C478.674 9.96989 479.794 9.40989 480.914 8.84989C481.474 8.56989 482.034 8.42989 482.734 8.14989C485.954 7.30989 488.474 8.84989 489.174 12.0699C489.874 14.7299 489.454 17.2499 489.034 19.9099C488.054 25.6499 486.374 31.2499 484.554 36.8499C481.334 47.0699 477.974 57.1499 474.754 67.2299C470.414 81.2299 466.354 95.3699 462.574 109.51C459.634 120.43 456.974 131.35 454.594 142.27C453.894 145.35 453.474 148.29 452.914 151.37C452.774 151.65 452.774 151.93 452.774 152.35C452.914 152.35 453.054 152.35 453.054 152.49ZM591.307 96.9099C589.487 96.9099 587.807 97.0499 586.127 96.7699C584.447 96.4899 582.627 96.2099 581.087 95.3699C580.387 95.0899 579.967 95.2299 579.547 95.7899C578.007 97.7499 576.467 99.7099 574.647 101.39C572.547 103.35 570.307 105.17 567.787 106.29C566.667 106.85 565.547 107.27 564.287 107.41C561.347 107.97 558.687 106.71 557.287 103.91C556.587 102.51 556.167 100.97 556.167 99.4299C555.887 95.7899 556.587 92.4299 557.987 89.0699C559.807 84.0299 562.607 79.6899 566.527 76.1899C568.767 74.2299 571.147 72.8299 574.227 72.5499C576.887 72.2699 579.127 73.2499 580.947 75.2099C581.647 76.1899 581.647 77.4499 582.207 78.4299C582.767 79.4099 583.747 79.9699 584.167 81.0899C584.587 82.6299 584.587 84.1699 584.307 85.5699C584.027 87.1099 583.607 88.5099 583.047 89.7699C582.487 91.1699 582.627 91.4499 584.027 91.8699C585.707 92.4299 587.387 92.5699 588.927 92.5699C592.987 92.8499 597.047 92.4299 600.967 91.7299C602.507 91.4499 604.047 91.0299 605.447 90.3299C605.727 90.1899 605.867 90.0499 606.147 89.9099C607.267 89.6299 608.247 90.0499 608.807 90.8899C609.227 91.7299 609.087 92.8499 608.247 93.5499C607.687 93.9699 607.127 94.2499 606.427 94.5299C603.907 95.7899 601.107 96.2099 598.307 96.4899C595.927 96.9099 593.547 97.0499 591.307 96.9099ZM560.367 97.7499C560.367 99.0099 560.507 99.9899 560.787 100.97C561.347 102.79 562.187 103.35 564.007 103.07C565.687 102.79 567.087 101.95 568.347 100.97C571.427 98.8699 573.947 96.2099 576.047 93.2699C576.607 92.5699 576.747 92.0099 576.187 91.1699C573.667 87.5299 573.947 82.2099 577.167 79.1299C577.867 78.4299 577.727 78.0099 576.887 77.4499C575.767 76.6099 574.507 76.7499 573.107 77.0299C571.707 77.5899 570.447 78.4299 569.327 79.4099C565.967 82.6299 563.727 86.4099 562.047 90.6099C561.067 92.9899 560.507 95.5099 560.367 97.7499ZM579.827 82.9099C578.707 84.3099 578.567 85.8499 579.267 87.1099C580.247 85.0099 580.387 84.0299 579.827 82.9099ZM610.601 89.9099C611.441 88.7899 612.281 87.8099 613.121 86.8299C616.621 82.2099 620.681 78.0099 625.161 74.3699C626.001 73.5299 626.981 72.9699 627.821 72.2699C628.521 71.8499 629.081 71.5699 629.921 71.4299C631.881 70.8699 633.561 71.8499 633.981 73.8099C634.261 75.0699 634.261 76.1899 633.981 77.3099C633.421 81.2299 632.161 84.8699 631.321 88.6499C630.621 91.4499 630.061 94.2499 629.641 97.0499C629.501 98.1699 629.361 99.4299 629.501 100.55C629.781 101.81 630.341 102.23 631.601 101.95C633.141 101.67 634.681 101.11 636.221 100.27C642.521 97.0499 648.681 93.5499 654.841 89.9099C655.261 89.6299 655.821 89.2099 656.381 89.0699C657.501 88.6499 658.481 88.9299 659.041 89.7699C659.741 90.7499 659.461 91.8699 658.481 92.7099C656.941 93.6899 655.401 94.6699 653.861 95.5099C648.401 98.7299 642.801 101.95 637.061 104.75C635.101 105.59 633.001 106.29 630.901 106.29C628.241 106.29 626.421 105.03 625.581 102.51C625.021 100.97 625.021 99.4299 625.161 97.8899C625.721 92.1499 627.261 86.5499 628.801 80.9499C629.221 79.5499 629.501 78.1499 629.641 76.4699C628.801 76.7499 628.241 77.3099 627.681 77.8699C622.921 81.6499 619.001 86.1299 615.361 90.8899C612.001 95.0899 608.921 99.4299 605.981 103.91C605.561 104.61 605.001 105.31 604.441 105.87C603.601 106.85 602.481 107.13 601.501 106.71C600.661 106.15 600.101 105.17 600.381 103.91C600.521 102.79 600.941 101.67 601.361 100.55C603.321 95.5099 605.281 90.4699 607.521 85.4299C609.201 81.5099 611.021 77.5899 612.701 73.5299C612.841 73.3899 612.841 73.2499 612.981 72.9699C613.681 71.5699 614.941 71.0099 616.201 71.7099C617.321 72.2699 617.741 73.9499 617.041 75.0699C614.661 79.4099 612.981 84.1699 610.881 88.6499C610.741 88.9299 610.601 89.3499 610.461 89.7699C610.601 89.7699 610.601 89.7699 610.601 89.9099ZM675.747 91.3099C673.927 93.5499 671.967 95.7899 670.147 97.8899C668.047 100.27 665.947 102.51 663.427 104.47C662.587 105.03 661.747 105.45 660.767 105.73C658.527 106.01 656.567 104.89 655.447 102.65C654.607 100.83 654.327 98.8699 654.467 96.7699C655.307 89.0699 658.527 82.4899 664.127 77.0299C664.967 76.1899 666.087 75.3499 667.207 74.6499C670.567 72.4099 674.907 71.2899 679.107 75.4899C679.667 75.3499 679.527 74.9299 679.667 74.5099C683.167 62.7499 687.087 51.2699 691.987 40.0699C693.527 36.7099 695.067 33.4899 696.467 30.2699C696.747 29.5699 697.027 29.0099 697.587 28.4499C698.707 27.1899 700.387 27.1899 701.367 28.7299C701.927 29.2899 702.207 29.9899 702.767 30.5499C703.327 31.2499 703.467 31.9499 703.047 32.7899C702.627 33.4899 701.927 34.0499 701.087 33.9099C699.827 33.6299 699.407 34.1899 698.987 35.1699C693.667 46.2299 689.467 57.7099 685.827 69.3299C684.707 72.6899 683.867 76.1899 682.887 79.5499C682.607 80.2499 682.467 80.9499 682.607 81.5099C682.747 81.9299 682.607 82.3499 682.467 82.6299C680.507 87.6699 680.087 92.7099 680.227 98.0299C680.367 99.0099 680.507 99.8499 680.927 100.83C681.347 101.67 681.907 102.09 683.027 102.09C684.147 102.09 685.127 101.81 686.247 101.39C694.507 98.1699 702.347 94.3899 709.487 88.9299C709.907 88.6499 710.327 88.3699 710.747 88.0899C711.727 87.8099 712.707 88.0899 713.267 88.7899C713.827 89.6299 713.827 90.4699 713.267 91.3099C712.707 92.0099 712.147 92.4299 711.447 92.8499C706.547 96.6299 701.087 99.5699 695.487 102.23C692.827 103.49 690.027 104.61 687.227 105.59C685.827 106.01 684.287 106.43 682.607 106.43C679.807 106.29 677.987 105.03 676.867 102.51C676.167 100.69 675.887 98.5899 675.747 96.4899C675.747 95.3699 675.747 94.1099 675.887 92.9899C676.027 92.4299 676.027 91.8699 676.027 91.4499C675.887 91.4499 675.887 91.3099 675.747 91.3099ZM658.807 97.6099C658.947 98.4499 658.947 99.0099 658.947 99.5699C658.947 99.8499 659.087 99.9899 659.227 100.27C659.507 101.39 659.927 101.53 660.907 100.83C662.027 100.13 663.007 99.1499 663.987 98.1699C668.467 93.4099 672.527 88.3699 676.587 83.1899C676.867 82.9099 677.147 82.6299 677.007 82.0699C676.727 81.2299 676.587 80.2499 676.307 79.4099C675.607 77.7299 674.347 77.0299 672.387 77.1699C671.267 77.1699 670.287 77.7299 669.447 78.2899C666.507 80.2499 664.407 82.9099 662.587 85.8499C660.347 89.4899 659.087 93.5499 658.807 97.6099ZM722.904 105.59C720.944 105.73 718.984 105.45 717.024 104.89C711.984 103.35 708.904 99.4299 708.764 93.9699C708.624 91.8699 709.044 89.6299 709.744 87.5299C711.424 82.3499 714.224 77.8699 718.144 74.0899C720.384 71.9899 723.044 70.4499 726.124 69.8899C727.244 69.7499 728.224 69.6099 729.344 69.7499C733.404 70.4499 735.504 73.6699 734.384 77.8699C733.824 80.1099 732.564 82.0699 731.164 83.8899C727.804 87.9499 723.884 90.7499 718.704 91.7299C717.304 91.8699 716.044 91.8699 714.784 91.8699C713.384 91.8699 712.964 92.1499 713.104 93.4099C713.244 97.6099 714.784 99.9899 719.264 100.97C723.184 101.81 726.964 101.25 730.604 99.9899C736.624 98.0299 742.364 95.5099 748.244 92.9899C750.764 91.8699 753.424 90.7499 755.944 89.2099C756.224 88.9299 756.644 88.7899 757.064 88.7899C757.904 88.6499 758.604 88.9299 759.164 89.6299C759.584 90.3299 759.584 91.1699 759.024 92.0099C758.604 92.7099 757.904 93.1299 757.064 93.5499C754.544 94.9499 752.024 96.0699 749.364 97.1899C743.484 99.7099 737.744 102.23 731.724 104.19C728.924 105.03 725.984 105.73 722.904 105.59ZM716.324 87.5299C719.544 87.3899 722.204 86.2699 724.724 84.3099C727.104 82.3499 729.064 79.9699 730.184 77.0299C730.744 75.2099 730.044 74.0899 728.084 74.0899C727.664 73.9499 727.244 74.0899 726.824 74.0899C725.284 74.5099 723.744 75.2099 722.344 76.1899C718.844 78.8499 716.604 82.4899 714.784 86.4099C714.364 87.2499 714.644 87.5299 715.624 87.5299C715.904 87.6699 716.044 87.5299 716.324 87.5299ZM759.179 93.5499C760.019 92.2899 760.859 91.0299 761.839 89.7699C764.499 85.8499 767.579 82.0699 770.939 78.5699C771.919 77.4499 773.179 76.4699 774.439 75.6299C777.099 73.9499 779.339 74.5099 781.159 77.0299C781.299 77.1699 781.439 77.4499 781.719 77.7299C785.499 84.0299 791.659 86.1299 798.519 86.6899C799.639 86.8299 800.759 86.6899 801.879 86.2699C802.299 86.1299 802.719 85.9899 803.139 85.9899C804.119 85.8499 804.959 86.4099 805.379 87.2499C805.659 88.2299 805.379 89.0699 804.679 89.6299C804.259 90.0499 803.699 90.1899 803.279 90.3299C799.919 91.5899 796.699 91.3099 793.339 90.4699C789.979 89.6299 786.899 88.2299 783.959 86.4099C781.579 85.0099 779.899 82.9099 778.359 80.6699C777.239 78.8499 777.099 78.7099 775.419 80.2499C770.519 85.0099 766.319 90.4699 762.679 96.2099C760.579 99.5699 758.479 103.07 756.379 106.57C755.819 107.41 755.259 108.25 754.699 109.09C753.999 109.93 753.019 110.49 751.759 110.07C750.779 109.79 750.219 108.81 750.219 107.41C750.079 105.45 750.639 103.49 751.339 101.67C752.739 97.0499 754.559 92.5699 756.379 88.0899C757.779 84.4499 759.319 80.8099 760.859 77.1699C760.999 76.7499 760.999 76.4699 761.279 76.1899C761.979 75.0699 763.379 74.7899 764.499 75.4899C765.619 76.3299 766.039 77.7299 765.059 78.7099C764.219 79.8299 763.939 81.0899 763.379 82.2099C761.839 85.9899 760.439 89.7699 758.899 93.4099C758.899 93.5499 759.039 93.5499 759.179 93.5499ZM801.447 99.0099C801.447 95.2299 802.147 92.2899 802.847 89.3499C805.367 78.4299 808.867 67.7899 812.507 57.1499C814.887 50.1499 817.407 43.1499 820.347 36.4299C821.327 34.1899 822.167 31.9499 823.567 29.8499C823.847 29.2899 824.127 28.7299 824.687 28.4499C826.087 27.3299 827.767 27.7499 828.467 29.2899C828.747 29.9899 828.887 30.5499 829.307 31.1099C829.867 31.8099 830.007 32.5099 829.587 33.3499C829.167 34.1899 828.327 34.6099 827.487 34.4699C826.087 34.1899 825.667 35.0299 825.247 36.0099C822.167 42.8699 819.647 49.8699 817.127 57.0099C813.487 67.5099 810.127 78.0099 807.327 88.9299C806.627 91.7299 806.067 94.6699 805.787 97.6099C805.647 98.7299 805.647 99.9899 806.067 101.11C806.347 102.23 806.767 102.51 808.027 102.37C808.867 102.23 809.567 101.95 810.267 101.67C814.887 99.8499 819.227 97.4699 823.567 94.9499C826.787 92.9899 830.007 91.0299 833.227 89.0699C833.787 88.6499 834.347 88.3699 835.047 88.0899C836.027 87.8099 836.867 88.2299 837.427 89.0699C837.987 89.9099 837.847 90.7499 837.007 91.5899C836.867 91.8699 836.587 92.0099 836.167 92.2899C829.307 96.6299 822.447 100.97 815.027 104.33C812.927 105.31 810.827 106.29 808.587 106.71C805.787 107.27 803.547 106.15 802.287 103.63C801.447 101.95 801.307 100.13 801.447 99.0099ZM851.792 90.8899C850.952 92.0099 850.252 92.9899 849.412 93.9699C847.312 96.6299 845.212 99.2899 842.692 101.67C841.712 102.79 840.452 103.77 839.192 104.47C838.492 104.89 837.792 105.17 836.952 105.31C834.432 105.73 832.472 104.33 832.052 101.81C831.772 100.41 831.772 98.8699 832.052 97.4699C833.312 91.4499 835.412 85.7099 839.192 80.6699C841.292 77.8699 843.952 75.4899 847.312 73.9499C848.992 73.2499 850.672 72.8299 852.492 73.1099C854.172 73.3899 855.432 74.0899 856.552 75.3499C856.972 75.9099 857.252 76.0499 857.812 75.3499C859.212 74.0899 860.192 73.9499 861.172 74.6499C862.152 75.3499 862.432 76.4699 861.732 78.1499C860.612 80.8099 859.352 83.4699 858.232 86.1299C856.832 89.4899 855.852 92.8499 855.992 96.4899C855.992 97.4699 856.132 98.5899 856.692 99.4299C857.252 100.83 858.092 101.25 859.632 100.97C862.012 100.55 864.112 99.5699 866.352 98.5899C872.932 95.6499 879.372 92.4299 885.672 88.7899C886.232 88.5099 886.792 88.2299 887.352 88.0899C888.192 87.9499 889.172 88.3699 889.592 89.0699C890.012 89.9099 890.012 90.8899 889.312 91.5899C889.032 91.8699 888.612 92.1499 888.192 92.4299C880.772 96.6299 873.212 100.27 865.512 103.63C863.832 104.33 862.292 104.89 860.472 105.17C856.692 106.01 853.612 104.19 852.352 100.55C851.372 97.7499 851.372 94.9499 851.932 92.1499C851.932 91.7299 852.212 91.4499 851.792 90.8899ZM836.252 99.4299C836.392 99.8499 835.972 100.41 836.532 100.69C837.092 100.83 837.512 100.55 837.792 100.27C839.052 99.2899 840.032 98.3099 841.012 97.1899C844.512 93.4099 847.732 89.2099 850.812 85.0099C851.652 83.7499 852.632 82.6299 853.472 81.3699C854.452 79.6899 853.472 77.5899 851.512 77.4499C850.252 77.3099 849.272 77.7299 848.152 78.4299C846.052 79.5499 844.372 81.0899 842.832 83.0499C839.892 86.6899 838.352 90.8899 836.952 95.2299C836.672 96.6299 836.392 98.0299 836.252 99.4299ZM891.695 89.9099C892.535 88.7899 893.375 87.8099 894.215 86.8299C897.715 82.2099 901.775 78.0099 906.255 74.3699C907.095 73.5299 908.075 72.9699 908.915 72.2699C909.615 71.8499 910.175 71.5699 911.015 71.4299C912.975 70.8699 914.655 71.8499 915.075 73.8099C915.355 75.0699 915.355 76.1899 915.075 77.3099C914.515 81.2299 913.255 84.8699 912.415 88.6499C911.715 91.4499 911.155 94.2499 910.735 97.0499C910.595 98.1699 910.455 99.4299 910.595 100.55C910.875 101.81 911.435 102.23 912.695 101.95C914.235 101.67 915.775 101.11 917.315 100.27C923.615 97.0499 929.775 93.5499 935.935 89.9099C936.355 89.6299 936.915 89.2099 937.475 89.0699C938.595 88.6499 939.575 88.9299 940.135 89.7699C940.835 90.7499 940.555 91.8699 939.575 92.7099C938.035 93.6899 936.495 94.6699 934.955 95.5099C929.495 98.7299 923.895 101.95 918.155 104.75C916.195 105.59 914.095 106.29 911.995 106.29C909.335 106.29 907.515 105.03 906.675 102.51C906.115 100.97 906.115 99.4299 906.255 97.8899C906.815 92.1499 908.355 86.5499 909.895 80.9499C910.315 79.5499 910.595 78.1499 910.735 76.4699C909.895 76.7499 909.335 77.3099 908.775 77.8699C904.015 81.6499 900.095 86.1299 896.455 90.8899C893.095 95.0899 890.015 99.4299 887.075 103.91C886.655 104.61 886.095 105.31 885.535 105.87C884.695 106.85 883.575 107.13 882.595 106.71C881.755 106.15 881.195 105.17 881.475 103.91C881.615 102.79 882.035 101.67 882.455 100.55C884.415 95.5099 886.375 90.4699 888.615 85.4299C890.295 81.5099 892.115 77.5899 893.795 73.5299C893.935 73.3899 893.935 73.2499 894.075 72.9699C894.775 71.5699 896.035 71.0099 897.295 71.7099C898.415 72.2699 898.835 73.9499 898.135 75.0699C895.755 79.4099 894.075 84.1699 891.975 88.6499C891.835 88.9299 891.695 89.3499 891.555 89.7699C891.695 89.7699 891.695 89.7699 891.695 89.9099ZM956.841 91.3099C955.021 93.5499 953.061 95.7899 951.241 97.8899C949.141 100.27 947.041 102.51 944.521 104.47C943.681 105.03 942.841 105.45 941.861 105.73C939.621 106.01 937.661 104.89 936.541 102.65C935.701 100.83 935.421 98.8699 935.561 96.7699C936.401 89.0699 939.621 82.4899 945.221 77.0299C946.061 76.1899 947.181 75.3499 948.301 74.6499C951.661 72.4099 956.001 71.2899 960.201 75.4899C960.761 75.3499 960.621 74.9299 960.761 74.5099C964.261 62.7499 968.181 51.2699 973.081 40.0699C974.621 36.7099 976.161 33.4899 977.561 30.2699C977.841 29.5699 978.121 29.0099 978.681 28.4499C979.801 27.1899 981.481 27.1899 982.461 28.7299C983.021 29.2899 983.301 29.9899 983.861 30.5499C984.421 31.2499 984.561 31.9499 984.141 32.7899C983.721 33.4899 983.021 34.0499 982.181 33.9099C980.921 33.6299 980.501 34.1899 980.081 35.1699C974.761 46.2299 970.561 57.7099 966.921 69.3299C965.801 72.6899 964.961 76.1899 963.981 79.5499C963.701 80.2499 963.561 80.9499 963.701 81.5099C963.841 81.9299 963.701 82.3499 963.561 82.6299C961.601 87.6699 961.181 92.7099 961.321 98.0299C961.461 99.0099 961.601 99.8499 962.021 100.83C962.441 101.67 963.001 102.09 964.121 102.09C965.241 102.09 966.221 101.81 967.341 101.39C975.601 98.1699 983.441 94.3899 990.581 88.9299C991.001 88.6499 991.421 88.3699 991.841 88.0899C992.821 87.8099 993.801 88.0899 994.361 88.7899C994.921 89.6299 994.921 90.4699 994.361 91.3099C993.801 92.0099 993.241 92.4299 992.541 92.8499C987.641 96.6299 982.181 99.5699 976.581 102.23C973.921 103.49 971.121 104.61 968.321 105.59C966.921 106.01 965.381 106.43 963.701 106.43C960.901 106.29 959.081 105.03 957.961 102.51C957.261 100.69 956.981 98.5899 956.841 96.4899C956.841 95.3699 956.841 94.1099 956.981 92.9899C957.121 92.4299 957.121 91.8699 957.121 91.4499C956.981 91.4499 956.981 91.3099 956.841 91.3099ZM939.901 97.6099C940.041 98.4499 940.041 99.0099 940.041 99.5699C940.041 99.8499 940.181 99.9899 940.321 100.27C940.601 101.39 941.021 101.53 942.001 100.83C943.121 100.13 944.101 99.1499 945.081 98.1699C949.561 93.4099 953.621 88.3699 957.681 83.1899C957.961 82.9099 958.241 82.6299 958.101 82.0699C957.821 81.2299 957.681 80.2499 957.401 79.4099C956.701 77.7299 955.441 77.0299 953.481 77.1699C952.361 77.1699 951.381 77.7299 950.541 78.2899C947.601 80.2499 945.501 82.9099 943.681 85.8499C941.441 89.4899 940.181 93.5499 939.901 97.6099Z" fill="#FF6C6C"/>
</svg>
