<svg width="1181" height="149" viewBox="0 0 1181 149" fill="none" xmlns="http://www.w3.org/2000/svg">
<path d="M5.22979 119.5C4.95979 122.47 4.95979 125.17 5.22979 128.005C5.49979 129.49 5.76979 130.975 6.30979 132.325C7.25479 134.485 8.87479 135.7 11.3048 135.7C13.1948 135.7 14.9498 135.295 16.7048 134.62C20.4848 133.135 24.1298 131.11 27.5048 128.95C38.5748 122.2 49.1048 114.91 59.6348 107.35C67.4648 101.68 75.1598 95.875 82.7198 89.8C84.2048 88.72 85.6898 87.37 87.1748 86.155C87.7148 85.75 88.1198 85.345 88.7948 85.075C89.7398 84.67 90.5498 84.94 91.0898 85.615C91.6298 86.29 91.7648 87.235 91.3598 87.91C91.0898 88.45 90.5498 88.855 90.1448 89.125C79.3448 98.17 68.0048 106.405 56.5298 114.64C47.8898 120.715 39.1148 126.79 30.0698 132.325C26.4248 134.62 22.7798 136.78 18.7298 138.265C16.4348 139.21 14.2748 139.885 11.8448 139.885C8.06479 140.02 5.09479 138.67 3.20479 135.295C1.71979 132.865 1.17979 130.03 1.04479 127.33C0.639785 122.335 1.04479 117.475 1.85479 112.615C5.63479 91.15 13.5998 71.17 23.3198 51.865C28.1798 42.415 33.5798 33.37 39.9248 25C44.3798 19.06 49.2398 13.66 55.0448 9.07C59.3648 5.69499 63.9548 2.995 69.3548 1.645C72.4598 0.969991 75.4298 0.969991 78.3998 2.04999C82.7198 3.67 85.1498 7.04499 86.2298 11.365C86.7698 13.12 86.9048 15.01 86.7698 16.765C86.6348 18.25 86.6348 19.6 86.4998 20.95C86.3648 22.3 85.6898 23.11 84.6098 23.245C83.5298 23.245 82.5848 22.57 82.3148 21.22C82.1798 20.545 82.1798 19.87 82.3148 19.195C82.3148 17.845 82.5848 16.495 82.5848 15.01C82.5848 12.58 81.9098 10.285 80.2898 8.39499C78.2648 5.82999 75.4298 5.15499 72.3248 5.425C69.4898 5.69499 66.7898 6.64 64.3598 7.99C58.6898 10.96 54.0998 15.145 49.7798 19.735C44.7848 25.135 40.4648 31.075 36.5498 37.285C25.7498 54.16 17.6498 72.385 11.4398 91.42C9.27979 98.17 7.38979 105.055 6.17479 112.075C5.76979 114.505 5.36479 117.07 5.22979 119.5ZM110.162 73.195C109.217 73.33 108.812 73.735 108.407 74.14C104.087 77.38 100.577 81.43 97.3367 85.615C93.4217 90.745 89.7767 95.875 86.5367 101.275C86.2667 101.815 85.9967 102.22 85.5917 102.625C84.9167 103.435 84.1067 103.57 83.2967 103.165C82.4867 102.895 82.0817 102.085 82.0817 101.14C82.2167 100.735 82.2167 100.33 82.4867 99.925C86.8067 88.72 90.8567 77.515 95.4467 66.445C100.712 53.89 106.112 41.47 111.512 28.915C111.782 27.97 112.322 27.16 112.727 26.35C113.267 25.405 114.077 25 115.157 25.135C116.102 25.27 116.642 25.945 116.912 26.89C117.047 27.295 117.182 27.565 117.452 27.97C118.397 29.725 117.992 31.21 115.967 31.75C114.752 32.02 114.347 32.83 113.942 33.775C110.972 40.66 108.137 47.545 105.167 54.295C101.252 63.34 97.4717 72.385 93.9617 81.43C93.6917 82.24 93.4217 82.915 93.1517 83.59C93.2867 83.725 93.4217 83.725 93.4217 83.725C93.9617 83.05 94.6367 82.375 95.1767 81.7C98.4167 77.515 101.927 73.735 106.112 70.495C107.192 69.685 108.272 69.01 109.487 68.605C112.322 67.66 114.482 69.145 114.617 72.115C114.617 73.87 114.212 75.49 113.807 77.11C112.727 81.295 111.512 85.345 110.567 89.665C110.432 90.475 110.297 91.285 110.162 92.095C110.027 93.04 110.027 93.985 110.162 94.93C110.297 97.36 111.242 98.035 113.672 97.225C120.422 95.065 126.902 92.365 132.707 88.585C133.652 87.91 134.597 87.235 135.407 86.56C135.947 86.29 136.352 85.885 136.892 85.75C137.702 85.48 138.512 85.615 139.187 86.425C139.727 87.1 139.727 87.91 139.322 88.72C139.052 89.125 138.647 89.395 138.242 89.665C135.947 91.555 133.382 93.175 130.817 94.525C125.957 97.225 120.962 99.25 115.832 101.005C114.752 101.41 113.672 101.68 112.592 101.815C110.432 102.085 108.677 101.275 107.462 99.52C106.247 97.765 105.707 95.74 105.842 93.58C105.977 91.42 106.382 89.395 106.787 87.235C107.732 83.59 108.677 79.945 109.757 76.165C109.892 75.22 110.297 74.275 110.162 73.195ZM139.51 89.395C140.32 88.18 141.13 86.965 142.075 85.75C144.64 81.97 147.61 78.325 150.85 74.95C151.795 73.87 153.01 72.925 154.225 72.115C156.79 70.495 158.95 71.035 160.705 73.465C160.84 73.6 160.975 73.87 161.245 74.14C164.89 80.215 170.83 82.24 177.445 82.78C178.525 82.915 179.605 82.78 180.685 82.375C181.09 82.24 181.495 82.105 181.9 82.105C182.845 81.97 183.655 82.51 184.06 83.32C184.33 84.265 184.06 85.075 183.385 85.615C182.98 86.02 182.44 86.155 182.035 86.29C178.795 87.505 175.69 87.235 172.45 86.425C169.21 85.615 166.24 84.265 163.405 82.51C161.11 81.16 159.49 79.135 158.005 76.975C156.925 75.22 156.79 75.085 155.17 76.57C150.445 81.16 146.395 86.425 142.885 91.96C140.86 95.2 138.835 98.575 136.81 101.95C136.27 102.76 135.73 103.57 135.19 104.38C134.515 105.19 133.57 105.73 132.355 105.325C131.41 105.055 130.87 104.11 130.87 102.76C130.735 100.87 131.275 98.98 131.95 97.225C133.3 92.77 135.055 88.45 136.81 84.13C138.16 80.62 139.645 77.11 141.13 73.6C141.265 73.195 141.265 72.925 141.535 72.655C142.21 71.575 143.56 71.305 144.64 71.98C145.72 72.79 146.125 74.14 145.18 75.085C144.37 76.165 144.1 77.38 143.56 78.46C142.075 82.105 140.725 85.75 139.24 89.26C139.24 89.395 139.375 89.395 139.51 89.395ZM180.674 92.905C180.674 88.855 181.619 85.345 182.699 81.97C183.374 79.54 184.319 77.245 185.129 74.95C185.669 73.87 186.074 72.79 186.344 71.575C186.614 70.9 186.884 70.225 187.424 69.685C188.099 69.145 188.909 69.01 189.719 69.415C190.394 69.685 190.799 70.36 190.799 71.17C190.799 71.845 190.664 72.385 190.394 72.925C189.584 75.22 188.774 77.38 187.829 79.54C186.479 83.32 185.399 87.1 184.859 91.015C184.724 92.365 184.724 93.715 185.129 95.065C185.399 96.145 185.939 96.415 187.154 96.415C187.964 96.415 188.774 96.28 189.449 96.01C197.819 93.04 205.919 89.665 213.209 84.535C213.479 84.265 213.749 84.13 214.019 83.995C214.964 83.59 215.774 83.86 216.314 84.535C216.854 85.345 216.989 86.155 216.449 86.965C215.909 87.64 215.234 88.045 214.694 88.585C211.184 91.015 207.269 93.04 203.489 94.795C199.574 96.685 195.659 98.44 191.609 99.79C190.259 100.195 188.909 100.465 187.559 100.735C184.724 101.005 182.294 99.655 181.349 96.82C180.809 95.47 180.674 93.985 180.674 92.905ZM196.739 55.375C196.739 56.32 196.334 56.995 195.659 57.4C194.984 57.67 194.714 58.21 194.444 58.885C193.904 60.235 193.364 61.585 193.634 63.205C193.904 64.15 192.959 65.095 192.014 65.365C190.934 65.635 189.854 65.23 189.314 64.285C189.044 63.61 188.909 62.935 189.044 62.125C189.719 59.29 190.799 56.455 192.149 53.89C192.284 53.35 192.689 52.945 193.094 52.675C194.309 51.865 195.929 52.27 196.334 53.755C196.604 54.295 196.604 54.97 196.739 55.375ZM267.536 51.325C261.191 52 255.251 52.945 249.176 54.295C243.776 55.375 238.511 56.86 233.381 58.75C232.436 59.155 231.491 59.425 231.491 60.775V60.91C231.086 62.26 230.006 62.53 228.791 62.665C227.306 62.665 226.091 62.26 225.416 60.91C224.876 59.965 225.146 58.885 226.091 57.94C226.631 57.265 227.441 56.86 228.116 56.455C231.896 54.7 235.946 53.485 239.996 52.27C248.231 49.975 256.466 48.49 264.971 47.41C266.726 47.14 268.346 47.005 270.101 46.735C271.046 46.735 271.856 46.33 272.531 45.52C275.231 41.875 277.931 38.095 280.496 34.315C281.036 33.64 281.441 32.965 282.116 32.425C282.926 31.75 283.736 31.615 284.546 32.02C285.356 32.56 285.896 33.505 285.626 34.45C285.491 34.99 285.356 35.53 285.086 36.07C284.006 38.635 282.926 41.335 281.846 43.9C281.711 44.17 281.576 44.575 281.576 44.845C281.306 45.655 281.441 45.925 282.116 45.79C284.411 45.52 286.841 45.655 289.136 45.655C293.861 45.52 298.721 45.52 303.446 45.655C308.576 45.79 313.706 46.06 318.836 46.465C323.696 46.735 328.556 47.275 333.416 48.085C335.171 48.355 336.926 48.76 338.546 49.435C339.491 49.975 340.301 50.515 340.841 51.46C341.516 52.405 341.381 53.35 340.841 54.295C340.166 55.645 338.141 55.78 337.601 54.565C336.791 53.08 335.576 52.81 334.226 52.405C331.526 51.865 328.826 51.46 326.126 51.19C318.026 50.38 310.061 50.11 302.096 49.84C297.506 49.705 293.051 49.705 288.461 49.705C286.031 49.705 283.466 49.975 280.901 49.975C279.821 49.975 279.146 50.38 278.741 51.46C277.796 54.025 276.716 56.455 275.771 59.02C269.021 75.625 262.676 92.365 257.276 109.375C253.631 120.445 250.526 131.515 248.501 142.99C248.366 143.8 248.231 144.61 248.366 145.42C248.366 146.5 247.826 147.31 246.746 147.58C245.666 147.85 244.721 147.31 244.316 146.365C243.911 145.555 243.911 144.745 244.046 143.935C244.721 139.48 245.801 135.16 246.746 130.84C249.581 118.285 253.901 106.135 257.951 93.985C262.271 81.16 267.266 68.74 272.261 56.185C272.936 54.7 273.611 53.08 274.286 51.46C274.421 51.19 274.421 50.92 274.286 50.785C273.881 50.515 273.611 50.785 273.476 50.92C272.396 52.135 271.451 53.35 270.506 54.565C263.756 62.8 256.736 70.63 249.041 77.92C241.886 84.67 234.191 90.745 225.821 95.875C224.471 96.685 224.471 96.685 224.741 98.17C224.741 98.305 224.876 98.575 224.876 98.71C225.281 102.76 223.391 104.785 219.881 105.325C218.531 105.46 217.181 105.325 215.831 104.92C213.806 104.38 211.916 103.705 210.026 102.895C209.486 102.625 208.946 102.355 208.541 102.085C207.326 100.735 207.461 99.115 209.081 98.305C209.891 97.9 210.836 97.765 211.781 97.63C213.806 97.225 215.831 96.415 217.721 95.47C218.531 95.065 218.531 94.93 217.991 94.12C216.776 92.23 215.561 90.475 214.346 88.585C213.266 87.1 212.456 85.48 212.051 83.725C209.756 75.355 216.236 67.525 224.876 68.335C227.036 68.47 229.061 69.415 230.816 70.765C232.841 72.52 233.516 74.95 233.111 77.515C232.841 79.54 232.166 81.295 230.816 82.915C230.411 83.455 229.736 83.995 228.926 84.13C227.981 84.265 227.171 83.86 226.766 83.05C226.361 82.24 226.361 81.43 227.036 80.89C227.981 79.81 228.656 78.595 228.926 77.245C229.331 75.49 228.926 74.275 227.171 73.33C224.876 72.115 222.581 71.98 220.151 73.33C217.856 74.68 216.101 76.435 215.696 79.27C215.561 81.16 215.966 82.915 216.911 84.67C218.261 87.37 220.151 89.8 221.906 92.365C222.311 93.04 222.851 92.77 223.391 92.5C225.551 91.15 227.576 89.8 229.736 88.315C239.051 81.7 247.556 74.14 255.386 65.635C259.166 61.45 262.946 57.13 266.591 52.81C266.861 52.405 267.266 52 267.536 51.325ZM216.506 100.6C217.856 101.14 218.801 101.275 219.476 101.14C220.421 100.87 220.826 100.33 220.691 99.385C220.556 98.98 220.286 98.845 220.016 98.98C218.936 99.52 217.856 100.06 216.506 100.6ZM315.219 81.835C313.869 82.51 312.789 83.59 311.709 84.535C308.064 87.775 304.554 91.15 301.179 94.525C299.964 95.74 298.749 96.955 297.399 98.035C296.994 98.305 296.589 98.575 296.184 98.845C294.294 99.52 292.674 98.575 292.404 96.55C292.269 94.93 292.674 93.445 293.214 91.96C294.294 88.585 295.644 85.345 296.994 82.105C297.264 81.565 297.534 81.16 297.534 80.35C296.724 80.89 296.319 81.43 295.914 81.97C291.864 87.235 287.814 92.635 283.629 97.9C282.684 99.115 281.739 100.195 280.659 101.275C279.444 102.49 278.229 102.76 277.149 102.22C276.069 101.68 275.394 100.33 275.664 98.71C276.204 95.47 277.149 92.23 278.094 89.125C279.714 83.995 281.739 79.135 284.034 74.41C284.304 73.735 284.574 73.06 284.709 72.25C284.844 71.44 285.249 70.765 285.789 70.225C286.464 69.55 287.274 69.415 288.084 69.82C289.029 70.225 289.434 70.9 289.299 71.845C289.299 72.79 288.894 73.735 288.489 74.545C286.599 78.73 284.709 82.915 283.224 87.235C282.549 89.26 281.874 91.285 281.199 93.31C281.199 93.445 281.064 93.715 281.334 93.985C282.414 92.635 283.359 91.42 284.439 90.07C287.544 86.02 290.649 81.835 294.024 77.785C295.374 76.165 296.994 74.545 298.614 73.06C299.154 72.52 299.829 71.98 300.639 71.71C302.394 71.17 304.014 72.25 304.149 74.14C304.149 75.085 303.879 75.895 303.609 76.705C302.529 80.08 301.044 83.185 299.694 86.56C299.154 87.91 298.614 89.26 298.074 90.745C297.939 91.015 297.669 91.285 298.074 91.69C298.614 91.42 298.884 90.88 299.289 90.475C303.204 86.695 306.984 82.915 311.169 79.54C312.519 78.46 313.869 77.38 315.624 76.975C317.784 76.57 319.539 77.785 319.809 79.945C319.944 81.43 319.809 82.915 319.404 84.4C318.864 86.695 318.324 88.99 317.919 91.285C317.649 92.905 317.244 94.525 317.649 96.145C318.054 97.495 318.324 97.765 319.674 97.765C321.429 97.63 322.914 97.09 324.264 96.28C330.339 92.905 336.279 89.395 341.814 85.345C343.164 84.4 344.244 84.4 345.054 85.21C345.864 86.155 345.729 87.505 344.514 88.585C343.704 89.125 343.029 89.665 342.219 90.205C337.224 93.58 332.229 96.685 326.964 99.52C324.939 100.735 322.644 101.545 320.349 101.95C316.974 102.355 314.409 100.735 313.599 97.495C313.059 95.065 313.329 92.635 313.869 90.34C314.274 88.045 314.814 85.75 315.354 83.455C315.354 83.05 315.624 82.51 315.219 81.835ZM359.202 86.83C358.392 87.91 357.717 88.855 356.907 89.8C354.882 92.365 352.857 94.93 350.427 97.225C349.482 98.305 348.267 99.25 347.052 99.925C346.377 100.33 345.702 100.6 344.892 100.735C342.462 101.14 340.572 99.79 340.167 97.36C339.897 96.01 339.897 94.525 340.167 93.175C341.382 87.37 343.407 81.835 347.052 76.975C349.077 74.275 351.642 71.98 354.882 70.495C356.502 69.82 358.122 69.415 359.877 69.685C361.497 69.955 362.712 70.63 363.792 71.845C364.197 72.385 364.467 72.52 365.007 71.845C366.357 70.63 367.302 70.495 368.247 71.17C369.192 71.845 369.462 72.925 368.787 74.545C367.707 77.11 366.492 79.675 365.412 82.24C364.062 85.48 363.117 88.72 363.252 92.23C363.252 93.175 363.387 94.255 363.927 95.065C364.467 96.415 365.277 96.82 366.762 96.55C369.057 96.145 371.082 95.2 373.242 94.255C379.587 91.42 385.797 88.315 391.872 84.805C392.412 84.535 392.952 84.265 393.492 84.13C394.302 83.995 395.247 84.4 395.652 85.075C396.057 85.885 396.057 86.83 395.382 87.505C395.112 87.775 394.707 88.045 394.302 88.315C387.147 92.365 379.857 95.875 372.432 99.115C370.812 99.79 369.327 100.33 367.572 100.6C363.927 101.41 360.957 99.655 359.742 96.145C358.797 93.445 358.797 90.745 359.337 88.045C359.337 87.64 359.607 87.37 359.202 86.83ZM344.217 95.065C344.352 95.47 343.947 96.01 344.487 96.28C345.027 96.415 345.432 96.145 345.702 95.875C346.917 94.93 347.862 93.985 348.807 92.905C352.182 89.26 355.287 85.21 358.257 81.16C359.067 79.945 360.012 78.865 360.822 77.65C361.767 76.03 360.822 74.005 358.932 73.87C357.717 73.735 356.772 74.14 355.692 74.815C353.667 75.895 352.047 77.38 350.562 79.27C347.727 82.78 346.242 86.83 344.892 91.015C344.622 92.365 344.352 93.715 344.217 95.065ZM399.165 93.715C397.95 92.23 396.6 90.745 395.25 89.26C394.17 87.91 393.09 86.56 392.145 85.075C388.905 80.08 390.66 75.625 393.9 72.52C396.195 70.225 399.165 68.74 402.54 68.2C404.835 67.93 407.13 68.335 409.155 69.55C412.53 71.44 413.61 75.355 411.99 78.865C411.585 79.81 410.91 80.755 410.1 81.565C409.695 81.97 409.29 82.24 408.75 82.375C407.805 82.645 406.995 82.375 406.455 81.565C405.915 80.89 406.05 80.08 406.455 79.27C406.725 78.865 407.13 78.595 407.4 78.19C409.425 76.03 408.615 73.33 405.915 72.52C404.7 72.25 403.62 72.25 402.54 72.52C399.975 73.06 397.815 74.275 396.06 76.3C394.305 78.325 394.17 80.485 395.52 82.78C396.87 84.94 398.625 86.695 400.245 88.585C401.46 89.8 402.54 91.015 403.485 92.365C404.025 93.04 404.43 93.175 405.24 93.04C414.015 91.285 422.655 89.26 431.16 86.56C432.375 86.155 433.59 85.615 434.805 85.21C436.695 84.4 437.775 84.67 438.315 85.885C438.855 87.235 438.18 88.18 436.29 88.99C433.05 90.475 429.54 91.42 426.03 92.5C419.955 94.12 413.88 95.605 407.67 96.685C406.455 96.955 405.78 97.36 405.51 98.575C405.105 100.33 403.89 101.41 402.135 101.815C398.625 102.625 395.115 102.085 391.74 100.735C391.065 100.465 390.66 100.06 390.255 99.655C389.445 98.44 389.58 97.09 390.66 96.145C391.2 95.605 392.01 95.335 392.82 95.065C394.575 94.525 396.465 94.39 398.22 94.12C398.49 94.12 398.895 94.12 399.165 93.715ZM395.79 98.17C400.245 94.93 401.865 100.6 395.79 98.17V98.17ZM497.533 86.83C499.018 86.83 500.638 86.83 502.123 86.56C504.148 86.29 506.038 85.885 507.793 84.94C509.278 84.265 510.493 84.535 511.033 85.75C511.573 86.83 511.033 87.91 509.548 88.72C507.253 89.935 504.688 90.61 502.123 90.88C497.398 91.285 492.808 91.015 488.218 90.205C486.598 89.8 484.978 89.26 483.358 88.45C482.413 87.91 482.413 87.91 481.738 88.855C480.253 91.15 478.633 93.31 476.878 95.47C475.393 97.225 473.773 98.98 471.883 100.465C470.938 101.14 469.993 101.68 468.913 102.085C466.348 103.03 463.918 102.085 462.568 99.52C461.893 98.035 461.623 96.415 461.488 94.66C461.353 91.015 461.893 87.37 462.568 83.725C463.243 79.405 464.188 75.22 465.268 70.9C465.403 70.495 465.538 69.955 465.808 69.55C466.348 68.605 467.158 68.2 468.103 68.335C468.913 68.605 469.588 69.28 469.723 70.225C469.858 70.765 469.723 71.305 469.588 71.845C468.103 76.165 467.293 80.62 466.483 85.21C466.078 87.505 465.943 89.935 465.673 92.23C465.538 93.85 465.673 95.605 466.213 97.09C466.618 98.305 467.023 98.44 468.103 97.9C469.723 96.955 471.073 95.74 472.288 94.39C474.853 91.69 476.878 88.72 478.903 85.75C479.308 84.94 479.308 84.4 479.038 83.59C477.013 78.865 477.823 74.545 480.658 70.495C481.063 69.955 481.603 69.415 482.278 69.01C484.708 67.39 487.543 68.605 487.948 71.71C488.083 72.925 488.083 74.275 487.813 75.625C487.273 78.055 486.463 80.485 485.248 82.78C484.573 84.265 484.708 84.4 486.058 85.075C487.138 85.615 488.353 85.885 489.568 86.155C492.133 86.56 494.833 86.965 497.533 86.83ZM483.763 73.6C482.548 75.22 482.008 77.245 482.413 78.73C483.223 77.11 483.628 75.49 483.763 73.6ZM507.232 92.905C507.232 88.855 508.177 85.345 509.257 81.97C509.932 79.54 510.877 77.245 511.687 74.95C512.227 73.87 512.632 72.79 512.902 71.575C513.172 70.9 513.442 70.225 513.982 69.685C514.657 69.145 515.467 69.01 516.277 69.415C516.952 69.685 517.357 70.36 517.357 71.17C517.357 71.845 517.222 72.385 516.952 72.925C516.142 75.22 515.332 77.38 514.387 79.54C513.037 83.32 511.957 87.1 511.417 91.015C511.282 92.365 511.282 93.715 511.687 95.065C511.957 96.145 512.497 96.415 513.712 96.415C514.522 96.415 515.332 96.28 516.007 96.01C524.377 93.04 532.477 89.665 539.767 84.535C540.037 84.265 540.307 84.13 540.577 83.995C541.522 83.59 542.332 83.86 542.872 84.535C543.412 85.345 543.547 86.155 543.007 86.965C542.467 87.64 541.792 88.045 541.252 88.585C537.742 91.015 533.827 93.04 530.047 94.795C526.132 96.685 522.217 98.44 518.167 99.79C516.817 100.195 515.467 100.465 514.117 100.735C511.282 101.005 508.852 99.655 507.907 96.82C507.367 95.47 507.232 93.985 507.232 92.905ZM523.297 55.375C523.297 56.32 522.892 56.995 522.217 57.4C521.542 57.67 521.272 58.21 521.002 58.885C520.462 60.235 519.922 61.585 520.192 63.205C520.462 64.15 519.517 65.095 518.572 65.365C517.492 65.635 516.412 65.23 515.872 64.285C515.602 63.61 515.467 62.935 515.602 62.125C516.277 59.29 517.357 56.455 518.707 53.89C518.842 53.35 519.247 52.945 519.652 52.675C520.867 51.865 522.487 52.27 522.892 53.755C523.162 54.295 523.162 54.97 523.297 55.375ZM544.413 85.885C545.223 84.805 546.033 83.86 546.843 82.915C550.218 78.46 554.133 74.41 558.453 70.9C559.263 70.09 560.208 69.55 561.018 68.875C561.693 68.47 562.233 68.2 563.043 68.065C564.933 67.525 566.553 68.47 566.958 70.36C567.228 71.575 567.228 72.655 566.958 73.735C566.418 77.515 565.203 81.025 564.393 84.67C563.718 87.37 563.178 90.07 562.773 92.77C562.638 93.85 562.503 95.065 562.638 96.145C562.908 97.36 563.448 97.765 564.663 97.495C566.148 97.225 567.633 96.685 569.118 95.875C575.193 92.77 581.133 89.395 587.073 85.885C587.478 85.615 588.018 85.21 588.558 85.075C589.638 84.67 590.583 84.94 591.123 85.75C591.798 86.695 591.528 87.775 590.583 88.585C589.098 89.53 587.613 90.475 586.128 91.285C580.863 94.39 575.463 97.495 569.928 100.195C568.038 101.005 566.013 101.68 563.988 101.68C561.423 101.68 559.668 100.465 558.858 98.035C558.318 96.55 558.318 95.065 558.453 93.58C558.993 88.045 560.478 82.645 561.963 77.245C562.368 75.895 562.638 74.545 562.773 72.925C561.963 73.195 561.423 73.735 560.883 74.275C556.293 77.92 552.513 82.24 549.003 86.83C545.763 90.88 542.793 95.065 539.958 99.385C539.553 100.06 539.013 100.735 538.473 101.275C537.663 102.22 536.583 102.49 535.638 102.085C534.828 101.545 534.288 100.6 534.558 99.385C534.693 98.305 535.098 97.225 535.503 96.145C537.393 91.285 539.283 86.425 541.443 81.565C543.063 77.785 544.818 74.005 546.438 70.09C546.573 69.955 546.573 69.82 546.708 69.55C547.383 68.2 548.598 67.66 549.813 68.335C550.893 68.875 551.298 70.495 550.623 71.575C548.328 75.76 546.708 80.35 544.683 84.67C544.548 84.94 544.413 85.345 544.278 85.75C544.413 85.75 544.413 85.75 544.413 85.885ZM600.348 48.49C598.323 48.355 596.433 48.76 594.543 48.895C589.278 49.435 583.878 50.11 578.613 50.92C575.238 51.595 571.863 52.27 568.488 53.215C567.678 53.35 567.003 53.755 566.463 54.43C565.383 55.78 562.548 55.78 561.333 54.565C560.523 53.62 560.658 52.27 561.738 51.325C562.548 50.785 563.493 50.515 564.303 50.11C567.678 49.03 571.053 48.22 574.563 47.545C580.368 46.33 586.173 45.655 591.978 44.98C595.083 44.71 598.053 44.44 601.023 44.17C601.968 44.035 602.238 43.495 602.508 42.82C603.453 39.985 604.668 37.15 605.883 34.45C606.963 32.155 608.043 29.86 609.393 27.565C609.663 27.025 610.068 26.485 610.608 26.08C611.823 24.865 613.578 25.27 614.253 26.89C614.388 27.43 614.523 27.97 614.523 28.645C614.523 29.32 614.523 30.13 614.658 30.805C614.793 32.425 613.848 33.64 612.228 33.37C611.148 33.235 610.743 33.775 610.338 34.585C609.258 37.015 608.313 39.445 607.368 41.875C607.098 42.28 606.828 42.82 606.963 43.36C607.503 43.63 608.043 43.495 608.448 43.495C613.578 42.955 618.843 42.82 623.973 42.415C626.268 42.28 628.563 42.145 630.723 42.145C635.583 41.875 640.443 41.74 645.303 41.875C649.893 41.875 654.483 41.875 658.938 42.685C660.828 42.955 662.718 43.225 664.473 44.035C665.553 44.575 666.498 45.25 666.903 46.465C667.308 47.545 666.903 48.625 666.093 49.165C665.148 49.705 664.203 49.57 663.393 48.625C662.718 47.815 662.043 47.545 661.233 47.275C659.478 46.87 657.588 46.6 655.833 46.465C652.323 46.06 648.813 46.06 645.303 46.06C641.253 46.06 637.338 46.06 633.288 46.195C628.428 46.465 623.433 46.6 618.573 47.005C615.063 47.275 611.553 47.41 608.043 47.68C605.073 47.815 605.073 47.815 604.128 50.515C601.428 58.075 598.593 65.635 596.163 73.465C594.408 79.135 592.788 84.805 591.708 90.61C591.303 92.635 591.033 94.795 591.168 96.82C591.168 99.25 591.573 99.52 593.868 98.845C596.703 98.17 599.403 97.09 602.238 95.875C608.718 93.04 615.063 89.665 620.733 85.21C622.083 84.13 623.433 84.13 624.243 85.21C625.053 86.155 624.648 87.37 623.298 88.45C620.463 90.88 617.358 92.905 614.118 94.66C608.448 97.765 602.643 100.6 596.433 102.49C595.218 102.895 594.003 103.165 592.788 103.3C590.088 103.705 588.063 102.355 587.253 99.79C586.713 97.765 586.713 95.74 586.983 93.715C587.388 89.125 588.603 84.535 589.818 80.08C592.653 70.09 596.163 60.505 599.538 50.785C599.808 50.11 600.078 49.435 600.348 48.49ZM637.508 86.83C636.698 87.91 636.023 88.855 635.213 89.8C633.188 92.365 631.163 94.93 628.733 97.225C627.788 98.305 626.573 99.25 625.358 99.925C624.683 100.33 624.008 100.6 623.198 100.735C620.768 101.14 618.878 99.79 618.473 97.36C618.203 96.01 618.203 94.525 618.473 93.175C619.688 87.37 621.713 81.835 625.358 76.975C627.383 74.275 629.948 71.98 633.188 70.495C634.808 69.82 636.428 69.415 638.183 69.685C639.803 69.955 641.018 70.63 642.098 71.845C642.503 72.385 642.773 72.52 643.313 71.845C644.663 70.63 645.608 70.495 646.553 71.17C647.498 71.845 647.768 72.925 647.093 74.545C646.013 77.11 644.798 79.675 643.718 82.24C642.368 85.48 641.423 88.72 641.558 92.23C641.558 93.175 641.693 94.255 642.233 95.065C642.773 96.415 643.583 96.82 645.068 96.55C647.363 96.145 649.388 95.2 651.548 94.255C657.893 91.42 664.103 88.315 670.178 84.805C670.718 84.535 671.258 84.265 671.798 84.13C672.608 83.995 673.553 84.4 673.958 85.075C674.363 85.885 674.363 86.83 673.688 87.505C673.418 87.775 673.013 88.045 672.608 88.315C665.453 92.365 658.163 95.875 650.738 99.115C649.118 99.79 647.633 100.33 645.878 100.6C642.233 101.41 639.263 99.655 638.048 96.145C637.103 93.445 637.103 90.745 637.643 88.045C637.643 87.64 637.913 87.37 637.508 86.83ZM622.523 95.065C622.658 95.47 622.253 96.01 622.793 96.28C623.333 96.415 623.738 96.145 624.008 95.875C625.223 94.93 626.168 93.985 627.113 92.905C630.488 89.26 633.593 85.21 636.563 81.16C637.373 79.945 638.318 78.865 639.128 77.65C640.073 76.03 639.128 74.005 637.238 73.87C636.023 73.735 635.078 74.14 633.998 74.815C631.973 75.895 630.353 77.38 628.868 79.27C626.033 82.78 624.548 86.83 623.198 91.015C622.928 92.365 622.658 93.715 622.523 95.065ZM684.761 112.75C685.841 111.805 686.921 110.995 688.001 110.185C697.856 102.49 707.711 94.795 717.971 87.64C718.781 87.1 719.456 86.56 720.266 86.02C721.346 85.48 722.561 85.615 723.101 86.56C723.776 87.505 723.641 88.72 722.561 89.395C720.131 91.285 717.566 92.905 715.136 94.795C703.931 103.03 692.861 111.4 682.196 120.175C681.521 120.715 680.981 121.525 680.711 122.335C678.686 127.195 676.661 132.19 673.961 136.78C672.611 139.075 671.261 141.1 669.641 143.125C668.426 144.475 667.076 145.69 665.591 146.77C664.916 147.175 664.106 147.58 663.296 147.715C660.191 148.66 657.626 146.635 657.761 143.395C657.896 142.315 658.031 141.37 658.436 140.425C659.651 137.185 661.676 134.485 663.971 131.92C667.616 127.465 671.801 123.55 676.256 119.77C677.066 119.095 677.741 118.285 678.146 117.34C681.926 108.025 685.301 98.575 688.811 89.125C688.811 88.855 688.946 88.585 688.811 88.18C688.271 88.855 687.731 89.53 687.191 90.07C684.896 92.77 682.601 95.335 679.901 97.495C678.821 98.44 677.741 99.25 676.526 99.79C673.961 100.87 671.666 100.06 670.451 97.495C669.506 95.335 669.506 93.04 669.911 90.745C671.261 83.185 675.041 76.975 681.251 72.385C682.871 71.17 684.626 70.225 686.516 69.955C689.486 69.55 692.051 70.09 693.806 72.79C693.941 72.925 694.076 73.195 694.346 73.195C694.886 72.52 695.291 71.845 695.966 71.17C696.641 70.495 697.586 70.36 698.396 70.765C699.206 71.305 699.746 72.25 699.476 73.195C699.341 73.6 699.206 74.005 698.936 74.545C698.126 76.705 697.181 79 696.236 81.16C693.131 88.72 690.701 96.55 687.731 104.11C686.786 106.405 685.976 108.7 685.166 110.86C684.896 111.4 684.626 111.94 684.761 112.75ZM673.826 92.905C673.826 93.715 673.826 94.255 674.096 94.93C674.366 96.01 674.636 96.145 675.581 95.605C677.201 94.525 678.551 93.31 679.901 91.825C683.411 88.315 686.516 84.535 689.486 80.485C690.296 79.405 691.106 78.46 690.566 77.11C690.431 76.975 690.566 76.84 690.566 76.84C690.701 74.68 689.486 73.87 687.461 74.14C685.976 74.275 684.626 74.95 683.411 75.895C679.496 78.865 676.796 82.645 675.176 87.235C674.501 89.125 673.961 91.015 673.826 92.905ZM673.421 127.87C673.151 128.14 672.881 128.41 672.746 128.68C670.316 130.975 668.021 133.405 665.996 135.97C664.781 137.455 663.701 139.075 662.891 140.83C662.621 141.37 662.351 142.045 662.216 142.585C662.081 142.855 661.946 143.26 662.216 143.53C662.486 143.665 662.756 143.53 663.026 143.395C664.106 142.72 665.186 141.91 665.996 140.965C669.236 137.185 671.531 132.73 673.556 128.275C673.556 128.275 673.556 128.14 673.421 127.87ZM732.598 101.005C730.708 101.14 728.818 100.87 726.928 100.33C722.068 98.845 719.098 95.065 718.963 89.8C718.828 87.775 719.233 85.615 719.908 83.59C721.528 78.595 724.228 74.275 728.008 70.63C730.168 68.605 732.733 67.12 735.703 66.58C736.783 66.445 737.728 66.31 738.808 66.445C742.723 67.12 744.748 70.225 743.668 74.275C743.128 76.435 741.913 78.325 740.563 80.08C737.323 83.995 733.543 86.695 728.548 87.64C727.198 87.775 725.983 87.775 724.768 87.775C723.418 87.775 723.013 88.045 723.148 89.26C723.283 93.31 724.768 95.605 729.088 96.55C732.868 97.36 736.513 96.82 740.023 95.605C745.828 93.715 751.363 91.285 757.033 88.855C759.463 87.775 762.028 86.695 764.458 85.21C764.728 84.94 765.133 84.805 765.538 84.805C766.348 84.67 767.023 84.94 767.563 85.615C767.968 86.29 767.968 87.1 767.428 87.91C767.023 88.585 766.348 88.99 765.538 89.395C763.108 90.745 760.678 91.825 758.113 92.905C752.443 95.335 746.908 97.765 741.103 99.655C738.403 100.465 735.568 101.14 732.598 101.005ZM726.253 83.59C729.358 83.455 731.923 82.375 734.353 80.485C736.648 78.595 738.538 76.3 739.618 73.465C740.158 71.71 739.483 70.63 737.593 70.63C737.188 70.495 736.783 70.63 736.378 70.63C734.893 71.035 733.408 71.71 732.058 72.655C728.683 75.22 726.523 78.73 724.768 82.51C724.363 83.32 724.633 83.59 725.578 83.59C725.848 83.725 725.983 83.59 726.253 83.59ZM794.726 91.96C794.726 92.77 794.726 93.58 794.996 94.255C795.671 96.82 797.426 98.305 799.991 98.575C801.746 98.71 803.501 98.44 805.256 98.035C813.626 95.875 821.591 92.905 829.556 89.53C832.391 88.315 835.226 86.965 837.926 85.48C838.466 85.21 838.871 84.94 839.546 84.94C840.491 84.805 841.301 85.21 841.706 86.155C841.976 86.965 841.841 87.775 841.031 88.45C840.626 88.855 839.951 89.125 839.411 89.395C831.446 93.58 823.211 96.82 814.706 99.655C811.331 100.735 807.956 101.815 804.311 102.49C802.286 102.895 800.261 102.895 798.236 102.49C794.051 101.545 791.216 98.44 790.676 94.12C790.271 91.825 790.541 89.665 791.081 87.505C792.701 81.16 796.076 76.03 801.341 72.115C803.231 70.63 805.391 69.82 807.686 69.415C811.466 68.74 814.166 70.765 814.571 74.545C814.841 76.705 814.166 78.73 813.356 80.62C812.951 81.565 811.871 81.835 810.926 81.565C809.846 81.16 809.306 80.215 809.441 79.135C809.576 78.595 809.711 78.055 809.981 77.65C810.386 76.705 810.386 75.895 810.251 74.95C810.251 73.87 809.846 73.6 808.766 73.6C807.686 73.465 806.741 73.87 805.796 74.275C803.366 75.49 801.341 77.38 799.721 79.54C797.291 82.51 795.671 85.75 794.861 89.53C794.726 90.34 794.726 91.15 794.726 91.96ZM871.086 92.635C869.331 92.635 867.711 92.77 866.091 92.5C864.471 92.23 862.716 91.96 861.231 91.15C860.556 90.88 860.151 91.015 859.746 91.555C858.261 93.445 856.776 95.335 855.021 96.955C852.996 98.845 850.836 100.6 848.406 101.68C847.326 102.22 846.246 102.625 845.031 102.76C842.196 103.3 839.631 102.085 838.281 99.385C837.606 98.035 837.201 96.55 837.201 95.065C836.931 91.555 837.606 88.315 838.956 85.075C840.711 80.215 843.411 76.03 847.191 72.655C849.351 70.765 851.646 69.415 854.616 69.145C857.181 68.875 859.341 69.82 861.096 71.71C861.771 72.655 861.771 73.87 862.311 74.815C862.851 75.76 863.796 76.3 864.201 77.38C864.606 78.865 864.606 80.35 864.336 81.7C864.066 83.185 863.661 84.535 863.121 85.75C862.581 87.1 862.716 87.37 864.066 87.775C865.686 88.315 867.306 88.45 868.791 88.45C872.706 88.72 876.621 88.315 880.401 87.64C881.886 87.37 883.371 86.965 884.721 86.29C884.991 86.155 885.126 86.02 885.396 85.885C886.476 85.615 887.421 86.02 887.961 86.83C888.366 87.64 888.231 88.72 887.421 89.395C886.881 89.8 886.341 90.07 885.666 90.34C883.236 91.555 880.536 91.96 877.836 92.23C875.541 92.635 873.246 92.77 871.086 92.635ZM841.251 93.445C841.251 94.66 841.386 95.605 841.656 96.55C842.196 98.305 843.006 98.845 844.761 98.575C846.381 98.305 847.731 97.495 848.946 96.55C851.916 94.525 854.346 91.96 856.371 89.125C856.911 88.45 857.046 87.91 856.506 87.1C854.076 83.59 854.346 78.46 857.451 75.49C858.126 74.815 857.991 74.41 857.181 73.87C856.101 73.06 854.886 73.195 853.536 73.465C852.186 74.005 850.971 74.815 849.891 75.76C846.651 78.865 844.491 82.51 842.871 86.56C841.926 88.855 841.386 91.285 841.251 93.445ZM860.016 79.135C858.936 80.485 858.801 81.97 859.476 83.185C860.421 81.16 860.556 80.215 860.016 79.135ZM913.587 99.25C913.587 96.55 913.857 94.12 914.127 91.555C914.127 91.15 914.397 90.475 913.992 90.205C913.452 89.935 913.182 90.475 912.777 90.745C907.917 93.58 903.192 96.55 898.197 98.98C896.037 100.06 893.877 101.14 891.447 101.815C886.992 103.165 884.157 101.41 883.347 96.82C882.807 93.985 883.347 91.285 883.752 88.72C885.102 81.7 887.262 74.95 889.287 68.065C892.797 57.13 896.442 46.33 900.897 35.665C901.842 33.37 902.787 31.075 904.002 28.915C904.407 28.24 904.812 27.43 905.352 26.89C906.702 25.54 908.592 25.81 909.267 27.565C909.537 28.24 909.807 28.78 910.212 29.32C911.022 30.67 910.347 32.29 908.727 32.425C908.457 32.425 908.187 32.425 907.917 32.425C907.107 32.29 906.702 32.695 906.297 33.505C905.757 34.99 905.082 36.475 904.407 37.96C898.332 53.08 893.202 68.47 889.152 84.265C888.477 86.695 887.802 89.26 887.532 91.96C887.262 93.445 887.262 94.93 887.532 96.415C887.802 98.035 888.342 98.305 889.962 97.9C892.527 97.225 894.822 96.145 897.117 94.93C902.922 91.96 908.457 88.45 913.992 85.075C914.802 84.535 915.342 83.86 915.477 82.915C918.042 69.685 921.822 56.725 926.277 44.035C927.762 39.715 929.382 35.26 931.542 31.075C931.812 30.4 932.217 29.725 932.622 29.05C933.567 27.7 935.052 27.565 936.267 28.645C936.672 29.05 936.942 29.185 937.347 29.455C938.157 29.86 938.697 30.535 938.562 31.48C938.562 32.29 937.752 33.235 936.807 33.235C934.917 33.235 934.512 34.315 933.972 35.665C929.787 45.925 926.412 56.59 923.442 67.255C921.822 73.195 920.472 79.27 919.392 85.21C918.312 91.15 917.502 96.955 917.907 103.03C918.312 107.215 918.717 111.535 920.067 115.585C920.472 116.935 921.012 118.15 921.822 119.23C923.037 120.715 924.117 120.985 925.602 119.905C926.412 119.5 926.952 118.96 927.627 118.42C928.032 118.015 928.437 117.745 928.977 117.61C929.652 117.475 930.327 117.61 930.867 118.15C931.407 118.69 931.677 119.365 931.407 120.04C931.272 120.31 931.137 120.715 931.002 120.85C929.112 122.875 927.087 124.495 924.252 124.765C921.957 125.035 920.337 123.955 918.987 122.335C917.637 120.85 916.962 119.095 916.287 117.34C914.802 113.29 914.262 109.24 913.857 105.055C913.722 103.03 913.452 101.005 913.587 99.25ZM949.864 101.005C947.974 101.14 946.084 100.87 944.194 100.33C939.334 98.845 936.364 95.065 936.229 89.8C936.094 87.775 936.499 85.615 937.174 83.59C938.794 78.595 941.494 74.275 945.274 70.63C947.434 68.605 949.999 67.12 952.969 66.58C954.049 66.445 954.994 66.31 956.074 66.445C959.989 67.12 962.014 70.225 960.934 74.275C960.394 76.435 959.179 78.325 957.829 80.08C954.589 83.995 950.809 86.695 945.814 87.64C944.464 87.775 943.249 87.775 942.034 87.775C940.684 87.775 940.279 88.045 940.414 89.26C940.549 93.31 942.034 95.605 946.354 96.55C950.134 97.36 953.779 96.82 957.289 95.605C963.094 93.715 968.629 91.285 974.299 88.855C976.729 87.775 979.294 86.695 981.724 85.21C981.994 84.94 982.399 84.805 982.804 84.805C983.614 84.67 984.289 84.94 984.829 85.615C985.234 86.29 985.234 87.1 984.694 87.91C984.289 88.585 983.614 88.99 982.804 89.395C980.374 90.745 977.944 91.825 975.379 92.905C969.709 95.335 964.174 97.765 958.369 99.655C955.669 100.465 952.834 101.14 949.864 101.005ZM943.519 83.59C946.624 83.455 949.189 82.375 951.619 80.485C953.914 78.595 955.804 76.3 956.884 73.465C957.424 71.71 956.749 70.63 954.859 70.63C954.454 70.495 954.049 70.63 953.644 70.63C952.159 71.035 950.674 71.71 949.324 72.655C945.949 75.22 943.789 78.73 942.034 82.51C941.629 83.32 941.899 83.59 942.844 83.59C943.114 83.725 943.249 83.59 943.519 83.59ZM1044.24 47.68C1043.16 49.03 1042.22 50.245 1041.41 51.46C1033.44 62.26 1025.21 72.655 1016.16 82.375C1011.03 87.775 1005.9 93.04 999.828 97.36C997.668 98.98 995.373 100.465 992.943 101.41C990.783 102.22 988.623 102.895 986.328 102.49C983.493 101.95 981.603 100.33 980.658 97.63C979.848 95.47 979.848 93.31 980.253 91.015C981.468 84.535 984.303 78.73 988.893 73.87C990.783 71.845 993.078 70.225 995.913 69.55C997.668 69.01 999.423 69.01 1001.18 69.55C1003.74 70.36 1005.23 72.115 1005.36 74.815C1005.36 76.57 1004.96 78.19 1004.42 79.945C1004.15 80.62 1003.74 81.43 1003.47 82.105C1003.07 83.32 1001.85 83.86 1000.77 83.59C999.693 83.185 999.153 81.97 999.558 80.755C999.693 80.215 999.963 79.675 1000.1 79.27C1000.64 78.055 1001.04 76.705 1001.04 75.355C1001.04 73.87 1000.64 73.465 999.018 73.33C997.533 73.195 996.048 73.6 994.698 74.41C993.078 75.49 991.728 76.84 990.513 78.325C987.273 82.51 985.113 87.1 984.303 92.365C984.168 93.58 984.168 94.795 984.573 96.01C984.978 97.63 985.923 98.305 987.678 98.44C989.298 98.44 990.648 97.9 992.133 97.225C995.508 95.605 998.478 93.445 1001.31 91.015C1007.25 86.02 1012.52 80.35 1017.65 74.545C1024.67 66.58 1031.15 58.345 1037.22 49.975C1037.63 49.57 1038.03 49.165 1038.17 48.49C1037.76 48.22 1037.36 48.355 1036.95 48.355C1028.99 49.3 1021.16 50.65 1013.46 52.945C1010.76 53.755 1007.93 54.7 1005.23 55.915C1004.55 56.32 1004.01 56.725 1004.01 57.67C1004.01 58.885 1003.07 59.425 1001.99 59.56C1000.23 59.695 998.883 59.02 998.478 57.805C998.073 56.725 998.478 55.51 999.963 54.295C1001.45 53.08 1003.2 52.27 1005.09 51.46C1011.3 48.895 1017.92 47.275 1024.53 46.06C1029.66 44.98 1034.93 44.305 1040.19 43.9C1041.27 43.765 1042.08 43.36 1042.76 42.415C1045.59 38.23 1048.43 34.045 1051.26 29.86C1051.94 28.915 1052.48 27.97 1053.29 27.16C1054.1 26.08 1055.18 25.81 1056.12 26.35C1057.07 26.89 1057.47 27.97 1056.93 29.185C1055.58 32.695 1054.1 36.07 1052.61 39.58C1052.21 40.39 1051.8 41.2 1051.53 42.01C1051.26 42.685 1051.4 42.955 1052.21 42.955C1053.29 43.09 1054.5 43.09 1055.72 42.955C1058.82 42.685 1062.06 42.685 1065.3 42.685C1069.76 42.685 1074.35 42.55 1078.8 42.685C1086.36 42.955 1093.92 43.225 1101.35 44.575C1103.78 44.98 1106.34 45.385 1108.5 46.735C1109.58 47.275 1110.39 48.085 1110.66 49.3C1111.07 51.055 1109.45 53.215 1107.83 53.35C1106.61 53.485 1105.53 52.54 1105.53 51.325C1105.53 49.84 1105.53 49.84 1104.18 49.435C1101.48 48.76 1098.78 48.355 1095.95 47.95C1090.14 47.41 1084.34 47.14 1078.53 47.005C1073.54 46.735 1068.54 46.735 1063.68 46.87C1059.36 47.005 1055.04 47.005 1050.86 47.275C1049.64 47.41 1048.97 47.815 1048.56 48.895C1042.76 62.665 1037.22 76.435 1032.5 90.61C1027.77 104.92 1023.32 119.365 1019.67 134.08C1019.4 135.295 1019.13 136.645 1018.86 137.86C1018.73 138.4 1018.73 138.94 1019.13 139.345C1019.94 140.02 1020.21 140.965 1019.67 141.91C1019 142.99 1018.05 143.53 1016.7 143.53C1015.62 143.395 1014.95 142.72 1014.54 141.64C1014.27 140.83 1014.27 140.02 1014.41 139.075C1014.81 136.105 1015.49 133.27 1016.3 130.435C1019.94 116.26 1024.13 102.355 1028.72 88.585C1033.17 75.355 1038.44 62.395 1043.84 49.57C1043.97 49.03 1044.38 48.49 1044.24 47.68ZM1049.87 92.905C1049.87 88.855 1050.81 85.345 1051.89 81.97C1052.57 79.54 1053.51 77.245 1054.32 74.95C1054.86 73.87 1055.27 72.79 1055.54 71.575C1055.81 70.9 1056.08 70.225 1056.62 69.685C1057.29 69.145 1058.1 69.01 1058.91 69.415C1059.59 69.685 1059.99 70.36 1059.99 71.17C1059.99 71.845 1059.86 72.385 1059.59 72.925C1058.78 75.22 1057.97 77.38 1057.02 79.54C1055.67 83.32 1054.59 87.1 1054.05 91.015C1053.92 92.365 1053.92 93.715 1054.32 95.065C1054.59 96.145 1055.13 96.415 1056.35 96.415C1057.16 96.415 1057.97 96.28 1058.64 96.01C1067.01 93.04 1075.11 89.665 1082.4 84.535C1082.67 84.265 1082.94 84.13 1083.21 83.995C1084.16 83.59 1084.97 83.86 1085.51 84.535C1086.05 85.345 1086.18 86.155 1085.64 86.965C1085.1 87.64 1084.43 88.045 1083.89 88.585C1080.38 91.015 1076.46 93.04 1072.68 94.795C1068.77 96.685 1064.85 98.44 1060.8 99.79C1059.45 100.195 1058.1 100.465 1056.75 100.735C1053.92 101.005 1051.49 99.655 1050.54 96.82C1050 95.47 1049.87 93.985 1049.87 92.905ZM1065.93 55.375C1065.93 56.32 1065.53 56.995 1064.85 57.4C1064.18 57.67 1063.91 58.21 1063.64 58.885C1063.1 60.235 1062.56 61.585 1062.83 63.205C1063.1 64.15 1062.15 65.095 1061.21 65.365C1060.13 65.635 1059.05 65.23 1058.51 64.285C1058.24 63.61 1058.1 62.935 1058.24 62.125C1058.91 59.29 1059.99 56.455 1061.34 53.89C1061.48 53.35 1061.88 52.945 1062.29 52.675C1063.5 51.865 1065.12 52.27 1065.53 53.755C1065.8 54.295 1065.8 54.97 1065.93 55.375ZM1114.46 92.635C1112.7 92.635 1111.08 92.77 1109.46 92.5C1107.84 92.23 1106.09 91.96 1104.6 91.15C1103.93 90.88 1103.52 91.015 1103.12 91.555C1101.63 93.445 1100.15 95.335 1098.39 96.955C1096.37 98.845 1094.21 100.6 1091.78 101.68C1090.7 102.22 1089.62 102.625 1088.4 102.76C1085.57 103.3 1083 102.085 1081.65 99.385C1080.98 98.035 1080.57 96.55 1080.57 95.065C1080.3 91.555 1080.98 88.315 1082.33 85.075C1084.08 80.215 1086.78 76.03 1090.56 72.655C1092.72 70.765 1095.02 69.415 1097.99 69.145C1100.55 68.875 1102.71 69.82 1104.47 71.71C1105.14 72.655 1105.14 73.87 1105.68 74.815C1106.22 75.76 1107.17 76.3 1107.57 77.38C1107.98 78.865 1107.98 80.35 1107.71 81.7C1107.44 83.185 1107.03 84.535 1106.49 85.75C1105.95 87.1 1106.09 87.37 1107.44 87.775C1109.06 88.315 1110.68 88.45 1112.16 88.45C1116.08 88.72 1119.99 88.315 1123.77 87.64C1125.26 87.37 1126.74 86.965 1128.09 86.29C1128.36 86.155 1128.5 86.02 1128.77 85.885C1129.85 85.615 1130.79 86.02 1131.33 86.83C1131.74 87.64 1131.6 88.72 1130.79 89.395C1130.25 89.8 1129.71 90.07 1129.04 90.34C1126.61 91.555 1123.91 91.96 1121.21 92.23C1118.91 92.635 1116.62 92.77 1114.46 92.635ZM1084.62 93.445C1084.62 94.66 1084.76 95.605 1085.03 96.55C1085.57 98.305 1086.38 98.845 1088.13 98.575C1089.75 98.305 1091.1 97.495 1092.32 96.55C1095.29 94.525 1097.72 91.96 1099.74 89.125C1100.28 88.45 1100.42 87.91 1099.88 87.1C1097.45 83.59 1097.72 78.46 1100.82 75.49C1101.5 74.815 1101.36 74.41 1100.55 73.87C1099.47 73.06 1098.26 73.195 1096.91 73.465C1095.56 74.005 1094.34 74.815 1093.26 75.76C1090.02 78.865 1087.86 82.51 1086.24 86.56C1085.3 88.855 1084.76 91.285 1084.62 93.445ZM1103.39 79.135C1102.31 80.485 1102.17 81.97 1102.85 83.185C1103.79 81.16 1103.93 80.215 1103.39 79.135ZM1133.06 85.885C1133.87 84.805 1134.68 83.86 1135.49 82.915C1138.87 78.46 1142.78 74.41 1147.1 70.9C1147.91 70.09 1148.86 69.55 1149.67 68.875C1150.34 68.47 1150.88 68.2 1151.69 68.065C1153.58 67.525 1155.2 68.47 1155.61 70.36C1155.88 71.575 1155.88 72.655 1155.61 73.735C1155.07 77.515 1153.85 81.025 1153.04 84.67C1152.37 87.37 1151.83 90.07 1151.42 92.77C1151.29 93.85 1151.15 95.065 1151.29 96.145C1151.56 97.36 1152.1 97.765 1153.31 97.495C1154.8 97.225 1156.28 96.685 1157.77 95.875C1163.84 92.77 1169.78 89.395 1175.72 85.885C1176.13 85.615 1176.67 85.21 1177.21 85.075C1178.29 84.67 1179.23 84.94 1179.77 85.75C1180.45 86.695 1180.18 87.775 1179.23 88.585C1177.75 89.53 1176.26 90.475 1174.78 91.285C1169.51 94.39 1164.11 97.495 1158.58 100.195C1156.69 101.005 1154.66 101.68 1152.64 101.68C1150.07 101.68 1148.32 100.465 1147.51 98.035C1146.97 96.55 1146.97 95.065 1147.1 93.58C1147.64 88.045 1149.13 82.645 1150.61 77.245C1151.02 75.895 1151.29 74.545 1151.42 72.925C1150.61 73.195 1150.07 73.735 1149.53 74.275C1144.94 77.92 1141.16 82.24 1137.65 86.83C1134.41 90.88 1131.44 95.065 1128.61 99.385C1128.2 100.06 1127.66 100.735 1127.12 101.275C1126.31 102.22 1125.23 102.49 1124.29 102.085C1123.48 101.545 1122.94 100.6 1123.21 99.385C1123.34 98.305 1123.75 97.225 1124.15 96.145C1126.04 91.285 1127.93 86.425 1130.09 81.565C1131.71 77.785 1133.47 74.005 1135.09 70.09C1135.22 69.955 1135.22 69.82 1135.36 69.55C1136.03 68.2 1137.25 67.66 1138.46 68.335C1139.54 68.875 1139.95 70.495 1139.27 71.575C1136.98 75.76 1135.36 80.35 1133.33 84.67C1133.2 84.94 1133.06 85.345 1132.93 85.75C1133.06 85.75 1133.06 85.75 1133.06 85.885Z" fill="#C10013"/>
</svg>
