<svg width="1062" height="150" viewBox="0 0 1062 150" fill="none" xmlns="http://www.w3.org/2000/svg">
<path d="M59.6621 69.62C61.6221 69.06 63.5821 68.5 65.5421 67.94C70.0221 66.54 74.6421 65.56 79.2621 65.28C82.9021 65 86.5421 65.14 90.0421 66.12C98.5821 68.5 101.942 75.08 100.962 83.2C100.402 86.98 99.1421 90.62 97.6021 94.12C97.4621 94.54 97.0421 94.96 97.1821 95.52C97.7421 95.52 98.1621 95.24 98.7221 95.1C106.002 92.02 113.422 89.08 121.122 86.7C123.922 85.86 126.582 85.16 129.522 84.74C130.782 84.6 132.042 84.6 133.302 84.74C133.862 84.74 134.422 84.88 134.842 85.3C135.542 85.72 135.962 86.56 135.682 87.4C135.402 88.24 134.842 88.8 134.002 88.94C133.862 88.94 133.582 88.94 133.442 88.94C130.222 88.52 127.142 89.5 124.202 90.34C117.902 92.16 111.882 94.4 105.862 96.78C102.082 98.32 98.1621 100 94.3821 101.54C93.5421 101.82 92.8421 102.38 92.2821 103.08C84.4421 114.14 74.2221 122.54 62.3221 128.98C56.1621 132.34 49.8621 135.28 43.1421 137.24C41.1821 137.94 39.2221 138.22 37.1221 138.08C33.6221 137.8 31.9421 135.28 33.2021 131.92C33.9021 130.38 34.8821 129.12 36.1421 127.86C38.6621 125.2 41.7421 122.96 44.8221 121C50.0021 117.64 55.4621 114.7 61.0621 112.04C70.1621 107.56 79.2621 103.36 88.6421 99.3C89.7621 98.88 90.4621 98.18 91.1621 97.06C93.4021 93 95.3621 88.94 96.3421 84.32C96.6221 82.5 96.7621 80.68 96.6221 78.86C96.2021 74.8 93.9621 72.14 90.1821 70.74C86.8221 69.48 83.3221 69.2 79.8221 69.62C68.7621 70.6 58.4021 74.24 48.4621 79.14C44.8221 80.82 41.4621 82.78 38.2421 85.02C37.8221 85.3 37.4021 85.44 36.9821 85.72C36.0021 86 35.0221 85.58 34.4621 84.74C34.0421 84.04 34.0421 83.2 34.7421 82.36C35.0221 81.8 35.5821 81.52 36.0021 81.24C44.5421 74.94 53.3621 68.78 61.7621 62.34C66.8021 58.56 71.5621 54.5 76.3221 50.44C81.2221 46.1 85.8421 41.48 89.9021 36.44C92.8421 32.8 95.3621 28.88 97.0421 24.4C97.7421 22.3 98.3021 20.2 98.3021 17.96C98.3021 14.18 96.9021 11.24 93.8221 8.99999C91.0221 7.03999 87.8021 6.06 84.4421 5.49999C77.8621 4.66 71.5621 5.63999 65.1221 7.18C56.3021 9.41999 48.1821 13.06 40.3421 17.4C32.2221 22.02 24.6621 27.34 17.9421 33.78C13.3221 38.4 9.54211 43.44 7.02211 49.46C6.04211 51.56 5.48211 53.8 5.20211 56.04C5.06211 57.16 5.20211 58.14 5.48211 58.98C5.76211 60.24 6.46211 60.94 7.58211 61.5C8.14211 61.64 8.70211 61.78 9.12211 62.06C10.6621 62.62 11.3621 63.6 11.0821 64.86C10.6621 65.98 9.54211 66.54 8.00211 66.12C3.38211 65.14 0.862109 61.92 0.862109 57.3C0.862109 54.36 1.56211 51.56 2.54211 48.9C4.08211 44.7 6.32211 41.06 8.98211 37.56C14.3021 30.56 21.0221 24.82 28.3021 19.92C39.0821 12.5 50.5621 6.76 63.1621 3.26C69.4621 1.44 75.9021 0.459993 82.4821 1.01999C87.5221 1.29999 92.2821 2.41999 96.3421 5.49999C101.382 9.28 103.342 14.32 102.502 20.48C101.662 26.08 99.1421 30.84 96.0621 35.32C93.4021 39.24 90.3221 42.74 87.1021 46.1C79.1221 54.36 70.1621 61.5 61.0621 68.36C60.5021 68.78 60.0821 69.2 59.6621 69.48C59.6621 69.62 59.6621 69.62 59.6621 69.62ZM84.4421 106.16C83.8821 106.02 83.4621 106.3 83.1821 106.44C76.3221 109.52 69.6021 112.6 62.8821 115.96C58.4021 118.06 54.0621 120.3 49.8621 122.96C46.2221 125.06 42.7221 127.44 39.6421 130.38C38.9421 131.08 38.2421 131.78 37.8221 132.62C37.5421 132.9 37.4021 133.18 37.5421 133.46C37.6821 133.88 38.1021 133.88 38.5221 133.88C39.9221 133.74 41.1821 133.32 42.4421 132.9C47.7621 131.36 52.6621 129.12 57.5621 126.6C67.0821 121.84 75.6221 115.68 82.9021 107.98C83.4621 107.42 83.8821 106.86 84.4421 106.16ZM4.92211 143.82C3.66211 143.68 2.82211 142.84 2.82211 141.72C2.68211 141.02 2.82211 140.46 3.10211 139.9C5.20211 136.4 6.32211 132.48 7.86211 128.7C14.5821 111.48 21.1621 94.26 27.8821 77.18C34.6021 60.38 41.1821 43.58 48.1821 27.06C48.6021 25.94 49.0221 24.96 49.3021 23.84C49.8621 22.44 50.7021 21.74 51.8221 21.88C52.9421 22.16 53.9221 23.42 53.7821 24.68C53.7821 25.1 53.6421 25.38 53.5021 25.8C46.7821 41.34 40.6221 57.02 34.4621 72.7C27.4621 90.06 20.7421 107.56 13.8821 125.06C11.9221 130.24 9.82211 135.42 7.72211 140.6C7.44211 141.3 7.16211 142.14 6.74211 142.7C6.32211 143.4 5.62211 143.82 4.92211 143.82ZM166.379 93.14C164.559 93.14 162.879 93.28 161.199 93C159.519 92.72 157.699 92.44 156.159 91.6C155.459 91.32 155.039 91.46 154.619 92.02C153.079 93.98 151.539 95.94 149.719 97.62C147.619 99.58 145.379 101.4 142.859 102.52C141.739 103.08 140.619 103.5 139.359 103.64C136.419 104.2 133.759 102.94 132.359 100.14C131.659 98.74 131.239 97.2 131.239 95.66C130.959 92.02 131.659 88.66 133.059 85.3C134.879 80.26 137.679 75.92 141.599 72.42C143.839 70.46 146.219 69.06 149.299 68.78C151.959 68.5 154.199 69.48 156.019 71.44C156.719 72.42 156.719 73.68 157.279 74.66C157.839 75.64 158.819 76.2 159.239 77.32C159.659 78.86 159.659 80.4 159.379 81.8C159.099 83.34 158.679 84.74 158.119 86C157.559 87.4 157.699 87.68 159.099 88.1C160.779 88.66 162.459 88.8 163.999 88.8C168.059 89.08 172.119 88.66 176.039 87.96C177.579 87.68 179.119 87.26 180.519 86.56C180.799 86.42 180.939 86.28 181.219 86.14C182.339 85.86 183.319 86.28 183.879 87.12C184.299 87.96 184.159 89.08 183.319 89.78C182.759 90.2 182.199 90.48 181.499 90.76C178.979 92.02 176.179 92.44 173.379 92.72C170.999 93.14 168.619 93.28 166.379 93.14ZM135.439 93.98C135.439 95.24 135.579 96.22 135.859 97.2C136.419 99.02 137.259 99.58 139.079 99.3C140.759 99.02 142.159 98.18 143.419 97.2C146.499 95.1 149.019 92.44 151.119 89.5C151.679 88.8 151.819 88.24 151.259 87.4C148.739 83.76 149.019 78.44 152.239 75.36C152.939 74.66 152.799 74.24 151.959 73.68C150.839 72.84 149.579 72.98 148.179 73.26C146.779 73.82 145.519 74.66 144.399 75.64C141.039 78.86 138.799 82.64 137.119 86.84C136.139 89.22 135.579 91.74 135.439 93.98ZM154.899 79.14C153.779 80.54 153.639 82.08 154.339 83.34C155.319 81.24 155.459 80.26 154.899 79.14ZM202.054 83.06C200.094 85.58 198.274 87.96 196.314 90.48C194.214 93 192.114 95.52 189.734 97.62C188.474 98.88 187.214 100 185.534 100.7C182.454 101.96 180.074 100.7 179.234 97.48C178.674 95.24 178.954 93.14 179.374 90.9C179.934 87.68 181.054 84.46 182.174 81.38C183.574 77.46 185.254 73.82 186.514 69.9C186.934 68.64 187.914 67.94 189.034 68.22C190.154 68.5 190.854 69.48 190.714 70.88C190.714 71.44 190.574 71.86 190.294 72.42C188.334 77.32 186.234 82.36 184.694 87.54C183.994 89.64 183.434 91.88 183.434 94.26C183.434 94.54 183.434 94.96 183.434 95.38C183.434 96.64 183.714 96.78 184.834 96.08C186.234 95.24 187.494 93.98 188.614 92.72C195.054 85.3 201.214 77.46 206.814 69.2C207.094 68.92 207.234 68.5 207.654 68.36C208.774 67.24 210.314 67.66 211.014 69.06C211.574 70.32 211.434 71.58 211.014 72.84C209.894 75.5 208.914 78.02 207.934 80.68C204.434 89.92 201.494 99.3 198.274 108.68C198.274 108.82 198.274 108.96 198.274 109.1C198.834 109.24 199.114 108.82 199.394 108.54C207.374 102.66 215.494 96.78 223.614 91.04C226.414 89.08 229.214 86.98 232.014 85.02C232.434 84.88 232.714 84.6 232.994 84.46C233.974 84.04 234.954 84.32 235.514 85.16C236.074 85.86 236.074 86.84 235.514 87.68C235.094 88.24 234.534 88.66 233.834 89.08C230.054 91.88 226.134 94.54 222.214 97.34C213.674 103.36 205.134 109.52 196.734 115.96C195.614 116.8 194.914 117.78 194.354 119.04C191.694 125.76 188.614 132.34 184.694 138.5C182.874 141.44 180.774 144.24 177.974 146.48C176.854 147.32 175.734 148.02 174.474 148.44C171.254 149.56 168.454 147.74 168.174 144.24C168.034 142.28 168.594 140.6 169.294 138.78C170.974 135.28 173.354 132.06 175.874 129.12C180.074 124.22 184.834 120.02 189.734 115.96C190.994 115.12 191.694 114.14 192.254 112.6C193.374 109.24 194.634 106.02 195.754 102.66C197.854 96.64 199.814 90.62 201.774 84.6C202.054 84.18 202.194 83.62 202.334 83.2C202.194 83.2 202.194 83.06 202.054 83.06ZM187.354 123.8C187.214 123.8 187.074 123.94 186.934 124.08C184.134 126.6 181.474 129.26 179.094 132.06C176.714 134.72 174.614 137.66 173.214 141.02C172.794 141.72 172.514 142.56 172.514 143.4C172.514 144.24 172.794 144.52 173.634 144.1C174.054 143.96 174.474 143.68 174.894 143.4C176.434 142.28 177.554 141.02 178.674 139.62C182.314 134.86 184.834 129.54 187.494 124.08C187.494 124.08 187.494 123.94 187.354 123.8ZM234.831 46.1C233.431 46.1 232.311 44.7 232.591 43.16C232.731 42.46 233.011 41.76 233.431 41.06C234.971 38.26 236.511 35.46 238.191 32.52C238.611 31.68 239.031 30.84 239.591 30C239.731 29.58 239.871 29.16 240.151 28.88C240.851 28.04 241.971 27.76 242.811 28.18C243.791 28.6 244.211 29.58 243.931 30.7C243.791 31.4 243.511 32.1 243.091 32.8C241.411 35.6 239.731 38.54 238.191 41.34C237.631 42.32 237.071 43.3 236.791 44.42C236.651 45.54 235.811 46.1 234.831 46.1ZM252.292 94.26C251.032 92.72 249.632 91.18 248.232 89.64C247.112 88.24 245.992 86.84 245.012 85.3C241.652 80.12 243.472 75.5 246.832 72.28C249.212 69.9 252.292 68.36 255.792 67.8C258.172 67.52 260.552 67.94 262.652 69.2C266.152 71.16 267.272 75.22 265.592 78.86C265.172 79.84 264.472 80.82 263.632 81.66C263.212 82.08 262.792 82.36 262.232 82.5C261.252 82.78 260.412 82.5 259.852 81.66C259.292 80.96 259.432 80.12 259.852 79.28C260.132 78.86 260.552 78.58 260.832 78.16C262.932 75.92 262.092 73.12 259.292 72.28C258.032 72 256.912 72 255.792 72.28C253.132 72.84 250.892 74.1 249.072 76.2C247.252 78.3 247.112 80.54 248.512 82.92C249.912 85.16 251.732 86.98 253.412 88.94C254.672 90.2 255.792 91.46 256.772 92.86C257.332 93.56 257.752 93.7 258.592 93.56C267.692 91.74 276.652 89.64 285.472 86.84C286.732 86.42 287.992 85.86 289.252 85.44C291.212 84.6 292.332 84.88 292.892 86.14C293.452 87.54 292.752 88.52 290.792 89.36C287.432 90.9 283.792 91.88 280.152 93C273.852 94.68 267.552 96.22 261.112 97.34C259.852 97.62 259.152 98.04 258.872 99.3C258.452 101.12 257.192 102.24 255.372 102.66C251.732 103.5 248.092 102.94 244.592 101.54C243.892 101.26 243.472 100.84 243.052 100.42C242.212 99.16 242.352 97.76 243.472 96.78C244.032 96.22 244.872 95.94 245.712 95.66C247.532 95.1 249.492 94.96 251.312 94.68C251.592 94.68 252.012 94.68 252.292 94.26ZM248.792 98.88C253.412 95.52 255.092 101.4 248.792 98.88V98.88ZM351.223 93.14C349.403 93.14 347.723 93.28 346.043 93C344.363 92.72 342.543 92.44 341.003 91.6C340.303 91.32 339.883 91.46 339.463 92.02C337.923 93.98 336.383 95.94 334.563 97.62C332.463 99.58 330.223 101.4 327.703 102.52C326.583 103.08 325.463 103.5 324.203 103.64C321.263 104.2 318.603 102.94 317.203 100.14C316.503 98.74 316.083 97.2 316.083 95.66C315.803 92.02 316.503 88.66 317.903 85.3C319.723 80.26 322.523 75.92 326.443 72.42C328.683 70.46 331.063 69.06 334.143 68.78C336.803 68.5 339.043 69.48 340.863 71.44C341.563 72.42 341.563 73.68 342.123 74.66C342.683 75.64 343.663 76.2 344.083 77.32C344.503 78.86 344.503 80.4 344.223 81.8C343.943 83.34 343.523 84.74 342.963 86C342.403 87.4 342.543 87.68 343.943 88.1C345.623 88.66 347.303 88.8 348.843 88.8C352.903 89.08 356.963 88.66 360.883 87.96C362.423 87.68 363.963 87.26 365.363 86.56C365.643 86.42 365.783 86.28 366.063 86.14C367.183 85.86 368.163 86.28 368.723 87.12C369.143 87.96 369.003 89.08 368.163 89.78C367.603 90.2 367.043 90.48 366.343 90.76C363.823 92.02 361.023 92.44 358.223 92.72C355.843 93.14 353.463 93.28 351.223 93.14ZM320.283 93.98C320.283 95.24 320.423 96.22 320.703 97.2C321.263 99.02 322.103 99.58 323.923 99.3C325.603 99.02 327.003 98.18 328.263 97.2C331.343 95.1 333.863 92.44 335.963 89.5C336.523 88.8 336.663 88.24 336.103 87.4C333.583 83.76 333.863 78.44 337.083 75.36C337.783 74.66 337.643 74.24 336.803 73.68C335.683 72.84 334.423 72.98 333.023 73.26C331.623 73.82 330.363 74.66 329.243 75.64C325.883 78.86 323.643 82.64 321.963 86.84C320.983 89.22 320.423 91.74 320.283 93.98ZM339.743 79.14C338.623 80.54 338.483 82.08 339.183 83.34C340.163 81.24 340.303 80.26 339.743 79.14ZM364.078 95.24C364.078 91.46 364.778 88.52 365.478 85.58C367.998 74.66 371.498 64.02 375.138 53.38C377.518 46.38 380.038 39.38 382.978 32.66C383.958 30.42 384.798 28.18 386.198 26.08C386.478 25.52 386.758 24.96 387.318 24.68C388.718 23.56 390.398 23.98 391.098 25.52C391.378 26.22 391.518 26.78 391.938 27.34C392.498 28.04 392.638 28.74 392.218 29.58C391.798 30.42 390.958 30.84 390.118 30.7C388.718 30.42 388.298 31.26 387.878 32.24C384.798 39.1 382.278 46.1 379.758 53.24C376.118 63.74 372.758 74.24 369.958 85.16C369.258 87.96 368.698 90.9 368.418 93.84C368.278 94.96 368.278 96.22 368.698 97.34C368.978 98.46 369.398 98.74 370.658 98.6C371.498 98.46 372.198 98.18 372.898 97.9C377.518 96.08 381.858 93.7 386.198 91.18C389.418 89.22 392.638 87.26 395.858 85.3C396.418 84.88 396.978 84.6 397.678 84.32C398.658 84.04 399.498 84.46 400.058 85.3C400.618 86.14 400.478 86.98 399.638 87.82C399.498 88.1 399.218 88.24 398.798 88.52C391.938 92.86 385.078 97.2 377.658 100.56C375.558 101.54 373.458 102.52 371.218 102.94C368.418 103.5 366.178 102.38 364.918 99.86C364.078 98.18 363.938 96.36 364.078 95.24ZM416.523 87.54C414.703 89.78 412.743 92.02 410.923 94.12C408.823 96.5 406.723 98.74 404.203 100.7C403.363 101.26 402.523 101.68 401.543 101.96C399.303 102.24 397.343 101.12 396.223 98.88C395.383 97.06 395.103 95.1 395.243 93C396.083 85.3 399.303 78.72 404.903 73.26C405.743 72.42 406.863 71.58 407.983 70.88C411.343 68.64 415.683 67.52 419.883 71.72C420.443 71.58 420.303 71.16 420.443 70.74C423.943 58.98 427.863 47.5 432.763 36.3C434.303 32.94 435.843 29.72 437.243 26.5C437.523 25.8 437.803 25.24 438.363 24.68C439.483 23.42 441.163 23.42 442.143 24.96C442.703 25.52 442.983 26.22 443.543 26.78C444.103 27.48 444.243 28.18 443.823 29.02C443.403 29.72 442.703 30.28 441.863 30.14C440.603 29.86 440.183 30.42 439.763 31.4C434.443 42.46 430.243 53.94 426.603 65.56C425.483 68.92 424.643 72.42 423.663 75.78C423.383 76.48 423.243 77.18 423.383 77.74C423.523 78.16 423.383 78.58 423.243 78.86C421.283 83.9 420.863 88.94 421.003 94.26C421.143 95.24 421.283 96.08 421.703 97.06C422.123 97.9 422.683 98.32 423.803 98.32C424.923 98.32 425.903 98.04 427.023 97.62C435.283 94.4 443.123 90.62 450.263 85.16C450.683 84.88 451.103 84.6 451.523 84.32C452.503 84.04 453.483 84.32 454.043 85.02C454.603 85.86 454.603 86.7 454.043 87.54C453.483 88.24 452.923 88.66 452.223 89.08C447.323 92.86 441.863 95.8 436.263 98.46C433.603 99.72 430.803 100.84 428.003 101.82C426.603 102.24 425.063 102.66 423.383 102.66C420.583 102.52 418.763 101.26 417.643 98.74C416.943 96.92 416.663 94.82 416.523 92.72C416.523 91.6 416.523 90.34 416.663 89.22C416.803 88.66 416.803 88.1 416.803 87.68C416.663 87.68 416.663 87.54 416.523 87.54ZM399.583 93.84C399.723 94.68 399.723 95.24 399.723 95.8C399.723 96.08 399.863 96.22 400.003 96.5C400.283 97.62 400.703 97.76 401.683 97.06C402.803 96.36 403.783 95.38 404.763 94.4C409.243 89.64 413.303 84.6 417.363 79.42C417.643 79.14 417.923 78.86 417.783 78.3C417.503 77.46 417.363 76.48 417.083 75.64C416.383 73.96 415.123 73.26 413.163 73.4C412.043 73.4 411.063 73.96 410.223 74.52C407.283 76.48 405.183 79.14 403.363 82.08C401.123 85.72 399.863 89.78 399.583 93.84ZM487.214 76.9C489.314 75.36 491.274 73.82 493.514 72.56C495.194 71.58 497.154 71.02 499.114 70.6C502.614 70.04 507.094 72.14 506.814 77.32C506.814 79.7 506.114 81.8 505.134 83.76C504.294 85.72 503.174 87.54 501.914 89.36C501.634 89.78 501.354 90.2 500.934 90.76C501.634 90.9 502.194 90.76 502.614 90.62C510.314 88.66 518.014 86.84 525.714 85.3C527.114 85.02 528.514 84.74 529.914 84.6C530.474 84.46 531.034 84.46 531.594 84.6C532.434 84.6 533.134 85.3 533.274 86.14C533.554 86.98 533.134 87.68 532.574 88.1C532.014 88.52 531.454 88.66 530.754 88.8C520.114 90.62 509.754 93.14 499.254 95.94C498.834 96.08 498.414 96.22 497.994 96.36C496.174 96.64 494.774 97.34 493.374 98.6C492.394 99.72 490.994 100.56 489.734 101.26C488.754 101.82 487.914 102.24 486.794 102.24C485.674 102.24 484.834 101.82 484.274 100.84C483.854 99.86 483.994 98.88 484.694 98.04C485.254 97.2 486.094 96.64 486.934 96.08C488.474 95.1 490.154 94.4 491.834 93.7C492.534 93.56 493.094 93.28 493.654 92.72C496.734 89.36 499.534 85.58 501.494 81.24C502.054 80.12 502.334 79 502.474 77.74C502.754 75.78 501.914 74.8 499.954 74.94C498.974 74.94 498.134 75.22 497.434 75.5C495.894 76.2 494.634 76.9 493.234 77.88C490.014 80.26 487.074 83.2 484.554 86.42C483.434 87.82 482.454 89.5 481.754 91.32C477.274 103.36 472.374 115.12 467.894 127.16C465.794 133.04 463.834 138.92 461.734 144.8C461.314 145.78 461.034 146.62 460.614 147.6C460.054 148.86 458.794 149.42 457.674 149C456.554 148.44 456.134 147.32 456.694 145.92C459.774 137.1 462.854 128.14 466.214 119.32C471.674 105.46 477.134 91.6 482.174 77.6C483.154 74.94 484.274 72.28 485.254 69.62C485.954 68.08 487.074 67.38 488.334 67.94C489.454 68.36 490.014 70.04 489.454 71.44C488.894 72.84 488.334 74.24 487.774 75.64C487.494 76.06 487.354 76.48 487.214 76.9ZM528.551 95.24C528.551 91.46 529.251 88.52 529.951 85.58C532.471 74.66 535.971 64.02 539.611 53.38C541.991 46.38 544.511 39.38 547.451 32.66C548.431 30.42 549.271 28.18 550.671 26.08C550.951 25.52 551.231 24.96 551.791 24.68C553.191 23.56 554.871 23.98 555.571 25.52C555.851 26.22 555.991 26.78 556.411 27.34C556.971 28.04 557.111 28.74 556.691 29.58C556.271 30.42 555.431 30.84 554.591 30.7C553.191 30.42 552.771 31.26 552.351 32.24C549.271 39.1 546.751 46.1 544.231 53.24C540.591 63.74 537.231 74.24 534.431 85.16C533.731 87.96 533.171 90.9 532.891 93.84C532.751 94.96 532.751 96.22 533.171 97.34C533.451 98.46 533.871 98.74 535.131 98.6C535.971 98.46 536.671 98.18 537.371 97.9C541.991 96.08 546.331 93.7 550.671 91.18C553.891 89.22 557.111 87.26 560.331 85.3C560.891 84.88 561.451 84.6 562.151 84.32C563.131 84.04 563.971 84.46 564.531 85.3C565.091 86.14 564.951 86.98 564.111 87.82C563.971 88.1 563.691 88.24 563.271 88.52C556.411 92.86 549.551 97.2 542.131 100.56C540.031 101.54 537.931 102.52 535.691 102.94C532.891 103.5 530.651 102.38 529.391 99.86C528.551 98.18 528.411 96.36 528.551 95.24ZM578.896 87.12C578.056 88.24 577.356 89.22 576.516 90.2C574.416 92.86 572.316 95.52 569.796 97.9C568.816 99.02 567.556 100 566.296 100.7C565.596 101.12 564.896 101.4 564.056 101.54C561.536 101.96 559.576 100.56 559.156 98.04C558.876 96.64 558.876 95.1 559.156 93.7C560.416 87.68 562.516 81.94 566.296 76.9C568.396 74.1 571.056 71.72 574.416 70.18C576.096 69.48 577.776 69.06 579.596 69.34C581.276 69.62 582.536 70.32 583.656 71.58C584.076 72.14 584.356 72.28 584.916 71.58C586.316 70.32 587.296 70.18 588.276 70.88C589.256 71.58 589.536 72.7 588.836 74.38C587.716 77.04 586.456 79.7 585.336 82.36C583.936 85.72 582.956 89.08 583.096 92.72C583.096 93.7 583.236 94.82 583.796 95.66C584.356 97.06 585.196 97.48 586.736 97.2C589.116 96.78 591.216 95.8 593.456 94.82C600.036 91.88 606.476 88.66 612.776 85.02C613.336 84.74 613.896 84.46 614.456 84.32C615.296 84.18 616.276 84.6 616.696 85.3C617.116 86.14 617.116 87.12 616.416 87.82C616.136 88.1 615.716 88.38 615.296 88.66C607.876 92.86 600.316 96.5 592.616 99.86C590.936 100.56 589.396 101.12 587.576 101.4C583.796 102.24 580.716 100.42 579.456 96.78C578.476 93.98 578.476 91.18 579.036 88.38C579.036 87.96 579.316 87.68 578.896 87.12ZM563.356 95.66C563.496 96.08 563.076 96.64 563.636 96.92C564.196 97.06 564.616 96.78 564.896 96.5C566.156 95.52 567.136 94.54 568.116 93.42C571.616 89.64 574.836 85.44 577.916 81.24C578.756 79.98 579.736 78.86 580.576 77.6C581.556 75.92 580.576 73.82 578.616 73.68C577.356 73.54 576.376 73.96 575.256 74.66C573.156 75.78 571.476 77.32 569.936 79.28C566.996 82.92 565.456 87.12 564.056 91.46C563.776 92.86 563.496 94.26 563.356 95.66ZM612.779 93.42C612.779 89.22 613.759 85.58 614.879 82.08C615.579 79.56 616.559 77.18 617.399 74.8C617.959 73.68 618.379 72.56 618.659 71.3C618.939 70.6 619.219 69.9 619.779 69.34C620.479 68.78 621.319 68.64 622.159 69.06C622.859 69.34 623.279 70.04 623.279 70.88C623.279 71.58 623.139 72.14 622.859 72.7C622.019 75.08 621.179 77.32 620.199 79.56C618.799 83.48 617.679 87.4 617.119 91.46C616.979 92.86 616.979 94.26 617.399 95.66C617.679 96.78 618.239 97.06 619.499 97.06C620.339 97.06 621.179 96.92 621.879 96.64C630.559 93.56 638.959 90.06 646.519 84.74C646.799 84.46 647.079 84.32 647.359 84.18C648.339 83.76 649.179 84.04 649.739 84.74C650.299 85.58 650.439 86.42 649.879 87.26C649.319 87.96 648.619 88.38 648.059 88.94C644.419 91.46 640.359 93.56 636.439 95.38C632.379 97.34 628.319 99.16 624.119 100.56C622.719 100.98 621.319 101.26 619.919 101.54C616.979 101.82 614.459 100.42 613.479 97.48C612.919 96.08 612.779 94.54 612.779 93.42ZM629.439 54.5C629.439 55.48 629.019 56.18 628.319 56.6C627.619 56.88 627.339 57.44 627.059 58.14C626.499 59.54 625.939 60.94 626.219 62.62C626.499 63.6 625.519 64.58 624.539 64.86C623.419 65.14 622.299 64.72 621.739 63.74C621.459 63.04 621.319 62.34 621.459 61.5C622.159 58.56 623.279 55.62 624.679 52.96C624.819 52.4 625.239 51.98 625.659 51.7C626.919 50.86 628.599 51.28 629.019 52.82C629.299 53.38 629.299 54.08 629.439 54.5ZM665.898 87.54C664.078 89.78 662.118 92.02 660.298 94.12C658.198 96.5 656.098 98.74 653.578 100.7C652.738 101.26 651.898 101.68 650.918 101.96C648.678 102.24 646.718 101.12 645.598 98.88C644.758 97.06 644.478 95.1 644.618 93C645.458 85.3 648.678 78.72 654.278 73.26C655.118 72.42 656.238 71.58 657.358 70.88C660.718 68.64 665.058 67.52 669.258 71.72C669.818 71.58 669.678 71.16 669.818 70.74C673.318 58.98 677.238 47.5 682.138 36.3C683.678 32.94 685.218 29.72 686.618 26.5C686.898 25.8 687.178 25.24 687.738 24.68C688.858 23.42 690.538 23.42 691.518 24.96C692.078 25.52 692.358 26.22 692.918 26.78C693.478 27.48 693.618 28.18 693.198 29.02C692.778 29.72 692.078 30.28 691.238 30.14C689.978 29.86 689.558 30.42 689.138 31.4C683.818 42.46 679.618 53.94 675.978 65.56C674.858 68.92 674.018 72.42 673.038 75.78C672.758 76.48 672.618 77.18 672.758 77.74C672.898 78.16 672.758 78.58 672.618 78.86C670.658 83.9 670.238 88.94 670.378 94.26C670.518 95.24 670.658 96.08 671.078 97.06C671.498 97.9 672.058 98.32 673.178 98.32C674.298 98.32 675.278 98.04 676.398 97.62C684.658 94.4 692.498 90.62 699.638 85.16C700.058 84.88 700.478 84.6 700.898 84.32C701.878 84.04 702.858 84.32 703.418 85.02C703.978 85.86 703.978 86.7 703.418 87.54C702.858 88.24 702.298 88.66 701.598 89.08C696.698 92.86 691.238 95.8 685.638 98.46C682.978 99.72 680.178 100.84 677.378 101.82C675.978 102.24 674.438 102.66 672.758 102.66C669.958 102.52 668.138 101.26 667.018 98.74C666.318 96.92 666.038 94.82 665.898 92.72C665.898 91.6 665.898 90.34 666.038 89.22C666.178 88.66 666.178 88.1 666.178 87.68C666.038 87.68 666.038 87.54 665.898 87.54ZM648.958 93.84C649.098 94.68 649.098 95.24 649.098 95.8C649.098 96.08 649.238 96.22 649.378 96.5C649.658 97.62 650.078 97.76 651.058 97.06C652.178 96.36 653.158 95.38 654.138 94.4C658.618 89.64 662.678 84.6 666.738 79.42C667.018 79.14 667.298 78.86 667.158 78.3C666.878 77.46 666.738 76.48 666.458 75.64C665.758 73.96 664.498 73.26 662.538 73.4C661.418 73.4 660.438 73.96 659.598 74.52C656.658 76.48 654.558 79.14 652.738 82.08C650.498 85.72 649.238 89.78 648.958 93.84ZM806.729 1.15999C811.489 1.01999 815.829 1.58 819.889 3.54C826.889 6.89999 829.689 12.5 828.149 20.06C827.169 24.96 825.069 29.44 822.409 33.64C819.049 38.96 815.269 43.72 810.929 48.2C801.549 58.14 791.049 66.54 779.989 74.52C778.309 75.78 776.629 76.76 774.809 77.6C774.389 77.88 774.109 78.02 773.549 78.16C772.429 78.16 771.449 77.6 771.029 76.62C770.749 75.64 771.169 74.66 772.149 74.1C780.829 69.62 787.969 63.04 795.389 57.02C800.149 53.1 804.489 48.9 808.549 44.42C813.169 39.38 817.369 34.06 820.589 28.18C821.849 25.8 822.969 23.28 823.529 20.62C823.949 19.08 824.089 17.68 824.089 16.14C824.229 12.78 822.689 10.4 820.029 8.58C817.649 6.89999 814.849 6.06 811.909 5.63999C805.189 4.8 798.749 5.77999 792.449 7.73999C784.889 9.98 777.889 13.34 771.309 17.54C762.209 23.28 753.949 30.14 746.529 37.98C742.889 41.9 739.529 45.96 737.009 50.72C735.189 54.08 733.789 57.58 733.789 61.5C733.929 64.58 735.189 67.1 737.429 69.06C739.389 70.74 741.629 71.86 744.009 72.98C750.309 75.64 756.889 77.6 763.469 79.42C770.609 81.52 777.889 83.76 784.749 86.7C790.069 89.08 794.969 91.74 799.449 95.52C801.269 97.2 802.949 99.02 804.489 101.12C805.329 102.38 805.329 102.38 806.869 101.68C812.189 99.02 817.369 96.36 822.689 93.84C829.129 90.62 835.709 87.68 842.569 85.16C845.229 84.18 847.889 83.48 850.549 82.78C851.249 82.64 851.949 82.5 852.649 82.64C853.629 82.64 854.189 83.34 854.469 84.18C854.749 85.02 854.329 85.86 853.489 86.42C853.069 86.56 852.649 86.7 852.229 86.84C846.069 88.1 840.329 90.48 834.729 93C825.909 96.78 817.229 101.12 808.689 105.6C808.409 105.74 808.129 105.88 807.849 106.02C807.289 106.3 807.149 106.72 807.289 107.42C807.429 108.26 807.569 109.24 807.569 110.22C807.849 114.7 806.309 118.76 803.929 122.54C801.269 126.88 797.769 130.38 793.989 133.46C785.869 140.04 776.909 144.8 766.829 147.6C764.449 148.3 762.069 148.72 759.549 148.86C757.869 148.86 756.189 148.72 754.509 148.02C751.849 147.04 750.729 144.66 751.289 141.86C751.709 140.18 752.549 138.64 753.529 137.1C756.469 133.18 759.969 129.96 763.749 127.02C770.049 122.26 776.769 118.2 783.629 114.42C789.089 111.2 794.689 108.26 800.149 105.18C801.549 104.48 801.549 104.48 800.709 103.22C798.749 100.42 796.089 98.18 793.289 96.22C788.389 92.86 783.069 90.48 777.469 88.52C770.469 85.86 763.329 84.04 756.189 81.8C751.709 80.54 747.229 79 742.889 77.18C740.929 76.34 738.829 75.22 737.009 74.1C730.709 70.04 728.189 64.16 729.869 56.74C730.989 51.98 733.369 47.78 736.169 43.86C740.649 37.42 746.109 31.96 751.849 26.78C758.709 20.62 766.129 15.3 774.249 10.82C781.669 6.76 789.369 3.54 797.909 2C800.849 1.44 803.929 1.01999 806.729 1.15999ZM802.949 108.68C802.529 108.82 802.389 108.96 802.249 108.96C795.809 112.46 789.509 115.96 783.349 119.46C777.329 122.96 771.449 126.6 765.989 130.8C762.769 133.32 759.689 135.98 757.309 139.34C756.609 140.32 756.049 141.3 755.629 142.42C755.349 143.4 755.629 143.96 756.749 144.24C757.169 144.38 757.589 144.38 758.009 144.38C759.969 144.52 761.929 144.38 763.889 143.82C769.349 142.7 774.389 140.6 779.289 137.94C785.729 134.58 791.609 130.52 796.649 125.06C799.449 121.98 801.829 118.48 802.809 114.42C803.229 112.6 803.649 110.78 802.949 108.68ZM872.839 72.98C871.859 73.12 871.439 73.54 871.019 73.96C866.539 77.32 862.899 81.52 859.539 85.86C855.479 91.18 851.699 96.5 848.339 102.1C848.059 102.66 847.779 103.08 847.359 103.5C846.659 104.34 845.819 104.48 844.979 104.06C844.139 103.78 843.719 102.94 843.719 101.96C843.859 101.54 843.859 101.12 844.139 100.7C848.619 89.08 852.819 77.46 857.579 65.98C863.039 52.96 868.639 40.08 874.239 27.06C874.519 26.08 875.079 25.24 875.499 24.4C876.059 23.42 876.899 23 878.019 23.14C878.999 23.28 879.559 23.98 879.839 24.96C879.979 25.38 880.119 25.66 880.399 26.08C881.379 27.9 880.959 29.44 878.859 30C877.599 30.28 877.179 31.12 876.759 32.1C873.679 39.24 870.739 46.38 867.659 53.38C863.599 62.76 859.679 72.14 856.039 81.52C855.759 82.36 855.479 83.06 855.199 83.76C855.339 83.9 855.479 83.9 855.479 83.9C856.039 83.2 856.739 82.5 857.299 81.8C860.659 77.46 864.299 73.54 868.639 70.18C869.759 69.34 870.879 68.64 872.139 68.22C875.079 67.24 877.319 68.78 877.459 71.86C877.459 73.68 877.039 75.36 876.619 77.04C875.499 81.38 874.239 85.58 873.259 90.06C873.119 90.9 872.979 91.74 872.839 92.58C872.699 93.56 872.699 94.54 872.839 95.52C872.979 98.04 873.959 98.74 876.479 97.9C883.479 95.66 890.199 92.86 896.219 88.94C897.199 88.24 898.179 87.54 899.019 86.84C899.579 86.56 899.999 86.14 900.559 86C901.399 85.72 902.239 85.86 902.939 86.7C903.499 87.4 903.499 88.24 903.079 89.08C902.799 89.5 902.379 89.78 901.959 90.06C899.579 92.02 896.919 93.7 894.259 95.1C889.219 97.9 884.039 100 878.719 101.82C877.599 102.24 876.479 102.52 875.359 102.66C873.119 102.94 871.299 102.1 870.039 100.28C868.779 98.46 868.219 96.36 868.359 94.12C868.499 91.88 868.919 89.78 869.339 87.54C870.319 83.76 871.299 79.98 872.419 76.06C872.559 75.08 872.979 74.1 872.839 72.98ZM898.795 93.42C898.795 89.22 899.775 85.58 900.895 82.08C901.595 79.56 902.575 77.18 903.415 74.8C903.975 73.68 904.395 72.56 904.675 71.3C904.955 70.6 905.235 69.9 905.795 69.34C906.495 68.78 907.335 68.64 908.175 69.06C908.875 69.34 909.295 70.04 909.295 70.88C909.295 71.58 909.155 72.14 908.875 72.7C908.035 75.08 907.195 77.32 906.215 79.56C904.815 83.48 903.695 87.4 903.135 91.46C902.995 92.86 902.995 94.26 903.415 95.66C903.695 96.78 904.255 97.06 905.515 97.06C906.355 97.06 907.195 96.92 907.895 96.64C916.575 93.56 924.975 90.06 932.535 84.74C932.815 84.46 933.095 84.32 933.375 84.18C934.355 83.76 935.195 84.04 935.755 84.74C936.315 85.58 936.455 86.42 935.895 87.26C935.335 87.96 934.635 88.38 934.075 88.94C930.435 91.46 926.375 93.56 922.455 95.38C918.395 97.34 914.335 99.16 910.135 100.56C908.735 100.98 907.335 101.26 905.935 101.54C902.995 101.82 900.475 100.42 899.495 97.48C898.935 96.08 898.795 94.54 898.795 93.42ZM915.455 54.5C915.455 55.48 915.035 56.18 914.335 56.6C913.635 56.88 913.355 57.44 913.075 58.14C912.515 59.54 911.955 60.94 912.235 62.62C912.515 63.6 911.535 64.58 910.555 64.86C909.435 65.14 908.315 64.72 907.755 63.74C907.475 63.04 907.335 62.34 907.475 61.5C908.175 58.56 909.295 55.62 910.695 52.96C910.835 52.4 911.255 51.98 911.675 51.7C912.935 50.86 914.615 51.28 915.035 52.82C915.315 53.38 915.315 54.08 915.455 54.5ZM935.814 89.78C936.654 88.52 937.494 87.26 938.474 86C941.134 82.08 944.214 78.3 947.574 74.8C948.554 73.68 949.814 72.7 951.074 71.86C953.734 70.18 955.974 70.74 957.794 73.26C957.934 73.4 958.074 73.68 958.354 73.96C962.134 80.26 968.294 82.36 975.154 82.92C976.274 83.06 977.394 82.92 978.514 82.5C978.934 82.36 979.354 82.22 979.774 82.22C980.754 82.08 981.594 82.64 982.014 83.48C982.294 84.46 982.014 85.3 981.314 85.86C980.894 86.28 980.334 86.42 979.914 86.56C976.554 87.82 973.334 87.54 969.974 86.7C966.614 85.86 963.534 84.46 960.594 82.64C958.214 81.24 956.534 79.14 954.994 76.9C953.874 75.08 953.734 74.94 952.054 76.48C947.154 81.24 942.954 86.7 939.314 92.44C937.214 95.8 935.114 99.3 933.014 102.8C932.454 103.64 931.894 104.48 931.334 105.32C930.634 106.16 929.654 106.72 928.394 106.3C927.414 106.02 926.854 105.04 926.854 103.64C926.714 101.68 927.274 99.72 927.974 97.9C929.374 93.28 931.194 88.8 933.014 84.32C934.414 80.68 935.954 77.04 937.494 73.4C937.634 72.98 937.634 72.7 937.914 72.42C938.614 71.3 940.014 71.02 941.134 71.72C942.254 72.56 942.674 73.96 941.694 74.94C940.854 76.06 940.574 77.32 940.014 78.44C938.474 82.22 937.074 86 935.534 89.64C935.534 89.78 935.674 89.78 935.814 89.78ZM991.942 47.36C989.842 47.22 987.882 47.64 985.922 47.78C980.462 48.34 974.862 49.04 969.402 49.88C965.902 50.58 962.402 51.28 958.902 52.26C958.062 52.4 957.362 52.82 956.802 53.52C955.682 54.92 952.742 54.92 951.482 53.66C950.642 52.68 950.782 51.28 951.902 50.3C952.742 49.74 953.722 49.46 954.562 49.04C958.062 47.92 961.562 47.08 965.202 46.38C971.222 45.12 977.242 44.42 983.262 43.72C986.482 43.44 989.562 43.16 992.642 42.88C993.622 42.74 993.902 42.18 994.182 41.48C995.162 38.54 996.422 35.6 997.682 32.8C998.802 30.42 999.922 28.04 1001.32 25.66C1001.6 25.1 1002.02 24.54 1002.58 24.12C1003.84 22.86 1005.66 23.28 1006.36 24.96C1006.5 25.52 1006.64 26.08 1006.64 26.78C1006.64 27.48 1006.64 28.32 1006.78 29.02C1006.92 30.7 1005.94 31.96 1004.26 31.68C1003.14 31.54 1002.72 32.1 1002.3 32.94C1001.18 35.46 1000.2 37.98 999.222 40.5C998.942 40.92 998.662 41.48 998.802 42.04C999.362 42.32 999.922 42.18 1000.34 42.18C1005.66 41.62 1011.12 41.48 1016.44 41.06C1018.82 40.92 1021.2 40.78 1023.44 40.78C1028.48 40.5 1033.52 40.36 1038.56 40.5C1043.32 40.5 1048.08 40.5 1052.7 41.34C1054.66 41.62 1056.62 41.9 1058.44 42.74C1059.56 43.3 1060.54 44 1060.96 45.26C1061.38 46.38 1060.96 47.5 1060.12 48.06C1059.14 48.62 1058.16 48.48 1057.32 47.5C1056.62 46.66 1055.92 46.38 1055.08 46.1C1053.26 45.68 1051.3 45.4 1049.48 45.26C1045.84 44.84 1042.2 44.84 1038.56 44.84C1034.36 44.84 1030.3 44.84 1026.1 44.98C1021.06 45.26 1015.88 45.4 1010.84 45.82C1007.2 46.1 1003.56 46.24 999.922 46.52C996.842 46.66 996.842 46.66 995.862 49.46C993.062 57.3 990.122 65.14 987.602 73.26C985.782 79.14 984.102 85.02 982.982 91.04C982.562 93.14 982.282 95.38 982.422 97.48C982.422 100 982.842 100.28 985.222 99.58C988.162 98.88 990.962 97.76 993.902 96.5C1000.62 93.56 1007.2 90.06 1013.08 85.44C1014.48 84.32 1015.88 84.32 1016.72 85.44C1017.56 86.42 1017.14 87.68 1015.74 88.8C1012.8 91.32 1009.58 93.42 1006.22 95.24C1000.34 98.46 994.322 101.4 987.882 103.36C986.622 103.78 985.362 104.06 984.102 104.2C981.302 104.62 979.202 103.22 978.362 100.56C977.802 98.46 977.802 96.36 978.082 94.26C978.502 89.5 979.762 84.74 981.022 80.12C983.962 69.76 987.602 59.82 991.102 49.74C991.382 49.04 991.662 48.34 991.942 47.36Z" fill="#C5A68B"/>
</svg>
