<svg width="1092" height="157" viewBox="0 0 1092 157" fill="none" xmlns="http://www.w3.org/2000/svg">
<path d="M84.5771 102.97C85.2771 103.11 85.8371 102.83 86.2571 102.69C95.3571 99.7499 104.317 96.9499 113.557 94.7099C118.597 93.4499 123.777 92.3299 129.097 91.7699C130.917 91.6299 132.597 91.6299 134.417 92.1899C134.837 92.3299 135.257 92.4699 135.677 92.7499C136.517 93.3099 136.937 94.4299 136.517 95.2699C136.237 96.2499 135.257 96.8099 134.277 96.5299C130.217 95.4099 126.437 96.3899 122.657 97.0899C111.877 99.1899 101.517 102.41 91.1571 105.63C87.7971 106.61 84.5771 107.87 81.2171 108.85C79.9571 109.27 79.1171 109.97 78.2771 110.95C74.2171 115.99 69.8771 120.75 65.1171 125.23C59.5171 130.27 53.4971 134.89 46.7771 138.53C43.6971 140.07 40.4771 141.47 36.8371 141.75C36.2771 141.75 35.5771 141.75 35.0171 141.61C31.0971 141.05 29.2771 137.97 30.3971 134.19C31.3771 131.25 33.3371 129.01 35.4371 126.91C39.2171 123.27 43.5571 120.47 48.1771 117.95C55.3171 113.89 62.8771 110.81 70.5771 108.01C72.2571 107.45 73.7971 106.89 75.4771 106.33C76.3171 106.05 77.0171 105.49 77.5771 104.79C81.7771 99.4699 85.5571 93.7299 89.0571 87.9899C93.8171 80.0099 97.8771 71.7499 100.957 62.9299C103.757 54.9499 105.717 46.6899 105.717 38.1499C105.577 32.9699 104.877 27.7899 102.497 23.0299C99.1371 16.0299 93.3971 11.8299 85.6971 10.4299C78.4171 9.16989 71.2771 10.1499 64.2771 11.9699C49.5771 15.7499 36.2771 22.3299 24.2371 31.7099C18.9171 36.0499 14.0171 40.8099 9.95709 46.4099C8.13709 49.2099 6.45709 52.2899 5.75709 55.6499C5.19709 57.8899 5.19709 60.2699 6.03709 62.5099C6.59709 64.0499 7.43709 65.3099 8.97709 66.0099C10.3771 66.5699 10.7971 67.6899 10.3771 68.6699C9.95709 69.9299 8.69709 70.4899 7.29709 69.9299C5.19709 69.0899 3.65709 67.5499 2.67709 65.5899C0.85709 62.0899 0.57709 58.4499 1.41709 54.6699C2.25709 51.0299 3.93709 47.8099 5.89709 44.7299C9.67709 38.9899 14.4371 34.2299 19.6171 29.8899C27.3171 23.4499 35.7171 18.4099 44.8171 14.2099C53.0771 10.4299 61.6171 7.48989 70.7171 6.22989C76.5971 5.38989 82.4771 5.24989 88.2171 6.64989C93.3971 7.7699 97.8771 10.2899 101.657 14.0699C104.597 17.1499 106.697 20.9299 108.097 25.1299C109.357 28.9099 109.917 32.8299 109.917 36.8899C110.197 47.8099 107.537 58.1699 103.617 68.2499C98.9971 80.0099 92.6971 91.0699 85.4171 101.57C85.1371 101.99 84.7171 102.27 84.5771 102.97ZM70.9971 112.77C70.4371 112.63 70.1571 112.77 69.8771 112.91C67.3571 113.89 64.9771 114.73 62.5971 115.71C55.4571 118.79 48.4571 122.15 42.2971 126.91C40.3371 128.31 38.5171 129.85 36.9771 131.67C35.9971 132.79 35.1571 133.91 34.7371 135.17C34.3171 136.71 34.7371 137.27 36.2771 137.41C37.6771 137.41 38.9371 137.13 40.1971 136.71C43.5571 135.45 46.6371 133.63 49.5771 131.81C56.0171 127.61 61.7571 122.71 67.0771 117.25C68.3371 115.85 69.7371 114.45 70.9971 112.77ZM52.7971 28.3499C52.6571 29.6099 52.5171 30.7299 52.2371 31.8499C52.2371 32.1299 52.0971 32.2699 51.9571 32.4099C50.6971 33.3899 50.2771 34.9299 49.7171 36.3299C45.9371 45.7099 41.7371 55.0899 37.8171 64.4699C33.0571 75.3899 28.7171 86.3099 24.5171 97.5099C19.4771 111.09 14.4371 124.81 9.39709 138.39C8.83709 140.21 7.99709 142.03 7.43709 143.85C7.01709 144.83 6.59709 145.67 6.73709 146.79C6.73709 147.35 6.45709 147.77 6.17709 148.19C5.33709 149.31 4.21709 149.73 3.23709 149.31C2.11709 148.89 1.55709 147.77 1.97709 146.37C2.11709 145.53 2.39709 144.83 2.67709 143.99C7.43709 131.53 12.1971 118.93 16.6771 106.33C23.3971 87.4299 30.9571 68.8099 39.0771 50.4699C42.1571 43.3299 45.0971 36.0499 48.1771 28.9099C48.4571 28.2099 48.7371 27.5099 49.1571 26.9499C49.8571 26.2499 50.6971 25.9699 51.5371 26.3899C52.5171 26.8099 52.9371 27.5099 52.7971 28.3499ZM133.025 99.1899C133.025 94.9899 134.005 91.3499 135.125 87.8499C135.825 85.3299 136.805 82.9499 137.645 80.5699C138.205 79.4499 138.625 78.3299 138.905 77.0699C139.185 76.3699 139.465 75.6699 140.025 75.1099C140.725 74.5499 141.565 74.4099 142.405 74.8299C143.105 75.1099 143.525 75.8099 143.525 76.6499C143.525 77.3499 143.385 77.9099 143.105 78.4699C142.265 80.8499 141.425 83.0899 140.445 85.3299C139.045 89.2499 137.925 93.1699 137.365 97.2299C137.225 98.6299 137.225 100.03 137.645 101.43C137.925 102.55 138.485 102.83 139.745 102.83C140.585 102.83 141.425 102.69 142.125 102.41C150.805 99.3299 159.205 95.8299 166.765 90.5099C167.045 90.2299 167.325 90.0899 167.605 89.9499C168.585 89.5299 169.425 89.8099 169.985 90.5099C170.545 91.3499 170.685 92.1899 170.125 93.0299C169.565 93.7299 168.865 94.1499 168.305 94.7099C164.665 97.2299 160.605 99.3299 156.685 101.15C152.625 103.11 148.565 104.93 144.365 106.33C142.965 106.75 141.565 107.03 140.165 107.31C137.225 107.59 134.705 106.19 133.725 103.25C133.165 101.85 133.025 100.31 133.025 99.1899ZM149.685 60.2699C149.685 61.2499 149.265 61.9499 148.565 62.3699C147.865 62.6499 147.585 63.2099 147.305 63.9099C146.745 65.3099 146.185 66.7099 146.465 68.3899C146.745 69.3699 145.765 70.3499 144.785 70.6299C143.665 70.9099 142.545 70.4899 141.985 69.5099C141.705 68.8099 141.565 68.1099 141.705 67.2699C142.405 64.3299 143.525 61.3899 144.925 58.7299C145.065 58.1699 145.485 57.7499 145.905 57.4699C147.165 56.6299 148.845 57.0499 149.265 58.5899C149.545 59.1499 149.545 59.8499 149.685 60.2699ZM203.084 92.8899C204.624 92.8899 206.304 92.8899 207.844 92.6099C209.944 92.3299 211.904 91.9099 213.724 90.9299C215.264 90.2299 216.524 90.5099 217.084 91.7699C217.644 92.8899 217.084 94.0099 215.544 94.8499C213.164 96.1099 210.504 96.8099 207.844 97.0899C202.944 97.5099 198.184 97.2299 193.424 96.3899C191.744 95.9699 190.064 95.4099 188.384 94.5699C187.404 94.0099 187.404 94.0099 186.704 94.9899C185.164 97.3699 183.484 99.6099 181.664 101.85C180.124 103.67 178.444 105.49 176.484 107.03C175.504 107.73 174.524 108.29 173.404 108.71C170.744 109.69 168.224 108.71 166.824 106.05C166.124 104.51 165.844 102.83 165.704 101.01C165.564 97.2299 166.124 93.4499 166.824 89.6699C167.524 85.1899 168.504 80.8499 169.624 76.3699C169.764 75.9499 169.904 75.3899 170.184 74.9699C170.744 73.9899 171.584 73.5699 172.564 73.7099C173.404 73.9899 174.104 74.6899 174.244 75.6699C174.384 76.2299 174.244 76.7899 174.104 77.3499C172.564 81.8299 171.724 86.4499 170.884 91.2099C170.464 93.5899 170.324 96.1099 170.044 98.4899C169.904 100.17 170.044 101.99 170.604 103.53C171.024 104.79 171.444 104.93 172.564 104.37C174.244 103.39 175.644 102.13 176.904 100.73C179.564 97.9299 181.664 94.8499 183.764 91.7699C184.184 90.9299 184.184 90.3699 183.904 89.5299C181.804 84.6299 182.644 80.1499 185.584 75.9499C186.004 75.3899 186.564 74.8299 187.264 74.4099C189.784 72.7299 192.724 73.9899 193.144 77.2099C193.284 78.4699 193.284 79.8699 193.004 81.2699C192.444 83.7899 191.604 86.3099 190.344 88.6899C189.644 90.2299 189.784 90.3699 191.184 91.0699C192.304 91.6299 193.564 91.9099 194.824 92.1899C197.484 92.6099 200.284 93.0299 203.084 92.8899ZM188.804 79.1699C187.544 80.8499 186.984 82.9499 187.404 84.4899C188.244 82.8099 188.664 81.1299 188.804 79.1699ZM213.142 99.1899C213.142 94.9899 214.122 91.3499 215.242 87.8499C215.942 85.3299 216.922 82.9499 217.762 80.5699C218.322 79.4499 218.742 78.3299 219.022 77.0699C219.302 76.3699 219.582 75.6699 220.142 75.1099C220.842 74.5499 221.682 74.4099 222.522 74.8299C223.222 75.1099 223.642 75.8099 223.642 76.6499C223.642 77.3499 223.502 77.9099 223.222 78.4699C222.382 80.8499 221.542 83.0899 220.562 85.3299C219.162 89.2499 218.042 93.1699 217.482 97.2299C217.342 98.6299 217.342 100.03 217.762 101.43C218.042 102.55 218.602 102.83 219.862 102.83C220.702 102.83 221.542 102.69 222.242 102.41C230.922 99.3299 239.322 95.8299 246.882 90.5099C247.162 90.2299 247.442 90.0899 247.722 89.9499C248.702 89.5299 249.542 89.8099 250.102 90.5099C250.662 91.3499 250.802 92.1899 250.242 93.0299C249.682 93.7299 248.982 94.1499 248.422 94.7099C244.782 97.2299 240.722 99.3299 236.802 101.15C232.742 103.11 228.682 104.93 224.482 106.33C223.082 106.75 221.682 107.03 220.282 107.31C217.342 107.59 214.822 106.19 213.842 103.25C213.282 101.85 213.142 100.31 213.142 99.1899ZM229.802 60.2699C229.802 61.2499 229.382 61.9499 228.682 62.3699C227.982 62.6499 227.702 63.2099 227.422 63.9099C226.862 65.3099 226.302 66.7099 226.582 68.3899C226.862 69.3699 225.882 70.3499 224.902 70.6299C223.782 70.9099 222.662 70.4899 222.102 69.5099C221.822 68.8099 221.682 68.1099 221.822 67.2699C222.522 64.3299 223.642 61.3899 225.042 58.7299C225.182 58.1699 225.602 57.7499 226.022 57.4699C227.282 56.6299 228.962 57.0499 229.382 58.5899C229.662 59.1499 229.662 59.8499 229.802 60.2699ZM251.701 91.9099C252.541 90.7899 253.381 89.8099 254.221 88.8299C257.721 84.2099 261.781 80.0099 266.261 76.3699C267.101 75.5299 268.081 74.9699 268.921 74.2699C269.621 73.8499 270.181 73.5699 271.021 73.4299C272.981 72.8699 274.661 73.8499 275.081 75.8099C275.361 77.0699 275.361 78.1899 275.081 79.3099C274.521 83.2299 273.261 86.8699 272.421 90.6499C271.721 93.4499 271.161 96.2499 270.741 99.0499C270.601 100.17 270.461 101.43 270.601 102.55C270.881 103.81 271.441 104.23 272.701 103.95C274.241 103.67 275.781 103.11 277.321 102.27C283.621 99.0499 289.781 95.5499 295.941 91.9099C296.361 91.6299 296.921 91.2099 297.481 91.0699C298.601 90.6499 299.581 90.9299 300.141 91.7699C300.841 92.7499 300.561 93.8699 299.581 94.7099C298.041 95.6899 296.501 96.6699 294.961 97.5099C289.501 100.73 283.901 103.95 278.161 106.75C276.201 107.59 274.101 108.29 272.001 108.29C269.341 108.29 267.521 107.03 266.681 104.51C266.121 102.97 266.121 101.43 266.261 99.8899C266.821 94.1499 268.361 88.5499 269.901 82.9499C270.321 81.5499 270.601 80.1499 270.741 78.4699C269.901 78.7499 269.341 79.3099 268.781 79.8699C264.021 83.6499 260.101 88.1299 256.461 92.8899C253.101 97.0899 250.021 101.43 247.081 105.91C246.661 106.61 246.101 107.31 245.541 107.87C244.701 108.85 243.581 109.13 242.601 108.71C241.761 108.15 241.201 107.17 241.481 105.91C241.621 104.79 242.041 103.67 242.461 102.55C244.421 97.5099 246.381 92.4699 248.621 87.4299C250.301 83.5099 252.121 79.5899 253.801 75.5299C253.941 75.3899 253.941 75.2499 254.081 74.9699C254.781 73.5699 256.041 73.0099 257.301 73.7099C258.421 74.2699 258.841 75.9499 258.141 77.0699C255.761 81.4099 254.081 86.1699 251.981 90.6499C251.841 90.9299 251.701 91.3499 251.561 91.7699C251.701 91.7699 251.701 91.7699 251.701 91.9099ZM311.387 119.77C312.507 118.79 313.627 117.95 314.747 117.11C324.967 109.13 335.187 101.15 345.827 93.7299C346.667 93.1699 347.367 92.6099 348.207 92.0499C349.327 91.4899 350.587 91.6299 351.147 92.6099C351.847 93.5899 351.707 94.8499 350.587 95.5499C348.067 97.5099 345.407 99.1899 342.887 101.15C331.267 109.69 319.787 118.37 308.727 127.47C308.027 128.03 307.467 128.87 307.187 129.71C305.087 134.75 302.987 139.93 300.187 144.69C298.787 147.07 297.387 149.17 295.707 151.27C294.447 152.67 293.047 153.93 291.507 155.05C290.807 155.47 289.967 155.89 289.127 156.03C285.907 157.01 283.247 154.91 283.387 151.55C283.527 150.43 283.667 149.45 284.087 148.47C285.347 145.11 287.447 142.31 289.827 139.65C293.607 135.03 297.947 130.97 302.567 127.05C303.407 126.35 304.107 125.51 304.527 124.53C308.447 114.87 311.947 105.07 315.587 95.2699C315.587 94.9899 315.727 94.7099 315.587 94.2899C315.027 94.9899 314.467 95.6899 313.907 96.2499C311.527 99.0499 309.147 101.71 306.347 103.95C305.227 104.93 304.107 105.77 302.847 106.33C300.187 107.45 297.807 106.61 296.547 103.95C295.567 101.71 295.567 99.3299 295.987 96.9499C297.387 89.1099 301.307 82.6699 307.747 77.9099C309.427 76.6499 311.247 75.6699 313.207 75.3899C316.287 74.9699 318.947 75.5299 320.767 78.3299C320.907 78.4699 321.047 78.7499 321.327 78.7499C321.887 78.0499 322.307 77.3499 323.007 76.6499C323.707 75.9499 324.687 75.8099 325.527 76.2299C326.367 76.7899 326.927 77.7699 326.647 78.7499C326.507 79.1699 326.367 79.5899 326.087 80.1499C325.247 82.3899 324.267 84.7699 323.287 87.0099C320.067 94.8499 317.547 102.97 314.467 110.81C313.487 113.19 312.647 115.57 311.807 117.81C311.527 118.37 311.247 118.93 311.387 119.77ZM300.047 99.1899C300.047 100.03 300.047 100.59 300.327 101.29C300.607 102.41 300.887 102.55 301.867 101.99C303.547 100.87 304.947 99.6099 306.347 98.0699C309.987 94.4299 313.207 90.5099 316.287 86.3099C317.127 85.1899 317.967 84.2099 317.407 82.8099C317.267 82.6699 317.407 82.5299 317.407 82.5299C317.547 80.2899 316.287 79.4499 314.187 79.7299C312.647 79.8699 311.247 80.5699 309.987 81.5499C305.927 84.6299 303.127 88.5499 301.447 93.3099C300.747 95.2699 300.187 97.2299 300.047 99.1899ZM299.627 135.45C299.347 135.73 299.067 136.01 298.927 136.29C296.407 138.67 294.027 141.19 291.927 143.85C290.667 145.39 289.547 147.07 288.707 148.89C288.427 149.45 288.147 150.15 288.007 150.71C287.867 150.99 287.727 151.41 288.007 151.69C288.287 151.83 288.567 151.69 288.847 151.55C289.967 150.85 291.087 150.01 291.927 149.03C295.287 145.11 297.667 140.49 299.767 135.87C299.767 135.87 299.767 135.73 299.627 135.45ZM375.29 99.1899C375.29 94.9899 376.27 91.3499 377.39 87.8499C378.09 85.3299 379.07 82.9499 379.91 80.5699C380.47 79.4499 380.89 78.3299 381.17 77.0699C381.45 76.3699 381.73 75.6699 382.29 75.1099C382.99 74.5499 383.83 74.4099 384.67 74.8299C385.37 75.1099 385.79 75.8099 385.79 76.6499C385.79 77.3499 385.65 77.9099 385.37 78.4699C384.53 80.8499 383.69 83.0899 382.71 85.3299C381.31 89.2499 380.19 93.1699 379.63 97.2299C379.49 98.6299 379.49 100.03 379.91 101.43C380.19 102.55 380.75 102.83 382.01 102.83C382.85 102.83 383.69 102.69 384.39 102.41C393.07 99.3299 401.47 95.8299 409.03 90.5099C409.31 90.2299 409.59 90.0899 409.87 89.9499C410.85 89.5299 411.69 89.8099 412.25 90.5099C412.81 91.3499 412.95 92.1899 412.39 93.0299C411.83 93.7299 411.13 94.1499 410.57 94.7099C406.93 97.2299 402.87 99.3299 398.95 101.15C394.89 103.11 390.83 104.93 386.63 106.33C385.23 106.75 383.83 107.03 382.43 107.31C379.49 107.59 376.97 106.19 375.99 103.25C375.43 101.85 375.29 100.31 375.29 99.1899ZM391.95 60.2699C391.95 61.2499 391.53 61.9499 390.83 62.3699C390.13 62.6499 389.85 63.2099 389.57 63.9099C389.01 65.3099 388.45 66.7099 388.73 68.3899C389.01 69.3699 388.03 70.3499 387.05 70.6299C385.93 70.9099 384.81 70.4899 384.25 69.5099C383.97 68.8099 383.83 68.1099 383.97 67.2699C384.67 64.3299 385.79 61.3899 387.19 58.7299C387.33 58.1699 387.75 57.7499 388.17 57.4699C389.43 56.6299 391.11 57.0499 391.53 58.5899C391.81 59.1499 391.81 59.8499 391.95 60.2699ZM413.849 91.9099C414.689 90.7899 415.529 89.8099 416.369 88.8299C419.869 84.2099 423.929 80.0099 428.409 76.3699C429.249 75.5299 430.229 74.9699 431.069 74.2699C431.769 73.8499 432.329 73.5699 433.169 73.4299C435.129 72.8699 436.809 73.8499 437.229 75.8099C437.509 77.0699 437.509 78.1899 437.229 79.3099C436.669 83.2299 435.409 86.8699 434.569 90.6499C433.869 93.4499 433.309 96.2499 432.889 99.0499C432.749 100.17 432.609 101.43 432.749 102.55C433.029 103.81 433.589 104.23 434.849 103.95C436.389 103.67 437.929 103.11 439.469 102.27C445.769 99.0499 451.929 95.5499 458.089 91.9099C458.509 91.6299 459.069 91.2099 459.629 91.0699C460.749 90.6499 461.729 90.9299 462.289 91.7699C462.989 92.7499 462.709 93.8699 461.729 94.7099C460.189 95.6899 458.649 96.6699 457.109 97.5099C451.649 100.73 446.049 103.95 440.309 106.75C438.349 107.59 436.249 108.29 434.149 108.29C431.489 108.29 429.669 107.03 428.829 104.51C428.269 102.97 428.269 101.43 428.409 99.8899C428.969 94.1499 430.509 88.5499 432.049 82.9499C432.469 81.5499 432.749 80.1499 432.889 78.4699C432.049 78.7499 431.489 79.3099 430.929 79.8699C426.169 83.6499 422.249 88.1299 418.609 92.8899C415.249 97.0899 412.169 101.43 409.229 105.91C408.809 106.61 408.249 107.31 407.689 107.87C406.849 108.85 405.729 109.13 404.749 108.71C403.909 108.15 403.349 107.17 403.629 105.91C403.769 104.79 404.189 103.67 404.609 102.55C406.569 97.5099 408.529 92.4699 410.769 87.4299C412.449 83.5099 414.269 79.5899 415.949 75.5299C416.089 75.3899 416.089 75.2499 416.229 74.9699C416.929 73.5699 418.189 73.0099 419.449 73.7099C420.569 74.2699 420.989 75.9499 420.289 77.0699C417.909 81.4099 416.229 86.1699 414.129 90.6499C413.989 90.9299 413.849 91.3499 413.709 91.7699C413.849 91.7699 413.849 91.7699 413.849 91.9099ZM471.855 53.1299C469.755 52.9899 467.795 53.4099 465.835 53.5499C460.375 54.1099 454.775 54.8099 449.315 55.6499C445.815 56.3499 442.315 57.0499 438.815 58.0299C437.975 58.1699 437.275 58.5899 436.715 59.2899C435.595 60.6899 432.655 60.6899 431.395 59.4299C430.555 58.4499 430.695 57.0499 431.815 56.0699C432.655 55.5099 433.635 55.2299 434.475 54.8099C437.975 53.6899 441.475 52.8499 445.115 52.1499C451.135 50.8899 457.155 50.1899 463.175 49.4899C466.395 49.2099 469.475 48.9299 472.555 48.6499C473.535 48.5099 473.815 47.9499 474.095 47.2499C475.075 44.3099 476.335 41.3699 477.595 38.5699C478.715 36.1899 479.835 33.8099 481.235 31.4299C481.515 30.8699 481.935 30.3099 482.495 29.8899C483.755 28.6299 485.575 29.0499 486.275 30.7299C486.415 31.2899 486.555 31.8499 486.555 32.5499C486.555 33.2499 486.555 34.0899 486.695 34.7899C486.835 36.4699 485.855 37.7299 484.175 37.4499C483.055 37.3099 482.635 37.8699 482.215 38.7099C481.095 41.2299 480.115 43.7499 479.135 46.2699C478.855 46.6899 478.575 47.2499 478.715 47.8099C479.275 48.0899 479.835 47.9499 480.255 47.9499C485.575 47.3899 491.035 47.2499 496.355 46.8299C498.735 46.6899 501.115 46.5499 503.355 46.5499C508.395 46.2699 513.435 46.1299 518.475 46.2699C523.235 46.2699 527.995 46.2699 532.615 47.1099C534.575 47.3899 536.535 47.6699 538.355 48.5099C539.475 49.0699 540.455 49.7699 540.875 51.0299C541.295 52.1499 540.875 53.2699 540.035 53.8299C539.055 54.3899 538.075 54.2499 537.235 53.2699C536.535 52.4299 535.835 52.1499 534.995 51.8699C533.175 51.4499 531.215 51.1699 529.395 51.0299C525.755 50.6099 522.115 50.6099 518.475 50.6099C514.275 50.6099 510.215 50.6099 506.015 50.7499C500.975 51.0299 495.795 51.1699 490.755 51.5899C487.115 51.8699 483.475 52.0099 479.835 52.2899C476.755 52.4299 476.755 52.4299 475.775 55.2299C472.975 63.0699 470.035 70.9099 467.515 79.0299C465.695 84.9099 464.015 90.7899 462.895 96.8099C462.475 98.9099 462.195 101.15 462.335 103.25C462.335 105.77 462.755 106.05 465.135 105.35C468.075 104.65 470.875 103.53 473.815 102.27C480.535 99.3299 487.115 95.8299 492.995 91.2099C494.395 90.0899 495.795 90.0899 496.635 91.2099C497.475 92.1899 497.055 93.4499 495.655 94.5699C492.715 97.0899 489.495 99.1899 486.135 101.01C480.255 104.23 474.235 107.17 467.795 109.13C466.535 109.55 465.275 109.83 464.015 109.97C461.215 110.39 459.115 108.99 458.275 106.33C457.715 104.23 457.715 102.13 457.995 100.03C458.415 95.2699 459.675 90.5099 460.935 85.8899C463.875 75.5299 467.515 65.5899 471.015 55.5099C471.295 54.8099 471.575 54.1099 471.855 53.1299ZM526.351 98.9099C524.531 98.9099 522.851 99.0499 521.171 98.7699C519.491 98.4899 517.671 98.2099 516.131 97.3699C515.431 97.0899 515.011 97.2299 514.591 97.7899C513.051 99.7499 511.511 101.71 509.691 103.39C507.591 105.35 505.351 107.17 502.831 108.29C501.711 108.85 500.591 109.27 499.331 109.41C496.391 109.97 493.731 108.71 492.331 105.91C491.631 104.51 491.211 102.97 491.211 101.43C490.931 97.7899 491.631 94.4299 493.031 91.0699C494.851 86.0299 497.651 81.6899 501.571 78.1899C503.811 76.2299 506.191 74.8299 509.271 74.5499C511.931 74.2699 514.171 75.2499 515.991 77.2099C516.691 78.1899 516.691 79.4499 517.251 80.4299C517.811 81.4099 518.791 81.9699 519.211 83.0899C519.631 84.6299 519.631 86.1699 519.351 87.5699C519.071 89.1099 518.651 90.5099 518.091 91.7699C517.531 93.1699 517.671 93.4499 519.071 93.8699C520.751 94.4299 522.431 94.5699 523.971 94.5699C528.031 94.8499 532.091 94.4299 536.011 93.7299C537.551 93.4499 539.091 93.0299 540.491 92.3299C540.771 92.1899 540.911 92.0499 541.191 91.9099C542.311 91.6299 543.291 92.0499 543.851 92.8899C544.271 93.7299 544.131 94.8499 543.291 95.5499C542.731 95.9699 542.171 96.2499 541.471 96.5299C538.951 97.7899 536.151 98.2099 533.351 98.4899C530.971 98.9099 528.591 99.0499 526.351 98.9099ZM495.411 99.7499C495.411 101.01 495.551 101.99 495.831 102.97C496.391 104.79 497.231 105.35 499.051 105.07C500.731 104.79 502.131 103.95 503.391 102.97C506.471 100.87 508.991 98.2099 511.091 95.2699C511.651 94.5699 511.791 94.0099 511.231 93.1699C508.711 89.5299 508.991 84.2099 512.211 81.1299C512.911 80.4299 512.771 80.0099 511.931 79.4499C510.811 78.6099 509.551 78.7499 508.151 79.0299C506.751 79.5899 505.491 80.4299 504.371 81.4099C501.011 84.6299 498.771 88.4099 497.091 92.6099C496.111 94.9899 495.551 97.5099 495.411 99.7499ZM514.871 84.9099C513.751 86.3099 513.611 87.8499 514.311 89.1099C515.291 87.0099 515.431 86.0299 514.871 84.9099ZM651.921 12.5299C652.621 12.8099 653.041 12.5299 653.461 12.5299C662.281 10.8499 670.961 9.44989 679.781 8.60989C685.521 7.90989 691.261 7.48989 697.001 7.48989C700.361 7.48989 703.721 7.7699 706.941 8.60989C709.041 9.16989 711.001 10.0099 712.401 11.6899C713.521 13.0899 713.941 14.7699 713.801 16.4499C713.521 18.2699 711.841 19.1099 710.441 18.1299C709.741 17.8499 709.461 17.1499 709.461 16.4499C709.461 14.2099 707.921 13.3699 706.101 12.8099C704.421 12.2499 702.741 12.1099 700.921 11.9699C694.761 11.5499 688.601 11.9699 682.441 12.6699C671.941 13.6499 661.721 15.3299 651.361 17.2899C649.821 17.5699 648.981 18.2699 648.281 19.6699C643.661 29.4699 639.321 39.5499 635.401 49.7699C627.001 71.0499 618.601 92.3299 610.201 113.61C606.141 124.11 601.941 134.61 597.741 145.11C597.461 145.67 597.181 146.37 596.901 147.07C596.201 148.05 595.221 148.33 594.241 148.05C593.261 147.63 592.701 146.65 592.981 145.53C592.981 145.11 593.121 144.69 593.401 144.27C598.021 133.07 602.361 121.73 606.841 110.39C609.641 103.11 612.581 95.8299 615.381 88.5499C622.101 71.4699 628.681 54.3899 635.681 37.5899C637.921 31.8499 640.441 26.2499 643.101 20.6499C643.241 20.0899 643.521 19.6699 643.521 19.1099C643.241 18.8299 642.821 18.9699 642.401 19.1099C632.181 21.3499 621.961 23.7299 612.021 27.0899C604.181 29.7499 596.481 32.8299 589.341 37.1699C585.701 39.2699 582.201 41.6499 579.401 44.8699C578.141 46.2699 577.161 47.6699 576.461 49.3499C575.201 52.1499 575.201 55.0899 576.321 58.0299C578.001 62.6499 580.661 66.5699 585.001 69.0899C585.421 69.3699 585.841 69.5099 586.261 69.9299C587.241 70.7699 587.381 71.8899 586.821 72.8699C586.121 73.7099 585.001 73.9899 583.881 73.2899C581.501 72.0299 579.261 70.4899 577.581 68.5299C575.341 66.0099 573.661 63.2099 572.401 60.1299C570.161 54.3899 570.861 49.0699 574.501 44.0299C577.021 40.6699 580.241 37.8699 583.741 35.4899C589.761 31.4299 596.341 28.4899 603.061 25.8299C616.081 20.6499 629.661 17.4299 643.241 14.6299C645.341 14.0699 646.741 13.3699 647.721 11.2699C649.121 8.32989 650.941 5.38989 652.901 2.72989C653.321 2.16989 653.601 1.60989 654.301 1.18989C655.421 0.489889 656.821 0.629896 657.521 1.74989C657.941 2.30989 658.501 2.86989 659.061 3.42989C659.901 4.12989 660.041 5.24989 659.621 6.08989C659.061 6.92989 658.081 7.34989 656.961 6.92989C655.421 6.5099 655.421 6.5099 654.721 7.7699C653.741 9.30989 652.901 10.8499 651.921 12.5299ZM668.983 78.7499C668.003 78.8899 667.583 79.3099 667.163 79.7299C662.683 83.0899 659.043 87.2899 655.683 91.6299C651.623 96.9499 647.843 102.27 644.483 107.87C644.203 108.43 643.923 108.85 643.503 109.27C642.803 110.11 641.963 110.25 641.123 109.83C640.283 109.55 639.863 108.71 639.863 107.73C640.003 107.31 640.003 106.89 640.283 106.47C644.763 94.8499 648.963 83.2299 653.723 71.7499C659.183 58.7299 664.783 45.8499 670.383 32.8299C670.663 31.8499 671.223 31.0099 671.643 30.1699C672.203 29.1899 673.043 28.7699 674.163 28.9099C675.143 29.0499 675.703 29.7499 675.983 30.7299C676.123 31.1499 676.263 31.4299 676.543 31.8499C677.523 33.6699 677.103 35.2099 675.003 35.7699C673.743 36.0499 673.323 36.8899 672.903 37.8699C669.823 45.0099 666.883 52.1499 663.803 59.1499C659.743 68.5299 655.823 77.9099 652.183 87.2899C651.903 88.1299 651.623 88.8299 651.343 89.5299C651.483 89.6699 651.623 89.6699 651.623 89.6699C652.183 88.9699 652.883 88.2699 653.443 87.5699C656.803 83.2299 660.443 79.3099 664.783 75.9499C665.903 75.1099 667.023 74.4099 668.283 73.9899C671.223 73.0099 673.463 74.5499 673.603 77.6299C673.603 79.4499 673.183 81.1299 672.763 82.8099C671.643 87.1499 670.383 91.3499 669.403 95.8299C669.263 96.6699 669.123 97.5099 668.983 98.3499C668.843 99.3299 668.843 100.31 668.983 101.29C669.123 103.81 670.103 104.51 672.623 103.67C679.623 101.43 686.343 98.6299 692.363 94.7099C693.343 94.0099 694.323 93.3099 695.163 92.6099C695.723 92.3299 696.143 91.9099 696.703 91.7699C697.543 91.4899 698.383 91.6299 699.083 92.4699C699.643 93.1699 699.643 94.0099 699.223 94.8499C698.943 95.2699 698.523 95.5499 698.103 95.8299C695.723 97.7899 693.063 99.4699 690.403 100.87C685.363 103.67 680.183 105.77 674.863 107.59C673.743 108.01 672.623 108.29 671.503 108.43C669.263 108.71 667.443 107.87 666.183 106.05C664.923 104.23 664.363 102.13 664.503 99.8899C664.643 97.6499 665.063 95.5499 665.483 93.3099C666.463 89.5299 667.443 85.7499 668.563 81.8299C668.703 80.8499 669.123 79.8699 668.983 78.7499ZM709.219 107.59C707.259 107.73 705.299 107.45 703.339 106.89C698.299 105.35 695.219 101.43 695.079 95.9699C694.939 93.8699 695.359 91.6299 696.059 89.5299C697.739 84.3499 700.539 79.8699 704.459 76.0899C706.699 73.9899 709.359 72.4499 712.439 71.8899C713.559 71.7499 714.539 71.6099 715.659 71.7499C719.719 72.4499 721.819 75.6699 720.699 79.8699C720.139 82.1099 718.879 84.0699 717.479 85.8899C714.119 89.9499 710.199 92.7499 705.019 93.7299C703.619 93.8699 702.359 93.8699 701.099 93.8699C699.699 93.8699 699.279 94.1499 699.419 95.4099C699.559 99.6099 701.099 101.99 705.579 102.97C709.499 103.81 713.279 103.25 716.919 101.99C722.939 100.03 728.679 97.5099 734.559 94.9899C737.079 93.8699 739.739 92.7499 742.259 91.2099C742.539 90.9299 742.959 90.7899 743.379 90.7899C744.219 90.6499 744.919 90.9299 745.479 91.6299C745.899 92.3299 745.899 93.1699 745.339 94.0099C744.919 94.7099 744.219 95.1299 743.379 95.5499C740.859 96.9499 738.339 98.0699 735.679 99.1899C729.799 101.71 724.059 104.23 718.039 106.19C715.239 107.03 712.299 107.73 709.219 107.59ZM702.639 89.5299C705.859 89.3899 708.519 88.2699 711.039 86.3099C713.419 84.3499 715.379 81.9699 716.499 79.0299C717.059 77.2099 716.359 76.0899 714.399 76.0899C713.979 75.9499 713.559 76.0899 713.139 76.0899C711.599 76.5099 710.059 77.2099 708.659 78.1899C705.159 80.8499 702.919 84.4899 701.099 88.4099C700.679 89.2499 700.959 89.5299 701.939 89.5299C702.219 89.6699 702.359 89.5299 702.639 89.5299ZM777.147 100.03C775.887 98.4899 774.487 96.9499 773.087 95.4099C771.967 94.0099 770.847 92.6099 769.867 91.0699C766.507 85.8899 768.327 81.2699 771.687 78.0499C774.067 75.6699 777.147 74.1299 780.647 73.5699C783.027 73.2899 785.407 73.7099 787.507 74.9699C791.007 76.9299 792.127 80.9899 790.447 84.6299C790.027 85.6099 789.327 86.5899 788.487 87.4299C788.067 87.8499 787.647 88.1299 787.087 88.2699C786.107 88.5499 785.267 88.2699 784.707 87.4299C784.147 86.7299 784.287 85.8899 784.707 85.0499C784.987 84.6299 785.407 84.3499 785.687 83.9299C787.787 81.6899 786.947 78.8899 784.147 78.0499C782.887 77.7699 781.767 77.7699 780.647 78.0499C777.987 78.6099 775.747 79.8699 773.927 81.9699C772.107 84.0699 771.967 86.3099 773.367 88.6899C774.767 90.9299 776.587 92.7499 778.267 94.7099C779.527 95.9699 780.647 97.2299 781.627 98.6299C782.187 99.3299 782.607 99.4699 783.447 99.3299C792.547 97.5099 801.507 95.4099 810.327 92.6099C811.587 92.1899 812.847 91.6299 814.107 91.2099C816.067 90.3699 817.187 90.6499 817.747 91.9099C818.307 93.3099 817.607 94.2899 815.647 95.1299C812.287 96.6699 808.647 97.6499 805.007 98.7699C798.707 100.45 792.407 101.99 785.967 103.11C784.707 103.39 784.007 103.81 783.727 105.07C783.307 106.89 782.047 108.01 780.227 108.43C776.587 109.27 772.947 108.71 769.447 107.31C768.747 107.03 768.327 106.61 767.907 106.19C767.067 104.93 767.207 103.53 768.327 102.55C768.887 101.99 769.727 101.71 770.567 101.43C772.387 100.87 774.347 100.73 776.167 100.45C776.447 100.45 776.867 100.45 777.147 100.03ZM773.647 104.65C778.267 101.29 779.947 107.17 773.647 104.65V104.65ZM833.924 90.7899C833.504 90.7899 833.504 91.0699 833.364 91.3499C830.284 95.4099 826.924 99.1899 823.564 102.97C822.024 104.51 820.484 106.05 818.664 107.31C817.684 108.01 816.564 108.57 815.444 108.85C813.624 109.13 811.944 108.43 811.244 106.75C810.824 105.63 810.544 104.51 810.684 103.39C811.104 99.8899 812.224 96.6699 813.484 93.4499C815.304 88.6899 817.404 84.0699 819.504 79.4499C819.924 78.4699 820.344 77.4899 820.764 76.5099C821.464 74.9699 822.584 74.4099 823.844 74.9699C825.104 75.5299 825.524 76.9299 824.824 78.4699C822.164 84.0699 819.504 89.8099 817.264 95.6899C816.424 97.7899 815.724 100.03 815.304 102.41C815.164 102.97 815.024 103.53 815.304 104.23C816.424 103.81 817.264 103.11 817.964 102.27C821.044 99.3299 823.844 96.2499 826.504 92.8899C830.284 88.2699 833.784 83.3699 837.004 78.3299C837.564 77.4899 838.124 76.7899 838.684 76.0899C839.524 75.2499 840.364 74.6899 841.484 75.2499C842.604 75.6699 843.164 76.5099 843.024 77.9099C842.884 79.1699 842.464 80.2899 842.044 81.5499C840.644 85.1899 839.244 88.8299 838.124 92.6099C837.284 95.2699 836.584 97.9299 836.724 100.73C836.724 101.71 836.864 102.55 837.284 103.39C837.704 104.51 838.264 104.79 839.384 104.65C840.364 104.65 841.344 104.23 842.184 103.95C846.104 102.27 849.744 100.31 853.524 98.3499C857.444 96.1099 861.364 93.8699 864.864 91.2099C865.144 91.0699 865.424 90.9299 865.564 90.7899C866.824 90.2299 867.804 90.5099 868.504 91.3499C869.204 92.3299 869.064 93.4499 867.944 94.2899C867.664 94.5699 867.384 94.8499 866.964 95.1299C863.324 97.7899 859.264 100.03 855.204 102.27C851.844 104.09 848.484 105.91 844.844 107.45C843.304 108.15 841.624 108.85 839.804 108.99C836.864 109.27 834.484 108.01 833.364 105.35C832.384 103.25 832.104 101.01 832.384 98.7699C832.524 96.3899 833.084 94.1499 833.784 91.9099C833.784 91.4899 834.064 91.2099 833.924 90.7899ZM902.28 87.7099C900.88 88.4099 899.76 89.5299 898.64 90.5099C894.86 93.8699 891.22 97.3699 887.72 100.87C886.46 102.13 885.2 103.39 883.8 104.51C883.38 104.79 882.96 105.07 882.54 105.35C880.58 106.05 878.9 105.07 878.62 102.97C878.48 101.29 878.9 99.7499 879.46 98.2099C880.58 94.7099 881.98 91.3499 883.38 87.9899C883.66 87.4299 883.94 87.0099 883.94 86.1699C883.1 86.7299 882.68 87.2899 882.26 87.8499C878.06 93.3099 873.86 98.9099 869.52 104.37C868.54 105.63 867.56 106.75 866.44 107.87C865.18 109.13 863.92 109.41 862.8 108.85C861.68 108.29 860.98 106.89 861.26 105.21C861.82 101.85 862.8 98.4899 863.78 95.2699C865.46 89.9499 867.56 84.9099 869.94 80.0099C870.22 79.3099 870.5 78.6099 870.64 77.7699C870.78 76.9299 871.2 76.2299 871.76 75.6699C872.46 74.9699 873.3 74.8299 874.14 75.2499C875.12 75.6699 875.54 76.3699 875.4 77.3499C875.4 78.3299 874.98 79.3099 874.56 80.1499C872.6 84.4899 870.64 88.8299 869.1 93.3099C868.4 95.4099 867.7 97.5099 867 99.6099C867 99.7499 866.86 100.03 867.14 100.31C868.26 98.9099 869.24 97.6499 870.36 96.2499C873.58 92.0499 876.8 87.7099 880.3 83.5099C881.7 81.8299 883.38 80.1499 885.06 78.6099C885.62 78.0499 886.32 77.4899 887.16 77.2099C888.98 76.6499 890.66 77.7699 890.8 79.7299C890.8 80.7099 890.52 81.5499 890.24 82.3899C889.12 85.8899 887.58 89.1099 886.18 92.6099C885.62 94.0099 885.06 95.4099 884.5 96.9499C884.36 97.2299 884.08 97.5099 884.5 97.9299C885.06 97.6499 885.34 97.0899 885.76 96.6699C889.82 92.7499 893.74 88.8299 898.08 85.3299C899.48 84.2099 900.88 83.0899 902.7 82.6699C904.94 82.2499 906.76 83.5099 907.04 85.7499C907.18 87.2899 907.04 88.8299 906.62 90.3699C906.06 92.7499 905.5 95.1299 905.08 97.5099C904.8 99.1899 904.38 100.87 904.8 102.55C905.22 103.95 905.5 104.23 906.9 104.23C908.72 104.09 910.26 103.53 911.66 102.69C917.96 99.1899 924.12 95.5499 929.86 91.3499C931.26 90.3699 932.38 90.3699 933.22 91.2099C934.06 92.1899 933.92 93.5899 932.66 94.7099C931.82 95.2699 931.12 95.8299 930.28 96.3899C925.1 99.8899 919.92 103.11 914.46 106.05C912.36 107.31 909.98 108.15 907.6 108.57C904.1 108.99 901.44 107.31 900.6 103.95C900.04 101.43 900.32 98.9099 900.88 96.5299C901.3 94.1499 901.86 91.7699 902.42 89.3899C902.42 88.9699 902.7 88.4099 902.28 87.7099ZM967.631 87.7099C966.231 88.4099 965.111 89.5299 963.991 90.5099C960.211 93.8699 956.571 97.3699 953.071 100.87C951.811 102.13 950.551 103.39 949.151 104.51C948.731 104.79 948.311 105.07 947.891 105.35C945.931 106.05 944.251 105.07 943.971 102.97C943.831 101.29 944.251 99.7499 944.811 98.2099C945.931 94.7099 947.331 91.3499 948.731 87.9899C949.011 87.4299 949.291 87.0099 949.291 86.1699C948.451 86.7299 948.031 87.2899 947.611 87.8499C943.411 93.3099 939.211 98.9099 934.871 104.37C933.891 105.63 932.911 106.75 931.791 107.87C930.531 109.13 929.271 109.41 928.151 108.85C927.031 108.29 926.331 106.89 926.611 105.21C927.171 101.85 928.151 98.4899 929.131 95.2699C930.811 89.9499 932.911 84.9099 935.291 80.0099C935.571 79.3099 935.851 78.6099 935.991 77.7699C936.131 76.9299 936.551 76.2299 937.111 75.6699C937.811 74.9699 938.651 74.8299 939.491 75.2499C940.471 75.6699 940.891 76.3699 940.751 77.3499C940.751 78.3299 940.331 79.3099 939.911 80.1499C937.951 84.4899 935.991 88.8299 934.451 93.3099C933.751 95.4099 933.051 97.5099 932.351 99.6099C932.351 99.7499 932.211 100.03 932.491 100.31C933.611 98.9099 934.591 97.6499 935.711 96.2499C938.931 92.0499 942.151 87.7099 945.651 83.5099C947.051 81.8299 948.731 80.1499 950.411 78.6099C950.971 78.0499 951.671 77.4899 952.511 77.2099C954.331 76.6499 956.011 77.7699 956.151 79.7299C956.151 80.7099 955.871 81.5499 955.591 82.3899C954.471 85.8899 952.931 89.1099 951.531 92.6099C950.971 94.0099 950.411 95.4099 949.851 96.9499C949.711 97.2299 949.431 97.5099 949.851 97.9299C950.411 97.6499 950.691 97.0899 951.111 96.6699C955.171 92.7499 959.091 88.8299 963.431 85.3299C964.831 84.2099 966.231 83.0899 968.051 82.6699C970.291 82.2499 972.111 83.5099 972.391 85.7499C972.531 87.2899 972.391 88.8299 971.971 90.3699C971.411 92.7499 970.851 95.1299 970.431 97.5099C970.151 99.1899 969.731 100.87 970.151 102.55C970.571 103.95 970.851 104.23 972.251 104.23C974.071 104.09 975.611 103.53 977.011 102.69C983.311 99.1899 989.471 95.5499 995.211 91.3499C996.611 90.3699 997.731 90.3699 998.571 91.2099C999.411 92.1899 999.271 93.5899 998.011 94.7099C997.171 95.2699 996.471 95.8299 995.631 96.3899C990.451 99.8899 985.271 103.11 979.811 106.05C977.711 107.31 975.331 108.15 972.951 108.57C969.451 108.99 966.791 107.31 965.951 103.95C965.391 101.43 965.671 98.9099 966.231 96.5299C966.651 94.1499 967.211 91.7699 967.771 89.3899C967.771 88.9699 968.051 88.4099 967.631 87.7099ZM1009.04 107.59C1007.08 107.73 1005.12 107.45 1003.16 106.89C998.123 105.35 995.043 101.43 994.903 95.9699C994.763 93.8699 995.183 91.6299 995.883 89.5299C997.563 84.3499 1000.36 79.8699 1004.28 76.0899C1006.52 73.9899 1009.18 72.4499 1012.26 71.8899C1013.38 71.7499 1014.36 71.6099 1015.48 71.7499C1019.54 72.4499 1021.64 75.6699 1020.52 79.8699C1019.96 82.1099 1018.7 84.0699 1017.3 85.8899C1013.94 89.9499 1010.02 92.7499 1004.84 93.7299C1003.44 93.8699 1002.18 93.8699 1000.92 93.8699C999.523 93.8699 999.103 94.1499 999.243 95.4099C999.383 99.6099 1000.92 101.99 1005.4 102.97C1009.32 103.81 1013.1 103.25 1016.74 101.99C1022.76 100.03 1028.5 97.5099 1034.38 94.9899C1036.9 93.8699 1039.56 92.7499 1042.08 91.2099C1042.36 90.9299 1042.78 90.7899 1043.2 90.7899C1044.04 90.6499 1044.74 90.9299 1045.3 91.6299C1045.72 92.3299 1045.72 93.1699 1045.16 94.0099C1044.74 94.7099 1044.04 95.1299 1043.2 95.5499C1040.68 96.9499 1038.16 98.0699 1035.5 99.1899C1029.62 101.71 1023.88 104.23 1017.86 106.19C1015.06 107.03 1012.12 107.73 1009.04 107.59ZM1002.46 89.5299C1005.68 89.3899 1008.34 88.2699 1010.86 86.3099C1013.24 84.3499 1015.2 81.9699 1016.32 79.0299C1016.88 77.2099 1016.18 76.0899 1014.22 76.0899C1013.8 75.9499 1013.38 76.0899 1012.96 76.0899C1011.42 76.5099 1009.88 77.2099 1008.48 78.1899C1004.98 80.8499 1002.74 84.4899 1000.92 88.4099C1000.5 89.2499 1000.78 89.5299 1001.76 89.5299C1002.04 89.6699 1002.18 89.5299 1002.46 89.5299ZM1045.32 95.5499C1046.16 94.2899 1047 93.0299 1047.98 91.7699C1050.64 87.8499 1053.72 84.0699 1057.08 80.5699C1058.06 79.4499 1059.32 78.4699 1060.58 77.6299C1063.24 75.9499 1065.48 76.5099 1067.3 79.0299C1067.44 79.1699 1067.58 79.4499 1067.86 79.7299C1071.64 86.0299 1077.8 88.1299 1084.66 88.6899C1085.78 88.8299 1086.9 88.6899 1088.02 88.2699C1088.44 88.1299 1088.86 87.9899 1089.28 87.9899C1090.26 87.8499 1091.1 88.4099 1091.52 89.2499C1091.8 90.2299 1091.52 91.0699 1090.82 91.6299C1090.4 92.0499 1089.84 92.1899 1089.42 92.3299C1086.06 93.5899 1082.84 93.3099 1079.48 92.4699C1076.12 91.6299 1073.04 90.2299 1070.1 88.4099C1067.72 87.0099 1066.04 84.9099 1064.5 82.6699C1063.38 80.8499 1063.24 80.7099 1061.56 82.2499C1056.66 87.0099 1052.46 92.4699 1048.82 98.2099C1046.72 101.57 1044.62 105.07 1042.52 108.57C1041.96 109.41 1041.4 110.25 1040.84 111.09C1040.14 111.93 1039.16 112.49 1037.9 112.07C1036.92 111.79 1036.36 110.81 1036.36 109.41C1036.22 107.45 1036.78 105.49 1037.48 103.67C1038.88 99.0499 1040.7 94.5699 1042.52 90.0899C1043.92 86.4499 1045.46 82.8099 1047 79.1699C1047.14 78.7499 1047.14 78.4699 1047.42 78.1899C1048.12 77.0699 1049.52 76.7899 1050.64 77.4899C1051.76 78.3299 1052.18 79.7299 1051.2 80.7099C1050.36 81.8299 1050.08 83.0899 1049.52 84.2099C1047.98 87.9899 1046.58 91.7699 1045.04 95.4099C1045.04 95.5499 1045.18 95.5499 1045.32 95.5499Z" fill="#FFFFB7"/>
</svg>
