<svg width="1225" height="154" viewBox="0 0 1225 154" fill="none" xmlns="http://www.w3.org/2000/svg">
<path d="M5.57686 123.77C5.29686 126.85 5.29686 129.65 5.57686 132.59C5.85686 134.13 6.13686 135.67 6.69686 137.07C7.67686 139.31 9.35686 140.57 11.8769 140.57C13.8369 140.57 15.6569 140.15 17.4769 139.45C21.3969 137.91 25.1769 135.81 28.6769 133.57C40.1569 126.57 51.0769 119.01 61.9969 111.17C70.1169 105.29 78.0969 99.2699 85.9369 92.9699C87.4769 91.8499 89.0169 90.4499 90.5569 89.1899C91.1169 88.7699 91.5369 88.3499 92.2369 88.0699C93.2169 87.6499 94.0569 87.9299 94.6169 88.6299C95.1769 89.3299 95.3169 90.3099 94.8969 91.0099C94.6169 91.5699 94.0569 91.9899 93.6369 92.2699C82.4369 101.65 70.6769 110.19 58.7769 118.73C49.8169 125.03 40.7169 131.33 31.3369 137.07C27.5569 139.45 23.7769 141.69 19.5769 143.23C17.1969 144.21 14.9569 144.91 12.4369 144.91C8.51686 145.05 5.43686 143.65 3.47686 140.15C1.93686 137.63 1.37686 134.69 1.23686 131.89C0.816856 126.71 1.23686 121.67 2.07686 116.63C5.99686 94.3699 14.2569 73.6499 24.3369 53.6299C29.3769 43.8299 34.9769 34.4499 41.5569 25.7699C46.1769 19.6099 51.2169 14.0099 57.2369 9.2499C61.7169 5.74989 66.4769 2.94989 72.0769 1.5499C75.2969 0.849888 78.3769 0.849888 81.4569 1.96989C85.9369 3.64989 88.4569 7.14989 89.5769 11.6299C90.1369 13.4499 90.2769 15.4099 90.1369 17.2299C89.9969 18.7699 89.9969 20.1699 89.8569 21.5699C89.7169 22.9699 89.0169 23.8099 87.8969 23.9499C86.7769 23.9499 85.7969 23.2499 85.5169 21.8499C85.3769 21.1499 85.3769 20.4499 85.5169 19.7499C85.5169 18.3499 85.7969 16.9499 85.7969 15.4099C85.7969 12.8899 85.0969 10.5099 83.4169 8.54989C81.3169 5.88989 78.3769 5.18989 75.1569 5.4699C72.2169 5.74989 69.4169 6.7299 66.8969 8.12989C61.0169 11.2099 56.2569 15.5499 51.7769 20.3099C46.5969 25.9099 42.1169 32.0699 38.0569 38.5099C26.8569 56.0099 18.4569 74.9099 12.0169 94.6499C9.77686 101.65 7.81686 108.79 6.55686 116.07C6.13686 118.59 5.71686 121.25 5.57686 123.77ZM114.395 75.7499C113.415 75.8899 112.995 76.3099 112.575 76.7299C108.095 80.0899 104.455 84.2899 101.095 88.6299C97.0351 93.9499 93.2551 99.2699 89.8951 104.87C89.6151 105.43 89.3351 105.85 88.9151 106.27C88.2151 107.11 87.3751 107.25 86.5351 106.83C85.6951 106.55 85.2751 105.71 85.2751 104.73C85.4151 104.31 85.4151 103.89 85.6951 103.47C90.1751 91.8499 94.3751 80.2299 99.1351 68.7499C104.595 55.7299 110.195 42.8499 115.795 29.8299C116.075 28.8499 116.635 28.0099 117.055 27.1699C117.615 26.1899 118.455 25.7699 119.575 25.9099C120.555 26.0499 121.115 26.7499 121.395 27.7299C121.535 28.1499 121.675 28.4299 121.955 28.8499C122.935 30.6699 122.515 32.2099 120.415 32.7699C119.155 33.0499 118.735 33.8899 118.315 34.8699C115.235 42.0099 112.295 49.1499 109.215 56.1499C105.155 65.5299 101.235 74.9099 97.5951 84.2899C97.3151 85.1299 97.0351 85.8299 96.7551 86.5299C96.8951 86.6699 97.0351 86.6699 97.0351 86.6699C97.5951 85.9699 98.2951 85.2699 98.8551 84.5699C102.215 80.2299 105.855 76.3099 110.195 72.9499C111.315 72.1099 112.435 71.4099 113.695 70.9899C116.635 70.0099 118.875 71.5499 119.015 74.6299C119.015 76.4499 118.595 78.1299 118.175 79.8099C117.055 84.1499 115.795 88.3499 114.815 92.8299C114.675 93.6699 114.535 94.5099 114.395 95.3499C114.255 96.3299 114.255 97.3099 114.395 98.2899C114.535 100.81 115.515 101.51 118.035 100.67C125.035 98.4299 131.755 95.6299 137.775 91.7099C138.755 91.0099 139.735 90.3099 140.575 89.6099C141.135 89.3299 141.555 88.9099 142.115 88.7699C142.955 88.4899 143.795 88.6299 144.495 89.4699C145.055 90.1699 145.055 91.0099 144.635 91.8499C144.355 92.2699 143.935 92.5499 143.515 92.8299C141.135 94.7899 138.475 96.4699 135.815 97.8699C130.775 100.67 125.595 102.77 120.275 104.59C119.155 105.01 118.035 105.29 116.915 105.43C114.675 105.71 112.855 104.87 111.595 103.05C110.335 101.23 109.775 99.1299 109.915 96.8899C110.055 94.6499 110.475 92.5499 110.895 90.3099C111.875 86.5299 112.855 82.7499 113.975 78.8299C114.115 77.8499 114.535 76.8699 114.395 75.7499ZM144.831 92.5499C145.671 91.2899 146.511 90.0299 147.491 88.7699C150.151 84.8499 153.231 81.0699 156.591 77.5699C157.571 76.4499 158.831 75.4699 160.091 74.6299C162.751 72.9499 164.991 73.5099 166.811 76.0299C166.951 76.1699 167.091 76.4499 167.371 76.7299C171.151 83.0299 177.311 85.1299 184.171 85.6899C185.291 85.8299 186.411 85.6899 187.531 85.2699C187.951 85.1299 188.371 84.9899 188.791 84.9899C189.771 84.8499 190.611 85.4099 191.031 86.2499C191.311 87.2299 191.031 88.0699 190.331 88.6299C189.911 89.0499 189.351 89.1899 188.931 89.3299C185.571 90.5899 182.351 90.3099 178.991 89.4699C175.631 88.6299 172.551 87.2299 169.611 85.4099C167.231 84.0099 165.551 81.9099 164.011 79.6699C162.891 77.8499 162.751 77.7099 161.071 79.2499C156.171 84.0099 151.971 89.4699 148.331 95.2099C146.231 98.5699 144.131 102.07 142.031 105.57C141.471 106.41 140.911 107.25 140.351 108.09C139.651 108.93 138.671 109.49 137.411 109.07C136.431 108.79 135.871 107.81 135.871 106.41C135.731 104.45 136.291 102.49 136.991 100.67C138.391 96.0499 140.211 91.5699 142.031 87.0899C143.431 83.4499 144.971 79.8099 146.511 76.1699C146.651 75.7499 146.651 75.4699 146.931 75.1899C147.631 74.0699 149.031 73.7899 150.151 74.4899C151.271 75.3299 151.691 76.7299 150.711 77.7099C149.871 78.8299 149.591 80.0899 149.031 81.2099C147.491 84.9899 146.091 88.7699 144.551 92.4099C144.551 92.5499 144.691 92.5499 144.831 92.5499ZM187.519 96.1899C187.519 91.9899 188.499 88.3499 189.619 84.8499C190.319 82.3299 191.299 79.9499 192.139 77.5699C192.699 76.4499 193.119 75.3299 193.399 74.0699C193.679 73.3699 193.959 72.6699 194.519 72.1099C195.219 71.5499 196.059 71.4099 196.899 71.8299C197.599 72.1099 198.019 72.8099 198.019 73.6499C198.019 74.3499 197.879 74.9099 197.599 75.4699C196.759 77.8499 195.919 80.0899 194.939 82.3299C193.539 86.2499 192.419 90.1699 191.859 94.2299C191.719 95.6299 191.719 97.0299 192.139 98.4299C192.419 99.5499 192.979 99.8299 194.239 99.8299C195.079 99.8299 195.919 99.6899 196.619 99.4099C205.299 96.3299 213.699 92.8299 221.259 87.5099C221.539 87.2299 221.819 87.0899 222.099 86.9499C223.079 86.5299 223.919 86.8099 224.479 87.5099C225.039 88.3499 225.179 89.1899 224.619 90.0299C224.059 90.7299 223.359 91.1499 222.799 91.7099C219.159 94.2299 215.099 96.3299 211.179 98.1499C207.119 100.11 203.059 101.93 198.859 103.33C197.459 103.75 196.059 104.03 194.659 104.31C191.719 104.59 189.199 103.19 188.219 100.25C187.659 98.8499 187.519 97.3099 187.519 96.1899ZM204.179 57.2699C204.179 58.2499 203.759 58.9499 203.059 59.3699C202.359 59.6499 202.079 60.2099 201.799 60.9099C201.239 62.3099 200.679 63.7099 200.959 65.3899C201.239 66.3699 200.259 67.3499 199.279 67.6299C198.159 67.9099 197.039 67.4899 196.479 66.5099C196.199 65.8099 196.059 65.1099 196.199 64.2699C196.899 61.3299 198.019 58.3899 199.419 55.7299C199.559 55.1699 199.979 54.7499 200.399 54.4699C201.659 53.6299 203.339 54.0499 203.759 55.5899C204.039 56.1499 204.039 56.8499 204.179 57.2699ZM277.598 53.0699C271.018 53.7699 264.858 54.7499 258.558 56.1499C252.958 57.2699 247.498 58.8099 242.178 60.7699C241.198 61.1899 240.218 61.4699 240.218 62.8699V63.0099C239.798 64.4099 238.678 64.6899 237.418 64.8299C235.878 64.8299 234.618 64.4099 233.918 63.0099C233.358 62.0299 233.638 60.9099 234.618 59.9299C235.178 59.2299 236.018 58.8099 236.718 58.3899C240.638 56.5699 244.838 55.3099 249.038 54.0499C257.578 51.6699 266.118 50.1299 274.938 49.0099C276.758 48.7299 278.438 48.5899 280.258 48.3099C281.238 48.3099 282.078 47.8899 282.778 47.0499C285.578 43.2699 288.378 39.3499 291.038 35.4299C291.598 34.7299 292.018 34.0299 292.718 33.4699C293.558 32.7699 294.398 32.6299 295.238 33.0499C296.078 33.6099 296.638 34.5899 296.358 35.5699C296.218 36.1299 296.078 36.6899 295.798 37.2499C294.678 39.9099 293.558 42.7099 292.438 45.3699C292.298 45.6499 292.158 46.0699 292.158 46.3499C291.878 47.1899 292.018 47.4699 292.718 47.3299C295.098 47.0499 297.618 47.1899 299.998 47.1899C304.898 47.0499 309.938 47.0499 314.838 47.1899C320.158 47.3299 325.478 47.6099 330.798 48.0299C335.838 48.3099 340.878 48.8699 345.918 49.7099C347.738 49.9899 349.558 50.4099 351.238 51.1099C352.218 51.6699 353.058 52.2299 353.618 53.2099C354.318 54.1899 354.178 55.1699 353.618 56.1499C352.918 57.5499 350.818 57.6899 350.258 56.4299C349.418 54.8899 348.158 54.6099 346.758 54.1899C343.958 53.6299 341.158 53.2099 338.358 52.9299C329.958 52.0899 321.698 51.8099 313.438 51.5299C308.678 51.3899 304.058 51.3899 299.298 51.3899C296.778 51.3899 294.118 51.6699 291.458 51.6699C290.338 51.6699 289.638 52.0899 289.218 53.2099C288.238 55.8699 287.118 58.3899 286.138 61.0499C279.138 78.2699 272.558 95.6299 266.958 113.27C263.178 124.75 259.958 136.23 257.858 148.13C257.718 148.97 257.578 149.81 257.718 150.65C257.718 151.77 257.158 152.61 256.038 152.89C254.918 153.17 253.938 152.61 253.518 151.63C253.098 150.79 253.098 149.95 253.238 149.11C253.938 144.49 255.058 140.01 256.038 135.53C258.978 122.51 263.458 109.91 267.658 97.3099C272.138 84.0099 277.318 71.1299 282.498 58.1099C283.198 56.5699 283.898 54.8899 284.598 53.2099C284.738 52.9299 284.738 52.6499 284.598 52.5099C284.178 52.2299 283.898 52.5099 283.758 52.6499C282.638 53.9099 281.658 55.1699 280.678 56.4299C273.678 64.9699 266.398 73.0899 258.418 80.6499C250.998 87.6499 243.018 93.9499 234.338 99.2699C232.938 100.11 232.938 100.11 233.218 101.65C233.218 101.79 233.358 102.07 233.358 102.21C233.778 106.41 231.818 108.51 228.178 109.07C226.778 109.21 225.378 109.07 223.978 108.65C221.878 108.09 219.918 107.39 217.958 106.55C217.398 106.27 216.838 105.99 216.418 105.71C215.158 104.31 215.298 102.63 216.978 101.79C217.818 101.37 218.798 101.23 219.778 101.09C221.878 100.67 223.978 99.8299 225.938 98.8499C226.778 98.4299 226.778 98.2899 226.218 97.4499C224.958 95.4899 223.698 93.6699 222.438 91.7099C221.318 90.1699 220.478 88.4899 220.058 86.6699C217.678 77.9899 224.398 69.8699 233.358 70.7099C235.598 70.8499 237.698 71.8299 239.518 73.2299C241.618 75.0499 242.318 77.5699 241.898 80.2299C241.618 82.3299 240.918 84.1499 239.518 85.8299C239.098 86.3899 238.398 86.9499 237.558 87.0899C236.578 87.2299 235.738 86.8099 235.318 85.9699C234.898 85.1299 234.898 84.2899 235.598 83.7299C236.578 82.6099 237.278 81.3499 237.558 79.9499C237.978 78.1299 237.558 76.8699 235.738 75.8899C233.358 74.6299 230.978 74.4899 228.458 75.8899C226.078 77.2899 224.258 79.1099 223.838 82.0499C223.698 84.0099 224.118 85.8299 225.098 87.6499C226.498 90.4499 228.458 92.9699 230.278 95.6299C230.698 96.3299 231.258 96.0499 231.818 95.7699C234.058 94.3699 236.158 92.9699 238.398 91.4299C248.058 84.5699 256.878 76.7299 264.998 67.9099C268.918 63.5699 272.838 59.0899 276.618 54.6099C276.898 54.1899 277.318 53.7699 277.598 53.0699ZM224.678 104.17C226.078 104.73 227.058 104.87 227.758 104.73C228.738 104.45 229.158 103.89 229.018 102.91C228.878 102.49 228.598 102.35 228.318 102.49C227.198 103.05 226.078 103.61 224.678 104.17ZM327.047 84.7099C325.647 85.4099 324.527 86.5299 323.407 87.5099C319.627 90.8699 315.987 94.3699 312.487 97.8699C311.227 99.1299 309.967 100.39 308.567 101.51C308.147 101.79 307.727 102.07 307.307 102.35C305.347 103.05 303.667 102.07 303.387 99.9699C303.247 98.2899 303.667 96.7499 304.227 95.2099C305.347 91.7099 306.747 88.3499 308.147 84.9899C308.427 84.4299 308.707 84.0099 308.707 83.1699C307.867 83.7299 307.447 84.2899 307.027 84.8499C302.827 90.3099 298.627 95.9099 294.287 101.37C293.307 102.63 292.327 103.75 291.207 104.87C289.947 106.13 288.687 106.41 287.567 105.85C286.447 105.29 285.747 103.89 286.027 102.21C286.587 98.8499 287.567 95.4899 288.547 92.2699C290.227 86.9499 292.327 81.9099 294.707 77.0099C294.987 76.3099 295.267 75.6099 295.407 74.7699C295.547 73.9299 295.967 73.2299 296.527 72.6699C297.227 71.9699 298.067 71.8299 298.907 72.2499C299.887 72.6699 300.307 73.3699 300.167 74.3499C300.167 75.3299 299.747 76.3099 299.327 77.1499C297.367 81.4899 295.407 85.8299 293.867 90.3099C293.167 92.4099 292.467 94.5099 291.767 96.6099C291.767 96.7499 291.627 97.0299 291.907 97.3099C293.027 95.9099 294.007 94.6499 295.127 93.2499C298.347 89.0499 301.567 84.7099 305.067 80.5099C306.467 78.8299 308.147 77.1499 309.827 75.6099C310.387 75.0499 311.087 74.4899 311.927 74.2099C313.747 73.6499 315.427 74.7699 315.567 76.7299C315.567 77.7099 315.287 78.5499 315.007 79.3899C313.887 82.8899 312.347 86.1099 310.947 89.6099C310.387 91.0099 309.827 92.4099 309.267 93.9499C309.127 94.2299 308.847 94.5099 309.267 94.9299C309.827 94.6499 310.107 94.0899 310.527 93.6699C314.587 89.7499 318.507 85.8299 322.847 82.3299C324.247 81.2099 325.647 80.0899 327.467 79.6699C329.707 79.2499 331.527 80.5099 331.807 82.7499C331.947 84.2899 331.807 85.8299 331.387 87.3699C330.827 89.7499 330.267 92.1299 329.847 94.5099C329.567 96.1899 329.147 97.8699 329.567 99.5499C329.987 100.95 330.267 101.23 331.667 101.23C333.487 101.09 335.027 100.53 336.427 99.6899C342.727 96.1899 348.887 92.5499 354.627 88.3499C356.027 87.3699 357.147 87.3699 357.987 88.2099C358.827 89.1899 358.687 90.5899 357.427 91.7099C356.587 92.2699 355.887 92.8299 355.047 93.3899C349.867 96.8899 344.687 100.11 339.227 103.05C337.127 104.31 334.747 105.15 332.367 105.57C328.867 105.99 326.207 104.31 325.367 100.95C324.807 98.4299 325.087 95.9099 325.647 93.5299C326.067 91.1499 326.627 88.7699 327.187 86.3899C327.187 85.9699 327.467 85.4099 327.047 84.7099ZM372.659 89.8899C371.819 91.0099 371.119 91.9899 370.279 92.9699C368.179 95.6299 366.079 98.2899 363.559 100.67C362.579 101.79 361.319 102.77 360.059 103.47C359.359 103.89 358.659 104.17 357.819 104.31C355.299 104.73 353.339 103.33 352.919 100.81C352.639 99.4099 352.639 97.8699 352.919 96.4699C354.179 90.4499 356.279 84.7099 360.059 79.6699C362.159 76.8699 364.819 74.4899 368.179 72.9499C369.859 72.2499 371.539 71.8299 373.359 72.1099C375.039 72.3899 376.299 73.0899 377.419 74.3499C377.839 74.9099 378.119 75.0499 378.679 74.3499C380.079 73.0899 381.059 72.9499 382.039 73.6499C383.019 74.3499 383.299 75.4699 382.599 77.1499C381.479 79.8099 380.219 82.4699 379.099 85.1299C377.699 88.4899 376.719 91.8499 376.859 95.4899C376.859 96.4699 376.999 97.5899 377.559 98.4299C378.119 99.8299 378.959 100.25 380.499 99.9699C382.879 99.5499 384.979 98.5699 387.219 97.5899C393.799 94.6499 400.239 91.4299 406.539 87.7899C407.099 87.5099 407.659 87.2299 408.219 87.0899C409.059 86.9499 410.039 87.3699 410.459 88.0699C410.879 88.9099 410.879 89.8899 410.179 90.5899C409.899 90.8699 409.479 91.1499 409.059 91.4299C401.639 95.6299 394.079 99.2699 386.379 102.63C384.699 103.33 383.159 103.89 381.339 104.17C377.559 105.01 374.479 103.19 373.219 99.5499C372.239 96.7499 372.239 93.9499 372.799 91.1499C372.799 90.7299 373.079 90.4499 372.659 89.8899ZM357.119 98.4299C357.259 98.8499 356.839 99.4099 357.399 99.6899C357.959 99.8299 358.379 99.5499 358.659 99.2699C359.919 98.2899 360.899 97.3099 361.879 96.1899C365.379 92.4099 368.599 88.2099 371.679 84.0099C372.519 82.7499 373.499 81.6299 374.339 80.3699C375.319 78.6899 374.339 76.5899 372.379 76.4499C371.119 76.3099 370.139 76.7299 369.019 77.4299C366.919 78.5499 365.239 80.0899 363.699 82.0499C360.759 85.6899 359.219 89.8899 357.819 94.2299C357.539 95.6299 357.259 97.0299 357.119 98.4299ZM414.102 97.0299C412.842 95.4899 411.442 93.9499 410.042 92.4099C408.922 91.0099 407.802 89.6099 406.822 88.0699C403.462 82.8899 405.282 78.2699 408.642 75.0499C411.022 72.6699 414.102 71.1299 417.602 70.5699C419.982 70.2899 422.362 70.7099 424.462 71.9699C427.962 73.9299 429.082 77.9899 427.402 81.6299C426.982 82.6099 426.282 83.5899 425.442 84.4299C425.022 84.8499 424.602 85.1299 424.042 85.2699C423.062 85.5499 422.222 85.2699 421.662 84.4299C421.102 83.7299 421.242 82.8899 421.662 82.0499C421.942 81.6299 422.362 81.3499 422.642 80.9299C424.742 78.6899 423.902 75.8899 421.102 75.0499C419.842 74.7699 418.722 74.7699 417.602 75.0499C414.942 75.6099 412.702 76.8699 410.882 78.9699C409.062 81.0699 408.922 83.3099 410.322 85.6899C411.722 87.9299 413.542 89.7499 415.222 91.7099C416.482 92.9699 417.602 94.2299 418.582 95.6299C419.142 96.3299 419.562 96.4699 420.402 96.3299C429.502 94.5099 438.462 92.4099 447.282 89.6099C448.542 89.1899 449.802 88.6299 451.062 88.2099C453.022 87.3699 454.142 87.6499 454.702 88.9099C455.262 90.3099 454.562 91.2899 452.602 92.1299C449.242 93.6699 445.602 94.6499 441.962 95.7699C435.662 97.4499 429.362 98.9899 422.922 100.11C421.662 100.39 420.962 100.81 420.682 102.07C420.262 103.89 419.002 105.01 417.182 105.43C413.542 106.27 409.902 105.71 406.402 104.31C405.702 104.03 405.282 103.61 404.862 103.19C404.022 101.93 404.162 100.53 405.282 99.5499C405.842 98.9899 406.682 98.7099 407.522 98.4299C409.342 97.8699 411.302 97.7299 413.122 97.4499C413.402 97.4499 413.822 97.4499 414.102 97.0299ZM410.602 101.65C415.222 98.2899 416.902 104.17 410.602 101.65V101.65ZM516.113 89.8899C517.653 89.8899 519.333 89.8899 520.873 89.6099C522.973 89.3299 524.933 88.9099 526.753 87.9299C528.293 87.2299 529.553 87.5099 530.113 88.7699C530.673 89.8899 530.113 91.0099 528.573 91.8499C526.193 93.1099 523.533 93.8099 520.873 94.0899C515.973 94.5099 511.213 94.2299 506.453 93.3899C504.773 92.9699 503.093 92.4099 501.413 91.5699C500.433 91.0099 500.433 91.0099 499.733 91.9899C498.193 94.3699 496.513 96.6099 494.693 98.8499C493.153 100.67 491.473 102.49 489.513 104.03C488.533 104.73 487.553 105.29 486.433 105.71C483.773 106.69 481.253 105.71 479.853 103.05C479.153 101.51 478.873 99.8299 478.733 98.0099C478.593 94.2299 479.153 90.4499 479.853 86.6699C480.553 82.1899 481.533 77.8499 482.653 73.3699C482.793 72.9499 482.933 72.3899 483.213 71.9699C483.773 70.9899 484.613 70.5699 485.593 70.7099C486.433 70.9899 487.133 71.6899 487.273 72.6699C487.413 73.2299 487.273 73.7899 487.133 74.3499C485.593 78.8299 484.753 83.4499 483.913 88.2099C483.493 90.5899 483.353 93.1099 483.073 95.4899C482.933 97.1699 483.073 98.9899 483.633 100.53C484.053 101.79 484.473 101.93 485.593 101.37C487.273 100.39 488.673 99.1299 489.933 97.7299C492.593 94.9299 494.693 91.8499 496.793 88.7699C497.213 87.9299 497.213 87.3699 496.933 86.5299C494.833 81.6299 495.673 77.1499 498.613 72.9499C499.033 72.3899 499.593 71.8299 500.293 71.4099C502.813 69.7299 505.753 70.9899 506.173 74.2099C506.313 75.4699 506.313 76.8699 506.033 78.2699C505.473 80.7899 504.633 83.3099 503.373 85.6899C502.673 87.2299 502.813 87.3699 504.213 88.0699C505.333 88.6299 506.593 88.9099 507.853 89.1899C510.513 89.6099 513.313 90.0299 516.113 89.8899ZM501.833 76.1699C500.573 77.8499 500.013 79.9499 500.433 81.4899C501.273 79.8099 501.693 78.1299 501.833 76.1699ZM526.171 96.1899C526.171 91.9899 527.151 88.3499 528.271 84.8499C528.971 82.3299 529.951 79.9499 530.791 77.5699C531.351 76.4499 531.771 75.3299 532.051 74.0699C532.331 73.3699 532.611 72.6699 533.171 72.1099C533.871 71.5499 534.711 71.4099 535.551 71.8299C536.251 72.1099 536.671 72.8099 536.671 73.6499C536.671 74.3499 536.531 74.9099 536.251 75.4699C535.411 77.8499 534.571 80.0899 533.591 82.3299C532.191 86.2499 531.071 90.1699 530.511 94.2299C530.371 95.6299 530.371 97.0299 530.791 98.4299C531.071 99.5499 531.631 99.8299 532.891 99.8299C533.731 99.8299 534.571 99.6899 535.271 99.4099C543.951 96.3299 552.351 92.8299 559.911 87.5099C560.191 87.2299 560.471 87.0899 560.751 86.9499C561.731 86.5299 562.571 86.8099 563.131 87.5099C563.691 88.3499 563.831 89.1899 563.271 90.0299C562.711 90.7299 562.011 91.1499 561.451 91.7099C557.811 94.2299 553.751 96.3299 549.831 98.1499C545.771 100.11 541.711 101.93 537.511 103.33C536.111 103.75 534.711 104.03 533.311 104.31C530.371 104.59 527.851 103.19 526.871 100.25C526.311 98.8499 526.171 97.3099 526.171 96.1899ZM542.831 57.2699C542.831 58.2499 542.411 58.9499 541.711 59.3699C541.011 59.6499 540.731 60.2099 540.451 60.9099C539.891 62.3099 539.331 63.7099 539.611 65.3899C539.891 66.3699 538.911 67.3499 537.931 67.6299C536.811 67.9099 535.691 67.4899 535.131 66.5099C534.851 65.8099 534.711 65.1099 534.851 64.2699C535.551 61.3299 536.671 58.3899 538.071 55.7299C538.211 55.1699 538.631 54.7499 539.051 54.4699C540.311 53.6299 541.991 54.0499 542.411 55.5899C542.691 56.1499 542.691 56.8499 542.831 57.2699ZM564.73 88.9099C565.57 87.7899 566.41 86.8099 567.25 85.8299C570.75 81.2099 574.81 77.0099 579.29 73.3699C580.13 72.5299 581.11 71.9699 581.95 71.2699C582.65 70.8499 583.21 70.5699 584.05 70.4299C586.01 69.8699 587.69 70.8499 588.11 72.8099C588.39 74.0699 588.39 75.1899 588.11 76.3099C587.55 80.2299 586.29 83.8699 585.45 87.6499C584.75 90.4499 584.19 93.2499 583.77 96.0499C583.63 97.1699 583.49 98.4299 583.63 99.5499C583.91 100.81 584.47 101.23 585.73 100.95C587.27 100.67 588.81 100.11 590.35 99.2699C596.65 96.0499 602.81 92.5499 608.97 88.9099C609.39 88.6299 609.95 88.2099 610.51 88.0699C611.63 87.6499 612.61 87.9299 613.17 88.7699C613.87 89.7499 613.59 90.8699 612.61 91.7099C611.07 92.6899 609.53 93.6699 607.99 94.5099C602.53 97.7299 596.93 100.95 591.19 103.75C589.23 104.59 587.13 105.29 585.03 105.29C582.37 105.29 580.55 104.03 579.71 101.51C579.15 99.9699 579.15 98.4299 579.29 96.8899C579.85 91.1499 581.39 85.5499 582.93 79.9499C583.35 78.5499 583.63 77.1499 583.77 75.4699C582.93 75.7499 582.37 76.3099 581.81 76.8699C577.05 80.6499 573.13 85.1299 569.49 89.8899C566.13 94.0899 563.05 98.4299 560.11 102.91C559.69 103.61 559.13 104.31 558.57 104.87C557.73 105.85 556.61 106.13 555.63 105.71C554.79 105.15 554.23 104.17 554.51 102.91C554.65 101.79 555.07 100.67 555.49 99.5499C557.45 94.5099 559.41 89.4699 561.65 84.4299C563.33 80.5099 565.15 76.5899 566.83 72.5299C566.97 72.3899 566.97 72.2499 567.11 71.9699C567.81 70.5699 569.07 70.0099 570.33 70.7099C571.45 71.2699 571.87 72.9499 571.17 74.0699C568.79 78.4099 567.11 83.1699 565.01 87.6499C564.87 87.9299 564.73 88.3499 564.59 88.7699C564.73 88.7699 564.73 88.7699 564.73 88.9099ZM622.736 50.1299C620.636 49.9899 618.676 50.4099 616.716 50.5499C611.256 51.1099 605.656 51.8099 600.196 52.6499C596.696 53.3499 593.196 54.0499 589.696 55.0299C588.856 55.1699 588.156 55.5899 587.596 56.2899C586.476 57.6899 583.536 57.6899 582.276 56.4299C581.436 55.4499 581.576 54.0499 582.696 53.0699C583.536 52.5099 584.516 52.2299 585.356 51.8099C588.856 50.6899 592.356 49.8499 595.996 49.1499C602.016 47.8899 608.036 47.1899 614.056 46.4899C617.276 46.2099 620.356 45.9299 623.436 45.6499C624.416 45.5099 624.696 44.9499 624.976 44.2499C625.956 41.3099 627.216 38.3699 628.476 35.5699C629.596 33.1899 630.716 30.8099 632.116 28.4299C632.396 27.8699 632.816 27.3099 633.376 26.8899C634.636 25.6299 636.456 26.0499 637.156 27.7299C637.296 28.2899 637.436 28.8499 637.436 29.5499C637.436 30.2499 637.436 31.0899 637.576 31.7899C637.716 33.4699 636.736 34.7299 635.056 34.4499C633.936 34.3099 633.516 34.8699 633.096 35.7099C631.976 38.2299 630.996 40.7499 630.016 43.2699C629.736 43.6899 629.456 44.2499 629.596 44.8099C630.156 45.0899 630.716 44.9499 631.136 44.9499C636.456 44.3899 641.916 44.2499 647.236 43.8299C649.616 43.6899 651.996 43.5499 654.236 43.5499C659.276 43.2699 664.316 43.1299 669.356 43.2699C674.116 43.2699 678.876 43.2699 683.496 44.1099C685.456 44.3899 687.416 44.6699 689.236 45.5099C690.356 46.0699 691.336 46.7699 691.756 48.0299C692.176 49.1499 691.756 50.2699 690.916 50.8299C689.936 51.3899 688.956 51.2499 688.116 50.2699C687.416 49.4299 686.716 49.1499 685.876 48.8699C684.056 48.4499 682.096 48.1699 680.276 48.0299C676.636 47.6099 672.996 47.6099 669.356 47.6099C665.156 47.6099 661.096 47.6099 656.896 47.7499C651.856 48.0299 646.676 48.1699 641.636 48.5899C637.996 48.8699 634.356 49.0099 630.716 49.2899C627.636 49.4299 627.636 49.4299 626.656 52.2299C623.856 60.0699 620.916 67.9099 618.396 76.0299C616.576 81.9099 614.896 87.7899 613.776 93.8099C613.356 95.9099 613.076 98.1499 613.216 100.25C613.216 102.77 613.636 103.05 616.016 102.35C618.956 101.65 621.756 100.53 624.696 99.2699C631.416 96.3299 637.996 92.8299 643.876 88.2099C645.276 87.0899 646.676 87.0899 647.516 88.2099C648.356 89.1899 647.936 90.4499 646.536 91.5699C643.596 94.0899 640.376 96.1899 637.016 98.0099C631.136 101.23 625.116 104.17 618.676 106.13C617.416 106.55 616.156 106.83 614.896 106.97C612.096 107.39 609.996 105.99 609.156 103.33C608.596 101.23 608.596 99.1299 608.876 97.0299C609.296 92.2699 610.556 87.5099 611.816 82.8899C614.756 72.5299 618.396 62.5899 621.896 52.5099C622.176 51.8099 622.456 51.1099 622.736 50.1299ZM661.272 89.8899C660.432 91.0099 659.732 91.9899 658.892 92.9699C656.792 95.6299 654.692 98.2899 652.172 100.67C651.192 101.79 649.932 102.77 648.672 103.47C647.972 103.89 647.272 104.17 646.432 104.31C643.912 104.73 641.952 103.33 641.532 100.81C641.252 99.4099 641.252 97.8699 641.532 96.4699C642.792 90.4499 644.892 84.7099 648.672 79.6699C650.772 76.8699 653.432 74.4899 656.792 72.9499C658.472 72.2499 660.152 71.8299 661.972 72.1099C663.652 72.3899 664.912 73.0899 666.032 74.3499C666.452 74.9099 666.732 75.0499 667.292 74.3499C668.692 73.0899 669.672 72.9499 670.652 73.6499C671.632 74.3499 671.912 75.4699 671.212 77.1499C670.092 79.8099 668.832 82.4699 667.712 85.1299C666.312 88.4899 665.332 91.8499 665.472 95.4899C665.472 96.4699 665.612 97.5899 666.172 98.4299C666.732 99.8299 667.572 100.25 669.112 99.9699C671.492 99.5499 673.592 98.5699 675.832 97.5899C682.412 94.6499 688.852 91.4299 695.152 87.7899C695.712 87.5099 696.272 87.2299 696.832 87.0899C697.672 86.9499 698.652 87.3699 699.072 88.0699C699.492 88.9099 699.492 89.8899 698.792 90.5899C698.512 90.8699 698.092 91.1499 697.672 91.4299C690.252 95.6299 682.692 99.2699 674.992 102.63C673.312 103.33 671.772 103.89 669.952 104.17C666.172 105.01 663.092 103.19 661.832 99.5499C660.852 96.7499 660.852 93.9499 661.412 91.1499C661.412 90.7299 661.692 90.4499 661.272 89.8899ZM645.732 98.4299C645.872 98.8499 645.452 99.4099 646.012 99.6899C646.572 99.8299 646.992 99.5499 647.272 99.2699C648.532 98.2899 649.512 97.3099 650.492 96.1899C653.992 92.4099 657.212 88.2099 660.292 84.0099C661.132 82.7499 662.112 81.6299 662.952 80.3699C663.932 78.6899 662.952 76.5899 660.992 76.4499C659.732 76.3099 658.752 76.7299 657.632 77.4299C655.532 78.5499 653.852 80.0899 652.312 82.0499C649.372 85.6899 647.832 89.8899 646.432 94.2299C646.152 95.6299 645.872 97.0299 645.732 98.4299ZM710.276 116.77C711.396 115.79 712.516 114.95 713.636 114.11C723.856 106.13 734.076 98.1499 744.716 90.7299C745.556 90.1699 746.256 89.6099 747.096 89.0499C748.216 88.4899 749.476 88.6299 750.036 89.6099C750.736 90.5899 750.596 91.8499 749.476 92.5499C746.956 94.5099 744.296 96.1899 741.776 98.1499C730.156 106.69 718.676 115.37 707.616 124.47C706.916 125.03 706.356 125.87 706.076 126.71C703.976 131.75 701.876 136.93 699.076 141.69C697.676 144.07 696.276 146.17 694.596 148.27C693.336 149.67 691.936 150.93 690.396 152.05C689.696 152.47 688.856 152.89 688.016 153.03C684.796 154.01 682.136 151.91 682.276 148.55C682.416 147.43 682.556 146.45 682.976 145.47C684.236 142.11 686.336 139.31 688.716 136.65C692.496 132.03 696.836 127.97 701.456 124.05C702.296 123.35 702.996 122.51 703.416 121.53C707.336 111.87 710.836 102.07 714.476 92.2699C714.476 91.9899 714.616 91.7099 714.476 91.2899C713.916 91.9899 713.356 92.6899 712.796 93.2499C710.416 96.0499 708.036 98.7099 705.236 100.95C704.116 101.93 702.996 102.77 701.736 103.33C699.076 104.45 696.696 103.61 695.436 100.95C694.456 98.7099 694.456 96.3299 694.876 93.9499C696.276 86.1099 700.196 79.6699 706.636 74.9099C708.316 73.6499 710.136 72.6699 712.096 72.3899C715.176 71.9699 717.836 72.5299 719.656 75.3299C719.796 75.4699 719.936 75.7499 720.216 75.7499C720.776 75.0499 721.196 74.3499 721.896 73.6499C722.596 72.9499 723.576 72.8099 724.416 73.2299C725.256 73.7899 725.816 74.7699 725.536 75.7499C725.396 76.1699 725.256 76.5899 724.976 77.1499C724.136 79.3899 723.156 81.7699 722.176 84.0099C718.956 91.8499 716.436 99.9699 713.356 107.81C712.376 110.19 711.536 112.57 710.696 114.81C710.416 115.37 710.136 115.93 710.276 116.77ZM698.936 96.1899C698.936 97.0299 698.936 97.5899 699.216 98.2899C699.496 99.4099 699.776 99.5499 700.756 98.9899C702.436 97.8699 703.836 96.6099 705.236 95.0699C708.876 91.4299 712.096 87.5099 715.176 83.3099C716.016 82.1899 716.856 81.2099 716.296 79.8099C716.156 79.6699 716.296 79.5299 716.296 79.5299C716.436 77.2899 715.176 76.4499 713.076 76.7299C711.536 76.8699 710.136 77.5699 708.876 78.5499C704.816 81.6299 702.016 85.5499 700.336 90.3099C699.636 92.2699 699.076 94.2299 698.936 96.1899ZM698.516 132.45C698.236 132.73 697.956 133.01 697.816 133.29C695.296 135.67 692.916 138.19 690.816 140.85C689.556 142.39 688.436 144.07 687.596 145.89C687.316 146.45 687.036 147.15 686.896 147.71C686.756 147.99 686.616 148.41 686.896 148.69C687.176 148.83 687.456 148.69 687.736 148.55C688.856 147.85 689.976 147.01 690.816 146.03C694.176 142.11 696.556 137.49 698.656 132.87C698.656 132.87 698.656 132.73 698.516 132.45ZM759.885 104.59C757.925 104.73 755.965 104.45 754.005 103.89C748.965 102.35 745.885 98.4299 745.745 92.9699C745.605 90.8699 746.025 88.6299 746.725 86.5299C748.405 81.3499 751.205 76.8699 755.125 73.0899C757.365 70.9899 760.025 69.4499 763.105 68.8899C764.225 68.7499 765.205 68.6099 766.325 68.7499C770.385 69.4499 772.485 72.6699 771.365 76.8699C770.805 79.1099 769.545 81.0699 768.145 82.8899C764.785 86.9499 760.865 89.7499 755.685 90.7299C754.285 90.8699 753.025 90.8699 751.765 90.8699C750.365 90.8699 749.945 91.1499 750.085 92.4099C750.225 96.6099 751.765 98.9899 756.245 99.9699C760.165 100.81 763.945 100.25 767.585 98.9899C773.605 97.0299 779.345 94.5099 785.225 91.9899C787.745 90.8699 790.405 89.7499 792.925 88.2099C793.205 87.9299 793.625 87.7899 794.045 87.7899C794.885 87.6499 795.585 87.9299 796.145 88.6299C796.565 89.3299 796.565 90.1699 796.005 91.0099C795.585 91.7099 794.885 92.1299 794.045 92.5499C791.525 93.9499 789.005 95.0699 786.345 96.1899C780.465 98.7099 774.725 101.23 768.705 103.19C765.905 104.03 762.965 104.73 759.885 104.59ZM753.305 86.5299C756.525 86.3899 759.185 85.2699 761.705 83.3099C764.085 81.3499 766.045 78.9699 767.165 76.0299C767.725 74.2099 767.025 73.0899 765.065 73.0899C764.645 72.9499 764.225 73.0899 763.805 73.0899C762.265 73.5099 760.725 74.2099 759.325 75.1899C755.825 77.8499 753.585 81.4899 751.765 85.4099C751.345 86.2499 751.625 86.5299 752.605 86.5299C752.885 86.6699 753.025 86.5299 753.305 86.5299ZM824.313 95.2099C824.313 96.0499 824.313 96.8899 824.593 97.5899C825.293 100.25 827.113 101.79 829.773 102.07C831.593 102.21 833.413 101.93 835.233 101.51C843.913 99.2699 852.173 96.1899 860.433 92.6899C863.373 91.4299 866.313 90.0299 869.113 88.4899C869.673 88.2099 870.093 87.9299 870.793 87.9299C871.773 87.7899 872.613 88.2099 873.033 89.1899C873.313 90.0299 873.173 90.8699 872.333 91.5699C871.913 91.9899 871.213 92.2699 870.653 92.5499C862.393 96.8899 853.853 100.25 845.033 103.19C841.533 104.31 838.033 105.43 834.253 106.13C832.153 106.55 830.053 106.55 827.953 106.13C823.613 105.15 820.673 101.93 820.113 97.4499C819.693 95.0699 819.973 92.8299 820.533 90.5899C822.213 84.0099 825.713 78.6899 831.173 74.6299C833.133 73.0899 835.373 72.2499 837.753 71.8299C841.673 71.1299 844.473 73.2299 844.893 77.1499C845.173 79.3899 844.473 81.4899 843.633 83.4499C843.213 84.4299 842.093 84.7099 841.113 84.4299C839.993 84.0099 839.433 83.0299 839.573 81.9099C839.713 81.3499 839.853 80.7899 840.133 80.3699C840.553 79.3899 840.553 78.5499 840.413 77.5699C840.413 76.4499 839.993 76.1699 838.873 76.1699C837.753 76.0299 836.773 76.4499 835.793 76.8699C833.273 78.1299 831.173 80.0899 829.493 82.3299C826.973 85.4099 825.293 88.7699 824.453 92.6899C824.313 93.5299 824.313 94.3699 824.313 95.2099ZM903.502 95.9099C901.682 95.9099 900.002 96.0499 898.322 95.7699C896.642 95.4899 894.822 95.2099 893.282 94.3699C892.582 94.0899 892.162 94.2299 891.742 94.7899C890.202 96.7499 888.662 98.7099 886.842 100.39C884.742 102.35 882.502 104.17 879.982 105.29C878.862 105.85 877.742 106.27 876.482 106.41C873.542 106.97 870.882 105.71 869.482 102.91C868.782 101.51 868.362 99.9699 868.362 98.4299C868.082 94.7899 868.782 91.4299 870.182 88.0699C872.002 83.0299 874.802 78.6899 878.722 75.1899C880.962 73.2299 883.342 71.8299 886.422 71.5499C889.082 71.2699 891.322 72.2499 893.142 74.2099C893.842 75.1899 893.842 76.4499 894.402 77.4299C894.962 78.4099 895.942 78.9699 896.362 80.0899C896.782 81.6299 896.782 83.1699 896.502 84.5699C896.222 86.1099 895.802 87.5099 895.242 88.7699C894.682 90.1699 894.822 90.4499 896.222 90.8699C897.902 91.4299 899.582 91.5699 901.122 91.5699C905.182 91.8499 909.242 91.4299 913.162 90.7299C914.702 90.4499 916.242 90.0299 917.642 89.3299C917.922 89.1899 918.062 89.0499 918.342 88.9099C919.462 88.6299 920.442 89.0499 921.002 89.8899C921.422 90.7299 921.282 91.8499 920.442 92.5499C919.882 92.9699 919.322 93.2499 918.622 93.5299C916.102 94.7899 913.302 95.2099 910.502 95.4899C908.122 95.9099 905.742 96.0499 903.502 95.9099ZM872.562 96.7499C872.562 98.0099 872.702 98.9899 872.982 99.9699C873.542 101.79 874.382 102.35 876.202 102.07C877.882 101.79 879.282 100.95 880.542 99.9699C883.622 97.8699 886.142 95.2099 888.242 92.2699C888.802 91.5699 888.942 91.0099 888.382 90.1699C885.862 86.5299 886.142 81.2099 889.362 78.1299C890.062 77.4299 889.922 77.0099 889.082 76.4499C887.962 75.6099 886.702 75.7499 885.302 76.0299C883.902 76.5899 882.642 77.4299 881.522 78.4099C878.162 81.6299 875.922 85.4099 874.242 89.6099C873.262 91.9899 872.702 94.5099 872.562 96.7499ZM892.022 81.9099C890.902 83.3099 890.762 84.8499 891.462 86.1099C892.442 84.0099 892.582 83.0299 892.022 81.9099ZM947.577 102.77C947.577 99.9699 947.857 97.4499 948.137 94.7899C948.137 94.3699 948.417 93.6699 947.997 93.3899C947.437 93.1099 947.157 93.6699 946.737 93.9499C941.697 96.8899 936.797 99.9699 931.617 102.49C929.377 103.61 927.137 104.73 924.617 105.43C919.997 106.83 917.057 105.01 916.217 100.25C915.657 97.3099 916.217 94.5099 916.637 91.8499C918.037 84.5699 920.277 77.5699 922.377 70.4299C926.017 59.0899 929.797 47.8899 934.417 36.8299C935.397 34.4499 936.377 32.0699 937.637 29.8299C938.057 29.1299 938.477 28.2899 939.037 27.7299C940.437 26.3299 942.397 26.6099 943.097 28.4299C943.377 29.1299 943.657 29.6899 944.077 30.2499C944.917 31.6499 944.217 33.3299 942.537 33.4699C942.257 33.4699 941.977 33.4699 941.697 33.4699C940.857 33.3299 940.437 33.7499 940.017 34.5899C939.457 36.1299 938.757 37.6699 938.057 39.2099C931.757 54.8899 926.437 70.8499 922.237 87.2299C921.537 89.7499 920.837 92.4099 920.557 95.2099C920.277 96.7499 920.277 98.2899 920.557 99.8299C920.837 101.51 921.397 101.79 923.077 101.37C925.737 100.67 928.117 99.5499 930.497 98.2899C936.517 95.2099 942.257 91.5699 947.997 88.0699C948.837 87.5099 949.397 86.8099 949.537 85.8299C952.197 72.1099 956.117 58.6699 960.737 45.5099C962.277 41.0299 963.957 36.4099 966.197 32.0699C966.477 31.3699 966.897 30.6699 967.317 29.9699C968.297 28.5699 969.837 28.4299 971.097 29.5499C971.517 29.9699 971.797 30.1099 972.217 30.3899C973.057 30.8099 973.617 31.5099 973.477 32.4899C973.477 33.3299 972.637 34.3099 971.657 34.3099C969.697 34.3099 969.277 35.4299 968.717 36.8299C964.377 47.4699 960.877 58.5299 957.797 69.5899C956.117 75.7499 954.717 82.0499 953.597 88.2099C952.477 94.3699 951.637 100.39 952.057 106.69C952.477 111.03 952.897 115.51 954.297 119.71C954.717 121.11 955.277 122.37 956.117 123.49C957.377 125.03 958.497 125.31 960.037 124.19C960.877 123.77 961.437 123.21 962.137 122.65C962.557 122.23 962.977 121.95 963.537 121.81C964.237 121.67 964.937 121.81 965.497 122.37C966.057 122.93 966.337 123.63 966.057 124.33C965.917 124.61 965.777 125.03 965.637 125.17C963.677 127.27 961.577 128.95 958.637 129.23C956.257 129.51 954.577 128.39 953.177 126.71C951.777 125.17 951.077 123.35 950.377 121.53C948.837 117.33 948.277 113.13 947.857 108.79C947.717 106.69 947.437 104.59 947.577 102.77ZM985.197 104.59C983.237 104.73 981.277 104.45 979.317 103.89C974.277 102.35 971.197 98.4299 971.057 92.9699C970.917 90.8699 971.337 88.6299 972.037 86.5299C973.717 81.3499 976.517 76.8699 980.437 73.0899C982.677 70.9899 985.337 69.4499 988.417 68.8899C989.537 68.7499 990.517 68.6099 991.637 68.7499C995.697 69.4499 997.797 72.6699 996.677 76.8699C996.117 79.1099 994.857 81.0699 993.457 82.8899C990.097 86.9499 986.177 89.7499 980.997 90.7299C979.597 90.8699 978.337 90.8699 977.077 90.8699C975.677 90.8699 975.257 91.1499 975.397 92.4099C975.537 96.6099 977.077 98.9899 981.557 99.9699C985.477 100.81 989.257 100.25 992.897 98.9899C998.917 97.0299 1004.66 94.5099 1010.54 91.9899C1013.06 90.8699 1015.72 89.7499 1018.24 88.2099C1018.52 87.9299 1018.94 87.7899 1019.36 87.7899C1020.2 87.6499 1020.9 87.9299 1021.46 88.6299C1021.88 89.3299 1021.88 90.1699 1021.32 91.0099C1020.9 91.7099 1020.2 92.1299 1019.36 92.5499C1016.84 93.9499 1014.32 95.0699 1011.66 96.1899C1005.78 98.7099 1000.04 101.23 994.017 103.19C991.217 104.03 988.277 104.73 985.197 104.59ZM978.617 86.5299C981.837 86.3899 984.497 85.2699 987.017 83.3099C989.397 81.3499 991.357 78.9699 992.477 76.0299C993.037 74.2099 992.337 73.0899 990.377 73.0899C989.957 72.9499 989.537 73.0899 989.117 73.0899C987.577 73.5099 986.037 74.2099 984.637 75.1899C981.137 77.8499 978.897 81.4899 977.077 85.4099C976.657 86.2499 976.937 86.5299 977.917 86.5299C978.197 86.6699 978.337 86.5299 978.617 86.5299ZM1083.07 49.2899C1081.95 50.6899 1080.97 51.9499 1080.13 53.2099C1071.87 64.4099 1063.33 75.1899 1053.95 85.2699C1048.63 90.8699 1043.31 96.3299 1037.01 100.81C1034.77 102.49 1032.39 104.03 1029.87 105.01C1027.63 105.85 1025.39 106.55 1023.01 106.13C1020.07 105.57 1018.11 103.89 1017.13 101.09C1016.29 98.8499 1016.29 96.6099 1016.71 94.2299C1017.97 87.5099 1020.91 81.4899 1025.67 76.4499C1027.63 74.3499 1030.01 72.6699 1032.95 71.9699C1034.77 71.4099 1036.59 71.4099 1038.41 71.9699C1041.07 72.8099 1042.61 74.6299 1042.75 77.4299C1042.75 79.2499 1042.33 80.9299 1041.77 82.7499C1041.49 83.4499 1041.07 84.2899 1040.79 84.9899C1040.37 86.2499 1039.11 86.8099 1037.99 86.5299C1036.87 86.1099 1036.31 84.8499 1036.73 83.5899C1036.87 83.0299 1037.15 82.4699 1037.29 82.0499C1037.85 80.7899 1038.27 79.3899 1038.27 77.9899C1038.27 76.4499 1037.85 76.0299 1036.17 75.8899C1034.63 75.7499 1033.09 76.1699 1031.69 77.0099C1030.01 78.1299 1028.61 79.5299 1027.35 81.0699C1023.99 85.4099 1021.75 90.1699 1020.91 95.6299C1020.77 96.8899 1020.77 98.1499 1021.19 99.4099C1021.61 101.09 1022.59 101.79 1024.41 101.93C1026.09 101.93 1027.49 101.37 1029.03 100.67C1032.53 98.9899 1035.61 96.7499 1038.55 94.2299C1044.71 89.0499 1050.17 83.1699 1055.49 77.1499C1062.77 68.8899 1069.49 60.3499 1075.79 51.6699C1076.21 51.2499 1076.63 50.8299 1076.77 50.1299C1076.35 49.8499 1075.93 49.9899 1075.51 49.9899C1067.25 50.9699 1059.13 52.3699 1051.15 54.7499C1048.35 55.5899 1045.41 56.5699 1042.61 57.8299C1041.91 58.2499 1041.35 58.6699 1041.35 59.6499C1041.35 60.9099 1040.37 61.4699 1039.25 61.6099C1037.43 61.7499 1036.03 61.0499 1035.61 59.7899C1035.19 58.6699 1035.61 57.4099 1037.15 56.1499C1038.69 54.8899 1040.51 54.0499 1042.47 53.2099C1048.91 50.5499 1055.77 48.8699 1062.63 47.6099C1067.95 46.4899 1073.41 45.7899 1078.87 45.3699C1079.99 45.2299 1080.83 44.8099 1081.53 43.8299C1084.47 39.4899 1087.41 35.1499 1090.35 30.8099C1091.05 29.8299 1091.61 28.8499 1092.45 28.0099C1093.29 26.8899 1094.41 26.6099 1095.39 27.1699C1096.37 27.7299 1096.79 28.8499 1096.23 30.1099C1094.83 33.7499 1093.29 37.2499 1091.75 40.8899C1091.33 41.7299 1090.91 42.5699 1090.63 43.4099C1090.35 44.1099 1090.49 44.3899 1091.33 44.3899C1092.45 44.5299 1093.71 44.5299 1094.97 44.3899C1098.19 44.1099 1101.55 44.1099 1104.91 44.1099C1109.53 44.1099 1114.29 43.9699 1118.91 44.1099C1126.75 44.3899 1134.59 44.6699 1142.29 46.0699C1144.81 46.4899 1147.47 46.9099 1149.71 48.3099C1150.83 48.8699 1151.67 49.7099 1151.95 50.9699C1152.37 52.7899 1150.69 55.0299 1149.01 55.1699C1147.75 55.3099 1146.63 54.3299 1146.63 53.0699C1146.63 51.5299 1146.63 51.5299 1145.23 51.1099C1142.43 50.4099 1139.63 49.9899 1136.69 49.5699C1130.67 49.0099 1124.65 48.7299 1118.63 48.5899C1113.45 48.3099 1108.27 48.3099 1103.23 48.4499C1098.75 48.5899 1094.27 48.5899 1089.93 48.8699C1088.67 49.0099 1087.97 49.4299 1087.55 50.5499C1081.53 64.8299 1075.79 79.1099 1070.89 93.8099C1065.99 108.65 1061.37 123.63 1057.59 138.89C1057.31 140.15 1057.03 141.55 1056.75 142.81C1056.61 143.37 1056.61 143.93 1057.03 144.35C1057.87 145.05 1058.15 146.03 1057.59 147.01C1056.89 148.13 1055.91 148.69 1054.51 148.69C1053.39 148.55 1052.69 147.85 1052.27 146.73C1051.99 145.89 1051.99 145.05 1052.13 144.07C1052.55 140.99 1053.25 138.05 1054.09 135.11C1057.87 120.41 1062.21 105.99 1066.97 91.7099C1071.59 77.9899 1077.05 64.5499 1082.65 51.2499C1082.79 50.6899 1083.21 50.1299 1083.07 49.2899ZM1088.91 96.1899C1088.91 91.9899 1089.89 88.3499 1091.01 84.8499C1091.71 82.3299 1092.69 79.9499 1093.53 77.5699C1094.09 76.4499 1094.51 75.3299 1094.79 74.0699C1095.07 73.3699 1095.35 72.6699 1095.91 72.1099C1096.61 71.5499 1097.45 71.4099 1098.29 71.8299C1098.99 72.1099 1099.41 72.8099 1099.41 73.6499C1099.41 74.3499 1099.27 74.9099 1098.99 75.4699C1098.15 77.8499 1097.31 80.0899 1096.33 82.3299C1094.93 86.2499 1093.81 90.1699 1093.25 94.2299C1093.11 95.6299 1093.11 97.0299 1093.53 98.4299C1093.81 99.5499 1094.37 99.8299 1095.63 99.8299C1096.47 99.8299 1097.31 99.6899 1098.01 99.4099C1106.69 96.3299 1115.09 92.8299 1122.65 87.5099C1122.93 87.2299 1123.21 87.0899 1123.49 86.9499C1124.47 86.5299 1125.31 86.8099 1125.87 87.5099C1126.43 88.3499 1126.57 89.1899 1126.01 90.0299C1125.45 90.7299 1124.75 91.1499 1124.19 91.7099C1120.55 94.2299 1116.49 96.3299 1112.57 98.1499C1108.51 100.11 1104.45 101.93 1100.25 103.33C1098.85 103.75 1097.45 104.03 1096.05 104.31C1093.11 104.59 1090.59 103.19 1089.61 100.25C1089.05 98.8499 1088.91 97.3099 1088.91 96.1899ZM1105.57 57.2699C1105.57 58.2499 1105.15 58.9499 1104.45 59.3699C1103.75 59.6499 1103.47 60.2099 1103.19 60.9099C1102.63 62.3099 1102.07 63.7099 1102.35 65.3899C1102.63 66.3699 1101.65 67.3499 1100.67 67.6299C1099.55 67.9099 1098.43 67.4899 1097.87 66.5099C1097.59 65.8099 1097.45 65.1099 1097.59 64.2699C1098.29 61.3299 1099.41 58.3899 1100.81 55.7299C1100.95 55.1699 1101.37 54.7499 1101.79 54.4699C1103.05 53.6299 1104.73 54.0499 1105.15 55.5899C1105.43 56.1499 1105.43 56.8499 1105.57 57.2699ZM1155.88 95.9099C1154.06 95.9099 1152.38 96.0499 1150.7 95.7699C1149.02 95.4899 1147.2 95.2099 1145.66 94.3699C1144.96 94.0899 1144.54 94.2299 1144.12 94.7899C1142.58 96.7499 1141.04 98.7099 1139.22 100.39C1137.12 102.35 1134.88 104.17 1132.36 105.29C1131.24 105.85 1130.12 106.27 1128.86 106.41C1125.92 106.97 1123.26 105.71 1121.86 102.91C1121.16 101.51 1120.74 99.9699 1120.74 98.4299C1120.46 94.7899 1121.16 91.4299 1122.56 88.0699C1124.38 83.0299 1127.18 78.6899 1131.1 75.1899C1133.34 73.2299 1135.72 71.8299 1138.8 71.5499C1141.46 71.2699 1143.7 72.2499 1145.52 74.2099C1146.22 75.1899 1146.22 76.4499 1146.78 77.4299C1147.34 78.4099 1148.32 78.9699 1148.74 80.0899C1149.16 81.6299 1149.16 83.1699 1148.88 84.5699C1148.6 86.1099 1148.18 87.5099 1147.62 88.7699C1147.06 90.1699 1147.2 90.4499 1148.6 90.8699C1150.28 91.4299 1151.96 91.5699 1153.5 91.5699C1157.56 91.8499 1161.62 91.4299 1165.54 90.7299C1167.08 90.4499 1168.62 90.0299 1170.02 89.3299C1170.3 89.1899 1170.44 89.0499 1170.72 88.9099C1171.84 88.6299 1172.82 89.0499 1173.38 89.8899C1173.8 90.7299 1173.66 91.8499 1172.82 92.5499C1172.26 92.9699 1171.7 93.2499 1171 93.5299C1168.48 94.7899 1165.68 95.2099 1162.88 95.4899C1160.5 95.9099 1158.12 96.0499 1155.88 95.9099ZM1124.94 96.7499C1124.94 98.0099 1125.08 98.9899 1125.36 99.9699C1125.92 101.79 1126.76 102.35 1128.58 102.07C1130.26 101.79 1131.66 100.95 1132.92 99.9699C1136 97.8699 1138.52 95.2099 1140.62 92.2699C1141.18 91.5699 1141.32 91.0099 1140.76 90.1699C1138.24 86.5299 1138.52 81.2099 1141.74 78.1299C1142.44 77.4299 1142.3 77.0099 1141.46 76.4499C1140.34 75.6099 1139.08 75.7499 1137.68 76.0299C1136.28 76.5899 1135.02 77.4299 1133.9 78.4099C1130.54 81.6299 1128.3 85.4099 1126.62 89.6099C1125.64 91.9899 1125.08 94.5099 1124.94 96.7499ZM1144.4 81.9099C1143.28 83.3099 1143.14 84.8499 1143.84 86.1099C1144.82 84.0099 1144.96 83.0299 1144.4 81.9099ZM1175.18 88.9099C1176.02 87.7899 1176.86 86.8099 1177.7 85.8299C1181.2 81.2099 1185.26 77.0099 1189.74 73.3699C1190.58 72.5299 1191.56 71.9699 1192.4 71.2699C1193.1 70.8499 1193.66 70.5699 1194.5 70.4299C1196.46 69.8699 1198.14 70.8499 1198.56 72.8099C1198.84 74.0699 1198.84 75.1899 1198.56 76.3099C1198 80.2299 1196.74 83.8699 1195.9 87.6499C1195.2 90.4499 1194.64 93.2499 1194.22 96.0499C1194.08 97.1699 1193.94 98.4299 1194.08 99.5499C1194.36 100.81 1194.92 101.23 1196.18 100.95C1197.72 100.67 1199.26 100.11 1200.8 99.2699C1207.1 96.0499 1213.26 92.5499 1219.42 88.9099C1219.84 88.6299 1220.4 88.2099 1220.96 88.0699C1222.08 87.6499 1223.06 87.9299 1223.62 88.7699C1224.32 89.7499 1224.04 90.8699 1223.06 91.7099C1221.52 92.6899 1219.98 93.6699 1218.44 94.5099C1212.98 97.7299 1207.38 100.95 1201.64 103.75C1199.68 104.59 1197.58 105.29 1195.48 105.29C1192.82 105.29 1191 104.03 1190.16 101.51C1189.6 99.9699 1189.6 98.4299 1189.74 96.8899C1190.3 91.1499 1191.84 85.5499 1193.38 79.9499C1193.8 78.5499 1194.08 77.1499 1194.22 75.4699C1193.38 75.7499 1192.82 76.3099 1192.26 76.8699C1187.5 80.6499 1183.58 85.1299 1179.94 89.8899C1176.58 94.0899 1173.5 98.4299 1170.56 102.91C1170.14 103.61 1169.58 104.31 1169.02 104.87C1168.18 105.85 1167.06 106.13 1166.08 105.71C1165.24 105.15 1164.68 104.17 1164.96 102.91C1165.1 101.79 1165.52 100.67 1165.94 99.5499C1167.9 94.5099 1169.86 89.4699 1172.1 84.4299C1173.78 80.5099 1175.6 76.5899 1177.28 72.5299C1177.42 72.3899 1177.42 72.2499 1177.56 71.9699C1178.26 70.5699 1179.52 70.0099 1180.78 70.7099C1181.9 71.2699 1182.32 72.9499 1181.62 74.0699C1179.24 78.4099 1177.56 83.1699 1175.46 87.6499C1175.32 87.9299 1175.18 88.3499 1175.04 88.7699C1175.18 88.7699 1175.18 88.7699 1175.18 88.9099Z" fill="#FFD280"/>
</svg>
